<svg width="232" height="374" viewBox="0 0 232 374" fill="none" xmlns="http://www.w3.org/2000/svg">
<path d="M0.5 348C0.5 284.211 52.2113 232.5 116 232.5C179.789 232.5 231.5 284.211 231.5 348C231.5 411.789 179.789 463.5 116 463.5C52.2113 463.5 0.5 411.789 0.5 348ZM231.499 231.5H116H0.501059C0.770439 167.941 52.3781 116.5 116 116.5C179.622 116.5 231.23 167.941 231.499 231.5ZM0.501059 115.5C0.770439 51.9413 52.3781 0.5 116 0.5C179.622 0.5 231.23 51.9413 231.499 115.5H116H0.501059Z" stroke="#094539"/>
</svg>
