<svg width="560" height="440" viewBox="0 0 560 440" fill="none" xmlns="http://www.w3.org/2000/svg">
<path d="M375.492 471.566C368.081 492.034 357.154 526.064 344.406 567H341.768C354.642 525.687 365.695 491.343 373.168 470.687C378.318 456.56 384.095 440.55 382.148 424.602C379.134 400.241 359.038 381.594 338.628 364.579C298.5 331.177 97.9185 169.441 -121 -6.79795V-10C98.5465 166.742 300.007 329.231 340.198 362.758C360.985 380.087 381.52 399.048 384.597 424.351C386.607 440.864 380.704 457.188 375.492 471.566Z" fill="#094539"/>
<path d="M410.495 457.827C402.27 480.553 389.652 519.979 375.087 567H372.45C387.14 519.602 399.822 479.863 408.109 456.949C413.257 442.823 419.033 426.815 417.086 410.869C414.073 386.511 393.983 367.865 373.58 350.852C331.329 315.633 111.16 138.032 -121 -48.8611V-52C111.788 135.395 332.899 313.687 375.212 349.032C395.992 366.359 416.521 385.381 419.598 410.618C421.607 427.129 415.705 443.451 410.495 457.827Z" fill="#094539"/>
<path d="M445.536 444.09C436.498 469.011 422.25 513.894 405.93 567H403.294C419.739 513.517 434.113 468.258 443.151 443.212C448.298 429.088 454.073 413.081 452.127 397.136C449.114 372.78 428.966 354.137 408.629 337.125C364.316 300.152 123.666 106.12 -121 -90.8613V-94C124.231 103.358 365.759 298.206 410.199 335.242C430.974 352.567 451.499 371.525 454.575 396.822C456.646 413.394 450.746 429.715 445.536 444.09Z" fill="#094539"/>
<path d="M481.464 430.354C471.658 457.345 455.693 507.998 437.591 567H434.951C453.179 507.622 469.27 456.654 479.138 429.476C484.292 415.353 490.075 399.347 488.126 383.404C485.109 359.05 464.996 340.408 444.568 323.398C398.055 284.67 135.699 73.4563 -121 -132.799V-136C136.202 70.6945 399.501 282.662 446.139 321.515C466.944 338.839 487.498 357.795 490.578 383.09C492.652 399.661 486.681 415.981 481.464 430.354Z" fill="#094539"/>
<path d="M515.5 416.607C504.96 445.668 487.267 502.16 467.441 567H464.806C484.758 501.783 502.513 444.978 513.116 415.728C518.198 401.605 524.033 385.599 522.088 369.656C519.077 345.301 499 326.659 478.609 309.649C430.048 269.226 145.897 40.058 -121 -174.799V-178C146.336 37.2334 431.554 267.155 480.24 307.766C501.007 325.09 521.524 344.046 524.598 369.342C526.606 385.913 520.708 402.233 515.5 416.607Z" fill="#094539"/>
<path d="M550.502 402.859C539.211 433.992 519.766 496.447 498.313 567H495.678C517.319 496.134 536.828 433.302 548.181 401.98C553.325 387.857 559.096 371.851 557.151 355.907C554.141 331.553 534.068 312.91 513.681 295.9C462.934 253.656 155.505 5.78075 -121 -216.799V-220C155.881 2.95613 464.44 251.648 515.249 294.08C536.012 311.404 556.524 330.36 559.598 355.656C561.605 372.164 555.709 388.484 550.502 402.859Z" fill="#094539"/>
</svg>
