<svg width="20" height="20" viewBox="0 0 20 20" fill="none" xmlns="http://www.w3.org/2000/svg">
<path fill-rule="evenodd" clip-rule="evenodd" d="M5.12322 0H11.8099L17.477 5.90705V17.3963C17.477 18.8356 16.3126 20 14.8783 20H5.12322C3.68394 20 2.51953 18.8356 2.51953 17.3963V2.60369C2.51951 1.16441 3.68392 0 5.12322 0Z" fill="#E5252A"/>
<path opacity="0.302" fill-rule="evenodd" clip-rule="evenodd" d="M11.8047 0V5.86207H17.4769L11.8047 0Z" fill="white"/>
<path d="M5.41406 14.9227V11.2695H6.96829C7.3531 11.2695 7.65796 11.3745 7.88784 11.5894C8.11772 11.7993 8.23267 12.0841 8.23267 12.4389C8.23267 12.7938 8.11772 13.0786 7.88784 13.2885C7.65796 13.5034 7.3531 13.6084 6.96829 13.6084H6.3486V14.9227H5.41406ZM6.3486 12.8138H6.86334C7.00326 12.8138 7.11321 12.7838 7.18819 12.7138C7.26314 12.6489 7.30314 12.5589 7.30314 12.439C7.30314 12.319 7.26316 12.2291 7.18819 12.1641C7.11324 12.0941 7.00329 12.0642 6.86334 12.0642H6.3486V12.8138ZM8.61746 14.9227V11.2695H9.91181C10.1667 11.2695 10.4066 11.3045 10.6314 11.3795C10.8563 11.4544 11.0612 11.5594 11.2411 11.7043C11.4211 11.8442 11.566 12.0341 11.6709 12.274C11.7709 12.5139 11.8259 12.7888 11.8259 13.0986C11.8259 13.4035 11.7709 13.6783 11.6709 13.9182C11.566 14.1581 11.4211 14.348 11.2411 14.4879C11.0612 14.6328 10.8563 14.7378 10.6314 14.8128C10.4066 14.8877 10.1667 14.9227 9.91181 14.9227H8.61746ZM9.532 14.1281H9.80186C9.94678 14.1281 10.0817 14.1131 10.2067 14.0781C10.3266 14.0432 10.4415 13.9882 10.5515 13.9132C10.6564 13.8383 10.7414 13.7333 10.8014 13.5934C10.8613 13.4535 10.8913 13.2885 10.8913 13.0986C10.8913 12.9037 10.8613 12.7388 10.8014 12.5989C10.7414 12.459 10.6564 12.354 10.5515 12.279C10.4415 12.2041 10.3266 12.1491 10.2067 12.1141C10.0817 12.0792 9.94678 12.0641 9.80186 12.0641H9.532V14.1281ZM12.2956 14.9227V11.2695H14.8943V12.0641H13.2302V12.6488H14.5595V13.4385H13.2302V14.9227H12.2956Z" fill="white"/>
</svg>
