<svg width="18" height="18" viewBox="0 0 18 18" fill="none" xmlns="http://www.w3.org/2000/svg">
<path fill-rule="evenodd" clip-rule="evenodd" d="M4.61285 0H10.6308L15.7313 5.31635V15.6567C15.7313 16.952 14.6833 18 13.3924 18H4.61285C3.3175 18 2.26953 16.952 2.26953 15.6567V2.34332C2.26951 1.04797 3.31748 0 4.61285 0Z" fill="white"/>
<path opacity="0.302" fill-rule="evenodd" clip-rule="evenodd" d="M10.627 0V5.27586H15.7319L10.627 0Z" fill="#E5252A"/>
<path d="M4.875 13.4304V10.1426H6.27381C6.62013 10.1426 6.89451 10.237 7.1014 10.4304C7.30829 10.6193 7.41175 10.8757 7.41175 11.1951C7.41175 11.5144 7.30829 11.7708 7.1014 11.9597C6.89451 12.1531 6.62013 12.2475 6.27381 12.2475H5.71608V13.4304H4.875ZM5.71608 11.5324H6.17935C6.30528 11.5324 6.40424 11.5054 6.47171 11.4425C6.53917 11.384 6.57517 11.303 6.57517 11.1951C6.57517 11.0871 6.53919 11.0062 6.47171 10.9477C6.40426 10.8847 6.3053 10.8578 6.17935 10.8578H5.71608V11.5324ZM7.75806 13.4304V10.1426H8.92297C9.15236 10.1426 9.36826 10.1741 9.57065 10.2415C9.77304 10.309 9.95746 10.4035 10.1194 10.5339C10.2813 10.6598 10.4117 10.8307 10.5062 11.0466C10.5961 11.2625 10.6456 11.5099 10.6456 11.7888C10.6456 12.0631 10.5961 12.3105 10.5062 12.5264C10.4117 12.7423 10.2813 12.9132 10.1194 13.0391C9.95744 13.1696 9.77304 13.264 9.57065 13.3315C9.36826 13.3989 9.15236 13.4304 8.92297 13.4304H7.75806ZM8.58115 12.7153H8.82402C8.95445 12.7153 9.0759 12.7018 9.18834 12.6703C9.29628 12.6388 9.39973 12.5894 9.49869 12.5219C9.59314 12.4544 9.6696 12.36 9.72357 12.234C9.77754 12.1081 9.80454 11.9597 9.80454 11.7888C9.80454 11.6133 9.77754 11.4649 9.72357 11.339C9.6696 11.2131 9.59314 11.1186 9.49869 11.0511C9.39973 10.9837 9.2963 10.9342 9.18834 10.9027C9.0759 10.8712 8.95445 10.8577 8.82402 10.8577H8.58115V12.7153ZM11.0684 13.4304V10.1426H13.4072V10.8577H11.9095V11.384H13.1059V12.0946H11.9095V13.4304H11.0684Z" fill="#E5252A"/>
</svg>
