<svg width="18" height="18" viewBox="0 0 18 18" fill="none" xmlns="http://www.w3.org/2000/svg">
<path d="M7.61782 8.11385C7.94083 7.6124 8.10763 7.02632 8.09707 6.42995C8.06962 4.77012 6.68812 3.45117 5.02807 3.45117H0.393075C0.17595 3.45117 0 3.62712 0 3.84425V14.037C0 14.2541 0.17595 14.43 0.393075 14.43H5.57055C7.49205 14.43 9.08393 12.8897 9.09157 10.9682C9.09653 9.79055 8.5122 8.74655 7.61782 8.11385ZM2.03333 5.4845H5.06767C5.61712 5.4845 6.0642 5.93157 6.0642 6.48102C6.0642 7.03047 5.61712 7.47755 5.06767 7.47755H2.03333V5.4845ZM5.61555 12.3967H2.03333V9.51087H5.61555C5.99809 9.51135 6.36483 9.66352 6.63533 9.93402C6.90582 10.2045 7.058 10.5713 7.05847 10.9538C7.058 11.3363 6.90582 11.7031 6.63533 11.9736C6.36483 12.2441 5.99809 12.3962 5.61555 12.3967ZM18 10.2453C18 7.87197 16.1294 5.94102 13.8301 5.94102C11.5306 5.94102 9.66015 7.87197 9.66015 10.2453C9.66015 12.6188 11.5308 14.5495 13.8301 14.5495C15.2251 14.5495 16.5215 13.8345 17.298 12.6363C17.3947 12.4869 17.4827 12.3308 17.5608 12.1699C17.5737 12.143 17.5795 12.1133 17.5778 12.0835C17.5761 12.0537 17.5669 12.0249 17.551 11.9996C17.5351 11.9744 17.5131 11.9535 17.487 11.9391C17.4609 11.9247 17.4316 11.9171 17.4017 11.917L15.352 11.9118C15.3067 11.9121 15.2634 11.9301 15.2311 11.9618C14.8439 12.3382 14.3696 12.5162 13.8303 12.5162C12.8115 12.5162 11.9576 11.7543 11.745 10.7387H17.5921C17.7003 10.7386 17.804 10.6956 17.8805 10.6191C17.957 10.5425 18 10.4388 18 10.3305V10.2453ZM13.8301 7.97435C14.576 7.97435 15.2336 8.3834 15.6159 9.00102H12.044C12.4263 8.3834 13.084 7.97435 13.8301 7.97435ZM15.5628 5.43612H11.8642C11.7814 5.43606 11.7019 5.40312 11.6433 5.34452C11.5847 5.28592 11.5518 5.20647 11.5517 5.1236V4.19592C11.5518 4.11305 11.5847 4.0336 11.6433 3.975C11.7019 3.9164 11.7814 3.88346 11.8642 3.8834H15.5628C15.7354 3.8834 15.8751 4.02335 15.8751 4.19592V5.1236C15.8751 5.2964 15.7354 5.43612 15.5628 5.43612Z" fill="white"/>
</svg>
