<svg width="18" height="18" viewBox="0 0 18 18" fill="none" xmlns="http://www.w3.org/2000/svg">
<g clip-path="url(#clip0_2066_23548)">
<path fill-rule="evenodd" clip-rule="evenodd" d="M11.0869 8.52574C10.9044 8.10387 10.7142 7.68269 10.5114 7.26609C12.2435 6.51586 13.6357 5.49703 14.6728 4.20504C15.6846 5.4007 16.3199 6.9191 16.4134 8.58094C14.4823 8.26488 12.7062 8.2473 11.0869 8.52574ZM13.1266 15.1798C12.7983 13.4156 12.3163 11.6905 11.687 10.0076C13.0936 9.80859 14.6422 9.86027 16.3357 10.1549C16.008 12.2442 14.8155 14.0491 13.1266 15.1798ZM4.43742 14.8577C5.91398 12.5413 7.79941 11.0334 10.1355 10.3373C10.8306 12.1528 11.3425 14.0196 11.668 15.9321C9.23449 16.8725 6.50004 16.4686 4.43742 14.8577ZM1.57535 8.8084C4.46133 8.80418 6.95109 8.47266 9.03727 7.81629C9.21199 8.17242 9.37934 8.53031 9.5393 8.89066C7.00559 9.68238 4.9166 11.3063 3.28746 13.7507C2.11465 12.343 1.5307 10.6358 1.57535 8.8084ZM5.64574 2.37375C6.64453 3.68051 7.52871 5.0277 8.29828 6.41004C6.47543 6.94652 4.30031 7.22215 1.78488 7.23938C2.30449 5.11312 3.73605 3.34477 5.64574 2.37375ZM13.5323 3.11977C12.6288 4.28484 11.3815 5.20629 9.79207 5.87918C9.03059 4.48383 8.16012 3.12258 7.1768 1.80141C9.40289 1.23363 11.7056 1.70895 13.5323 3.11977ZM8.99965 0C4.02926 0 0 4.02961 0 9C0 13.9704 4.02926 18 8.99965 18C13.9707 18 18 13.9704 18 9C18 4.02961 13.9704 0 8.99965 0Z" fill="white"/>
</g>
<defs>
<clipPath id="clip0_2066_23548">
<rect width="18" height="18" fill="white"/>
</clipPath>
</defs>
</svg>
