<svg width="60" height="60" viewBox="0 0 60 60" fill="none" xmlns="http://www.w3.org/2000/svg">
<path d="M30.0703 30.0002C30.0703 24.4774 34.5475 20.0002 40.0703 20.0002C45.5931 20.0002 50.0702 24.4775 50.0702 30.0002C50.0702 35.5231 45.593 40.0002 40.0703 40.0002C34.5473 40.0002 30.0703 35.523 30.0703 30.0002Z" fill="#00BCFF"/>
<path d="M10.0691 50C10.0691 44.4772 14.5462 40.0001 20.0691 40.0001L25.3982 37.1865L30.069 40.0001V50C30.069 55.523 25.5919 60 20.0691 60C14.5462 60 10.0691 55.5228 10.0691 50Z" fill="#00CF7F"/>
<path d="M30.0684 0L24.627 9.45352L30.0684 19.9999H39.9281C45.4511 19.9999 49.9281 15.5228 49.9281 9.99996C49.9281 4.47715 45.4509 0 39.9281 0H30.0684Z" fill="#FF7361"/>
<path d="M9.92871 9.99996C9.92871 15.5228 14.4059 19.9999 19.9287 19.9999L25.2334 22.0488L30.0689 19.9999V0H19.9286C14.4059 0 9.92871 4.47715 9.92871 9.99996Z" fill="#FF4D12"/>
<path d="M10.0691 30.0001C10.0691 35.523 14.5462 40 20.0691 40H30.069V20H20.0691C14.5462 20 10.0691 24.4773 10.0691 30.0001Z" fill="#B659FF"/>
</svg>
