<svg width="18" height="18" viewBox="0 0 18 18" fill="none" xmlns="http://www.w3.org/2000/svg">
<path d="M16.2 16.1998V10.9258C16.2 8.3338 15.642 6.3538 12.618 6.3538C11.16 6.3538 10.188 7.1458 9.79205 7.9018H9.75605V6.5878H6.89405V16.1998H9.88205V11.4298C9.88205 10.1698 10.116 8.9638 11.664 8.9638C13.194 8.9638 13.212 10.3858 13.212 11.5018V16.1818H16.2V16.1998ZM2.03405 6.5878H5.02205V16.1998H2.03405V6.5878ZM3.52805 1.7998C2.57405 1.7998 1.80005 2.5738 1.80005 3.5278C1.80005 4.4818 2.57405 5.2738 3.52805 5.2738C4.48205 5.2738 5.25605 4.4818 5.25605 3.5278C5.25605 2.5738 4.48205 1.7998 3.52805 1.7998Z" fill="white"/>
</svg>
