<svg width="60" height="60" viewBox="0 0 60 60" fill="none" xmlns="http://www.w3.org/2000/svg">
<path d="M12.9979 0H47.0021C54.1758 0 60 5.82421 60 12.9979V47.0021C60 54.1758 54.1758 60 47.0021 60H12.9979C5.82421 60 0 54.1758 0 47.0021V12.9979C0 5.82421 5.82421 0 12.9979 0Z" fill="#FFD02F"/>
<path d="M41.6926 7.49268H35.1049L40.5917 17.1346L28.5171 7.49268H21.9294L27.9667 19.2831L15.3417 7.49268H8.75391L15.3417 22.4971L8.75391 52.506H15.3417L27.9667 20.3485L21.9294 52.506H28.5171L40.5917 18.2177L35.1049 52.506H41.6926L53.7672 14.986L41.6926 7.49268Z" fill="#050038"/>
</svg>
