<svg width="60" height="60" viewBox="0 0 60 60" fill="none" xmlns="http://www.w3.org/2000/svg">
<g clip-path="url(#clip0_2066_384)">
<path d="M10.625 0.75H49.375C55.243 0.75 60 5.50698 60 11.375V48.625C60 54.493 55.243 59.25 49.375 59.25H10.625C4.75698 59.25 0 54.493 0 48.625V11.375C0 5.50698 4.75698 0.75 10.625 0.75Z" fill="#470137"/>
<path d="M31.5428 16.1347L24.0562 28.4914L32.066 41.6129C32.1173 41.7048 32.1318 41.8127 32.1063 41.9148C32.0793 42.0091 31.9856 41.9497 31.8246 41.9762H26.1092C25.7065 41.9762 25.4248 41.962 25.2638 41.6934C24.7296 40.6524 24.1929 39.6126 23.6538 38.5741C23.1007 37.5117 22.5305 36.4584 21.9433 35.4145C21.3352 34.3338 20.7381 33.247 20.1521 32.1542H20.1118C19.5707 33.2356 19.0138 34.309 18.4413 35.3742C17.8685 36.4394 17.2983 37.506 16.7308 38.574C16.1672 39.6344 15.5903 40.6877 15.0001 41.7336C14.8925 41.9751 14.7045 42 14.4365 42H8.92223C8.81524 42 8.75489 42.0423 8.74106 41.9348C8.7259 41.8367 8.74743 41.7364 8.80153 41.6531L16.5697 28.8939L9.00274 16.0944C8.92223 15.9875 8.90887 15.9003 8.96242 15.8328C8.99216 15.7985 9.02946 15.7715 9.07139 15.7541C9.11333 15.7366 9.15874 15.7291 9.20406 15.7322H14.8792C15.0029 15.7254 15.1267 15.746 15.2415 15.7927C15.3378 15.8472 15.4204 15.9229 15.483 16.014C15.9765 17.1084 16.5136 18.1826 17.093 19.234C17.6789 20.3002 18.276 21.3602 18.8842 22.4138C19.4831 23.4511 20.0404 24.5119 20.5546 25.5936H20.595C21.122 24.5121 21.6654 23.4386 22.2251 22.3736C22.7748 21.3272 23.3382 20.2739 23.9155 19.214C24.4852 18.1676 25.0421 17.1143 25.586 16.0543C25.6168 15.955 25.6722 15.865 25.747 15.7928C25.8464 15.7424 25.9581 15.7214 26.069 15.7323H31.3417C31.4011 15.7177 31.4639 15.7272 31.5162 15.7588C31.5686 15.7905 31.6062 15.8416 31.6209 15.9009C31.6313 15.9433 31.6294 15.9877 31.6156 16.0291C31.6018 16.0705 31.5765 16.1071 31.5428 16.1347ZM43.094 42.4985C41.2414 42.5267 39.4058 42.1416 37.7206 41.3714C36.1508 40.6449 34.8385 39.4588 33.9574 37.9703C33.0447 36.4546 32.5887 34.5561 32.5889 32.2749C32.5738 30.4275 33.0458 28.6089 33.9574 27.002C34.8964 25.3654 36.2774 24.0263 37.9421 23.138C39.686 22.1721 41.7924 21.689 44.2614 21.689C44.3953 21.689 44.5697 21.6957 44.7846 21.7092C44.9991 21.723 45.2541 21.743 45.5494 21.7695V13.8402C45.5494 13.6529 45.63 13.5585 45.791 13.5585H50.8624C50.8952 13.5539 50.9286 13.5569 50.9601 13.5674C50.9915 13.5778 51.0201 13.5955 51.0435 13.6189C51.0669 13.6424 51.0846 13.6709 51.0951 13.7024C51.1056 13.7338 51.1086 13.7672 51.1039 13.8001V37.5879C51.1039 38.0444 51.1241 38.5409 51.1642 39.0772C51.2046 39.6142 51.2381 40.0973 51.2649 40.5262C51.2698 40.6098 51.2494 40.6929 51.2063 40.7648C51.1632 40.8366 51.0994 40.8937 51.0233 40.9287C49.7149 41.4743 48.3522 41.8791 46.9581 42.1362C45.6834 42.3714 44.3903 42.4927 43.094 42.4985ZM45.5492 37.5075V26.5192C45.3317 26.4603 45.1095 26.4199 44.8852 26.3984C44.6109 26.3709 44.3356 26.3574 44.0599 26.3582C43.0832 26.3485 42.118 26.5691 41.2425 27.0022C40.3897 27.426 39.6616 28.064 39.1294 28.8537C38.5791 29.6586 38.3041 30.7185 38.3042 32.0335C38.2847 32.9108 38.4279 33.7843 38.7268 34.6094C38.97 35.2743 39.3545 35.8785 39.8539 36.3804C40.3318 36.8422 40.9105 37.1866 41.5442 37.3867C42.2137 37.6034 42.9134 37.7121 43.6171 37.7086C43.9926 37.7086 44.3414 37.6951 44.6636 37.6684C44.9636 37.6459 45.2605 37.5919 45.5492 37.5075Z" fill="#FF61F6"/>
</g>
<defs>
<clipPath id="clip0_2066_384">
<rect width="60" height="60" fill="white"/>
</clipPath>
</defs>
</svg>
