<svg width="60" height="60" viewBox="0 0 60 60" fill="none" xmlns="http://www.w3.org/2000/svg">
<mask id="mask0_2066_358" style="mask-type:alpha" maskUnits="userSpaceOnUse" x="0" y="0" width="60" height="60">
<rect width="60" height="60" fill="#D9D9D9"/>
</mask>
<g mask="url(#mask0_2066_358)">
<path d="M9.24987 39.0984L6.11113 40.2462L5.94409 49.5906L16.8088 45.6183C13.0792 44.3682 10.3593 42.165 9.24987 39.0984Z" fill="#FDBD39"/>
<path d="M10.8921 29.2153L0 33.1976L6.11046 40.249L9.2492 39.1012C8.14229 36.0446 8.82538 32.5938 10.8921 29.2153Z" fill="#F69833"/>
<path d="M29.2175 15.7282C15.3487 20.7984 6.40613 31.2631 9.2482 39.0979L59.4706 20.736C56.6286 12.9011 43.0863 10.658 29.2175 15.7282Z" fill="#FECF33"/>
<path d="M39.4992 44.1081C53.368 39.0379 62.3256 28.6205 59.4685 20.7383L9.24609 39.0978C12.1031 46.9825 25.6304 49.1783 39.4992 44.1081Z" fill="#EE6723"/>
<path d="M59.4688 20.7358L9.2489 39.0978C10.2312 41.8126 13.9832 43.15 19.2435 43.15C24.3742 43.15 30.9409 41.8799 37.7868 39.3773C51.6556 34.3071 61.4109 26.0955 59.4688 20.7358Z" fill="#F69833"/>
<path d="M49.4745 16.687C44.3463 16.687 37.7771 17.9571 30.9312 20.4597C17.0624 25.5299 7.30708 33.739 9.24916 39.0986L59.4716 20.7367C58.4868 18.0219 54.7373 16.687 49.4745 16.687Z" fill="#FDBD39"/>
<path d="M46.6995 50.0875C45.2211 50.0875 43.0422 48.7526 40.2201 46.1177C36.8819 43.0012 33.06 38.4351 29.4526 33.2626C25.8476 28.0901 22.8859 22.9201 21.1109 18.7007C19.1787 14.1046 18.902 11.2801 20.2906 10.302C20.6122 10.0824 20.9937 9.97012 21.3826 9.9801C22.5119 9.9801 24.7158 10.821 28.7869 14.8332L28.8767 14.9205L28.8642 15.0453C28.8368 15.3347 28.8119 15.6242 28.7894 15.9111L28.7446 16.4775L28.3457 16.0758C23.9579 11.6519 22.0283 11.1753 21.4001 11.1753C21.2206 11.1753 21.0784 11.2102 20.9762 11.2826C20.3729 11.7068 20.333 13.7827 22.2078 18.2366C23.9504 22.3786 26.8698 27.4713 30.4274 32.5764C33.9874 37.684 37.7519 42.1803 41.0328 45.2419C44.5679 48.543 46.161 48.8998 46.682 48.8998C46.8615 48.8998 47.0061 48.8624 47.1158 48.785C47.7516 48.3384 47.7516 46.1152 45.6624 41.3195L45.5652 41.0999L45.7746 40.9851C45.984 40.8703 46.1884 40.7581 46.3779 40.6483L46.6297 40.506L46.7469 40.7705C48.2277 44.169 49.6139 48.4881 47.7964 49.7656C47.4748 49.9852 47.0909 50.0975 46.6995 50.0875Z" fill="#EE6723"/>
<path d="M39.834 43.9636L39.8141 44.2231C39.4626 48.5647 38.5401 53.7846 36.1319 53.9966C36.082 54.0016 36.0321 54.0016 35.9848 54.0016C34.3493 54.0016 32.8011 51.6562 31.3876 47.0326C30.0463 42.6561 29.0067 36.7825 28.4608 30.4921C27.9123 24.2018 27.9198 18.2358 28.4832 13.6921C29.0965 8.74171 30.2632 6.15671 31.9535 6.007C32.0034 6.00201 32.0557 5.99951 32.1056 5.99951C33.2923 5.99951 35.0798 7.34441 36.9097 13.6073L35.7155 13.8368C35.1047 11.7459 34.4391 10.0442 33.7784 8.87146C33.1676 7.79105 32.5718 7.1947 32.1056 7.1947C32.0906 7.1947 32.0757 7.1947 32.0582 7.19719C31.3253 7.26207 30.2582 9.03863 29.6649 13.8393C29.1114 18.3007 29.104 24.1793 29.6449 30.3873C30.1859 36.5978 31.2081 42.3841 32.5244 46.6808C33.1128 48.6046 33.7585 50.1915 34.3942 51.2669C34.9776 52.26 35.5435 52.8065 35.9848 52.8065C35.9997 52.8065 36.0147 52.8064 36.0296 52.804C36.7302 52.7441 38.0515 50.8927 38.6074 44.3827L39.834 43.9636Z" fill="#EE6723"/>
</g>
</svg>
