<svg width="44" height="44" viewBox="0 0 44 44" fill="none" xmlns="http://www.w3.org/2000/svg">
<path d="M5.82794 42.625C3.10393 39.8145 1.51906 36.0936 1.37994 32.1821C1.24081 28.2705 2.5573 24.4464 5.07475 21.4495C7.59219 18.4525 11.1317 16.4957 15.0085 15.9576C18.8853 15.4195 22.8239 16.3384 26.0624 18.5364L29.4539 21.6459C30.2316 22.6001 30.8951 23.6418 31.4311 24.75L30.25 40.5384C29.7425 41.2809 29.1728 41.979 28.5471 42.625H5.82794Z" fill="#2D9739"/>
<path d="M31.4311 24.75C30.8952 23.6419 30.2316 22.6002 29.4539 21.646L26.0624 18.5357L26.0026 18.4952C24.0044 17.1628 21.6565 16.4518 19.2548 16.4518C16.8531 16.4518 14.5052 17.1628 12.507 18.4952C10.5852 19.7841 8.96966 21.4792 7.77449 23.4607C6.57933 25.4422 5.83364 27.6619 5.59007 29.9631C5.3465 32.2643 5.61097 34.591 6.36482 36.7788C7.11867 38.9666 8.34353 40.9623 9.95295 42.625H28.5471C29.1728 41.979 29.7425 41.281 30.25 40.5385L31.4311 24.75Z" fill="#44BC59"/>
<path d="M30.5752 23.2107C30.2334 22.6669 29.859 22.1444 29.4539 21.646L27.9366 20.2545C27.2062 20.7532 26.4142 21.1551 25.5805 21.45L22.5747 22.4744C22.4057 22.5335 22.2594 22.6441 22.1563 22.7905C22.0532 22.937 21.9986 23.112 22 23.2911V28.0143C21.9969 28.165 22.0345 28.3138 22.1087 28.445C22.1829 28.5763 22.2911 28.6851 22.4219 28.7601C22.5527 28.8352 22.7012 28.8736 22.852 28.8714C23.0028 28.8693 23.1502 28.8266 23.2787 28.7478L26.2989 26.86C27.8902 25.8525 29.33 24.6238 30.5752 23.2107Z" fill="#2D9739"/>
<path d="M20.625 13.0625H13.75C12.9906 13.0625 12.375 13.6781 12.375 14.4375C12.375 15.1969 12.9906 15.8125 13.75 15.8125H20.625C21.3844 15.8125 22 15.1969 22 14.4375C22 13.6781 21.3844 13.0625 20.625 13.0625Z" fill="#FFC239"/>
<path d="M17.1875 37.8125C21.7438 37.8125 25.4375 34.1188 25.4375 29.5625C25.4375 25.0062 21.7438 21.3125 17.1875 21.3125C12.6312 21.3125 8.9375 25.0062 8.9375 29.5625C8.9375 34.1188 12.6312 37.8125 17.1875 37.8125Z" fill="#ABE4A3"/>
<path d="M17.1875 21.3125C15.5881 21.3112 14.0233 21.7777 12.6857 22.6545C11.6485 24.2391 11.1884 26.1325 11.383 28.0163C11.5775 29.9002 12.4147 31.6596 13.7539 32.9988C15.0931 34.338 16.8525 35.1752 18.7364 35.3698C20.6203 35.5643 22.5137 35.1043 24.0982 34.067C24.9117 32.8226 25.3735 31.3814 25.4348 29.8959C25.496 28.4105 25.1544 26.9362 24.4462 25.629C23.7379 24.3219 22.6894 23.2306 21.4115 22.4707C20.1337 21.7108 18.6742 21.3106 17.1875 21.3125Z" fill="#CDF8C8"/>
<path d="M13.75 13.0625L11.8387 9.625C11.3678 8.48238 12.0099 6.875 13.0625 6.875H21.3125C22.3651 6.875 23.0072 8.48238 22.5362 9.625L20.625 13.0625H13.75ZM17.1875 28.875C16.9156 28.875 16.6497 28.7944 16.4236 28.6433C16.1975 28.4922 16.0212 28.2774 15.9172 28.0262C15.8131 27.7749 15.7859 27.4985 15.8389 27.2318C15.892 26.965 16.0229 26.72 16.2152 26.5277C16.4075 26.3354 16.6525 26.2045 16.9193 26.1514C17.186 26.0984 17.4624 26.1256 17.7137 26.2297C17.9649 26.3337 18.1797 26.51 18.3308 26.7361C18.4819 26.9622 18.5625 27.2281 18.5625 27.5H19.9375C19.9352 26.8921 19.7316 26.3021 19.3584 25.8222C18.9853 25.3423 18.4636 24.9996 17.875 24.8476V24.0625H16.5V24.8476C15.8526 25.0142 15.2883 25.4114 14.913 25.9646C14.5377 26.5177 14.3772 27.1888 14.4615 27.852C14.5459 28.5151 14.8694 29.1246 15.3713 29.5661C15.8732 30.0077 16.519 30.2508 17.1875 30.25C17.4594 30.25 17.7253 30.3306 17.9514 30.4817C18.1775 30.6328 18.3538 30.8476 18.4578 31.0988C18.5619 31.3501 18.5891 31.6265 18.5361 31.8932C18.483 32.16 18.3521 32.405 18.1598 32.5973C17.9675 32.7896 17.7225 32.9205 17.4557 32.9736C17.189 33.0266 16.9126 32.9994 16.6613 32.8953C16.4101 32.7913 16.1953 32.615 16.0442 32.3889C15.8931 32.1628 15.8125 31.8969 15.8125 31.625H14.4375C14.4398 32.2329 14.6434 32.8229 15.0166 33.3028C15.3897 33.7827 15.9114 34.1254 16.5 34.2774V35.0625H17.875V34.2774C18.5224 34.1108 19.0867 33.7136 19.462 33.1604C19.8373 32.6073 19.9978 31.9362 19.9135 31.273C19.8291 30.6099 19.5056 30.0004 19.0037 29.5589C18.5018 29.1173 17.856 28.8742 17.1875 28.875Z" fill="#2D9739"/>
<path d="M1.375 41.9375H42.625V43.3125H1.375V41.9375ZM25.4375 29.5625H28.1875V40.5625H25.4375V29.5625ZM30.25 24.75H33V40.5625H30.25V24.75ZM35.0625 19.9375H37.8125V40.5625H35.0625V19.9375Z" fill="#FFC239"/>
<path d="M25.1818 27.5577C24.7173 25.7049 23.6237 24.0709 22.088 22.935C22.034 23.0461 22.0047 23.1676 22.0021 23.2911V28.0142C21.999 28.165 22.0365 28.3138 22.1108 28.445C22.185 28.5763 22.2932 28.6851 22.424 28.7601C22.5548 28.8351 22.7033 28.8736 22.8541 28.8714C23.0048 28.8693 23.1522 28.8266 23.2808 28.7478L25.1818 27.5577Z" fill="#ABE4A3"/>
<path d="M39.875 15.8125H42.625V40.5625H39.875V15.8125ZM20.625 32.3125H23.375V40.5625H20.625V32.3125Z" fill="#FFC239"/>
<path d="M13.75 13.0625C13.5149 13.0639 13.2842 13.1262 13.0804 13.2433C13.1241 13.5728 13.2856 13.8752 13.5351 14.0948C13.7846 14.3143 14.1052 14.4361 14.4375 14.4375H21.3125C21.5476 14.4361 21.7783 14.3738 21.9821 14.2567C21.9384 13.9272 21.7769 13.6248 21.5274 13.4052C21.2779 13.1857 20.9573 13.0639 20.625 13.0625H13.75Z" fill="#FFD55D"/>
<path d="M22.5362 9.62503C23.0072 8.4824 22.3651 6.87503 21.3125 6.87503H14.1879C14.0226 6.87166 13.859 6.90835 13.711 6.98195C13.563 7.05556 13.435 7.16389 13.3379 7.2977C13.2408 7.43152 13.1776 7.58684 13.1536 7.7504C13.1296 7.91396 13.1455 8.0809 13.2 8.23697L13.2055 8.25003L14.2237 10.0815C14.4946 10.5687 14.891 10.9746 15.3716 11.257C15.8523 11.5393 16.3997 11.688 16.9572 11.6875H21.3895L22.5362 9.62503Z" fill="#44BC59"/>
<path d="M22 32.3125V38.5C22 38.8647 22.1449 39.2144 22.4027 39.4723C22.6606 39.7301 23.0103 39.875 23.375 39.875V32.3125H22ZM26.8125 29.5625V38.5C26.8125 38.8647 26.9574 39.2144 27.2152 39.4723C27.4731 39.7301 27.8228 39.875 28.1875 39.875V29.5625H26.8125ZM31.625 24.75V38.5C31.625 38.8647 31.7699 39.2144 32.0277 39.4723C32.2856 39.7301 32.6353 39.875 33 39.875V24.75H31.625ZM36.4375 19.9375V38.5C36.4375 38.8647 36.5824 39.2144 36.8402 39.4723C37.0981 39.7301 37.4478 39.875 37.8125 39.875V19.9375H36.4375ZM41.25 15.8125V38.5C41.25 38.8647 41.3949 39.2144 41.6527 39.4723C41.9106 39.7301 42.2603 39.875 42.625 39.875V15.8125H41.25Z" fill="#FFD55D"/>
<path d="M40.9097 9.80996C40.9433 9.92782 40.9448 10.0525 40.9141 10.1712C40.8833 10.2898 40.8214 10.3981 40.7347 10.4847C40.648 10.5714 40.5398 10.6333 40.4211 10.6641C40.3025 10.6948 40.1778 10.6933 40.0599 10.6597L36.4375 9.62502C34.705 15.3842 31.3266 20.9839 26.2989 24.1258L23.2787 26.0136C23.1502 26.0924 23.0028 26.1351 22.852 26.1373C22.7012 26.1394 22.5527 26.101 22.4219 26.026C22.2911 25.9509 22.1829 25.8421 22.1087 25.7109C22.0345 25.5796 21.9969 25.4308 22 25.2801V20.5563C21.9989 20.3774 22.0536 20.2027 22.1567 20.0565C22.2597 19.9103 22.4059 19.7999 22.5747 19.7409L25.5805 18.7165C29.6024 17.3463 33.5438 13.189 34.375 8.93752L31.3094 7.40508C31.2017 7.35122 31.1099 7.26999 31.0434 7.16952C30.977 7.06905 30.938 6.95287 30.9306 6.83262C30.9231 6.71237 30.9474 6.59228 31.001 6.48437C31.0546 6.37646 31.1356 6.28452 31.2359 6.21777L37.7156 1.89752C37.8056 1.83751 37.9085 1.7996 38.016 1.78688C38.1234 1.77415 38.2324 1.78697 38.3339 1.82428C38.4355 1.8616 38.5268 1.92236 38.6005 2.00163C38.6741 2.0809 38.728 2.17643 38.7578 2.28046L40.9097 9.80996Z" fill="#F3A606"/>
<path d="M23.2788 24.2316L26.2989 22.3438C30.9691 19.4253 34.2162 14.3853 36.0436 9.06677C36.1591 8.73708 36.3967 8.46422 36.7073 8.30436C37.018 8.1445 37.3781 8.1098 37.7135 8.20739L40.0599 8.87771C40.1538 8.90485 40.2525 8.91129 40.3491 8.89657C40.4457 8.88185 40.538 8.84633 40.6196 8.79246L38.7578 2.28046C38.7281 2.17643 38.6741 2.0809 38.6005 2.00163C38.5268 1.92236 38.4355 1.8616 38.334 1.82428C38.2324 1.78697 38.1234 1.77415 38.016 1.78688C37.9085 1.7996 37.8056 1.83751 37.7156 1.89752L31.2359 6.21777C31.1356 6.28452 31.0546 6.37646 31.001 6.48437C30.9474 6.59228 30.9232 6.71237 30.9306 6.83262C30.9381 6.95287 30.977 7.06905 31.0435 7.16952C31.11 7.26999 31.2017 7.35122 31.3094 7.40508L34.375 8.93752C33.5438 13.189 29.6024 17.3463 25.5805 18.7172L22.5748 19.7416C22.406 19.8006 22.2599 19.9108 22.1569 20.0569C22.0539 20.2029 21.999 20.3775 22 20.5563V23.4988C21.9971 23.6495 22.0347 23.7982 22.109 23.9293C22.1833 24.0604 22.2915 24.1692 22.4222 24.2441C22.553 24.3191 22.7015 24.3574 22.8522 24.3552C23.0029 24.3531 23.1502 24.3104 23.2788 24.2316Z" fill="#FFC239"/>
</svg>
