<svg width="64" height="64" viewBox="0 0 64 64" fill="none" xmlns="http://www.w3.org/2000/svg">
<mask id="mask0_1535_75336" style="mask-type:alpha" maskUnits="userSpaceOnUse" x="0" y="0" width="64" height="64">
<rect x="0.5" y="-0.5" width="63" height="63" transform="matrix(1 0 0 -1 0 63)" fill="white" stroke="#EEEEEE"/>
</mask>
<g mask="url(#mask0_1535_75336)">
</g>
<path d="M48 23L31.5 13L18 16L8.5 19L12.5 43.5L10.5 57L14 59.5L27.5 61.5H54.5L48 23Z" fill="#F6D2A6"/>
<path d="M4.5 43C3.60069 43.9518 3.06903 45.1923 3 46.5C3 48.5 3.7 51 6.5 51C9.3 51 21.5 50.5 21.5 46.5C21.5 42.5 6.74 41.5 4.5 43Z" fill="#F6D2A6"/>
<path d="M7 51.5C6.10069 52.4518 5.56903 53.6923 5.5 55C5.5 57 6.2 59.5 9 59.5C11.8 59.5 24 59 24 55C24 51 9.24 50 7 51.5ZM8.5 26.5C8.5 26.5 3.5 32.5 3.5 35C3.5 37.5 9.5 42 12.5 42.5C15.5 43 23 42.5 23 40C23 37.5 19 34.5 14 34L12.5 29" fill="#EEBF90"/>
<path d="M34 28.5L23.5 32C20.86 32.9 19.06 35.87 20 38.5L27 58.5C27.2978 59.2718 27.8729 59.9046 28.6128 60.2745C29.3526 60.6445 30.204 60.7249 31 60.5L46.06 55.5C46.4503 55.3651 46.8102 55.1546 47.119 54.8805C47.4278 54.6063 47.6796 54.274 47.8598 53.9024C48.04 53.5309 48.1451 53.1274 48.1692 52.7152C48.1932 52.3029 48.1358 51.89 48 51.5L40.5 31.5C40.013 30.2579 39.0647 29.2521 37.8533 28.693C36.6419 28.1339 35.2612 28.0647 34 28.5Z" fill="#9E1DB0"/>
<path d="M26.5 8L16.5 11L23.5 32L34 28.5L26.5 8Z" fill="#252A2A"/>
<path d="M18 16C16.5 16 8.50001 17.5 7.50001 20C6.50001 22.5 9.69001 32.36 13 33.6C17 35.1 27.9 37.6 28.5 34.6C29.5 29.6 24 26.6 18 26.6L16 21.1" fill="#F6D2A6"/>
<path d="M29.5 35.5C29.33 37.07 19.5 34.5 18.5 34C17.5 33.5 18.5 30 20 29.5C21.5 29 30 31 29.5 35.5ZM24 43C23.83 44.57 14 42 13 41.5C12 41 13 37.5 14.5 37C16 36.5 24.48 38.5 24 43ZM23 46.5C23 48.5 14 50 13.5 49C13 48 12.5 44.5 14.5 44.5C16.5 44.5 23 44.5 23 46.5ZM25.5 55C25.5 57 17.5 57.5 16.5 57C14.5 56 15 53 17 53C19 53 25.5 53 25.5 55Z" fill="#FF4BE5"/>
<path d="M52 53C47.0637 50.3824 43.1793 46.1448 41 41C37.5 32.5 41 26 41 26L34 18.5C31.2137 17.2235 28.5378 15.7183 26 14C20.92 10.61 24 3.5 24 3.5L52 19.5L61.5 34.5V61.5H54" fill="#FAE0BB"/>
<path d="M23 2.5C23 2.5 21.42 5.82 25 8.5C26.2021 9.40189 27.5572 10.0794 29 10.5C29.7104 10.4887 30.3955 10.2344 30.9413 9.77956C31.4871 9.32472 31.8607 8.6967 32 8L23 2.5Z" fill="#FF4BE5"/>
<path d="M27 46C26.8984 46.0007 26.7991 45.9705 26.7151 45.9133C26.6311 45.8561 26.5666 45.7748 26.53 45.68L25.03 41.68C24.9898 41.5782 24.984 41.4661 25.0137 41.3607C25.0434 41.2554 25.1068 41.1627 25.1942 41.0968C25.2816 41.031 25.3882 40.9956 25.4976 40.9962C25.6071 40.9968 25.7133 41.0332 25.8 41.1L28.43 43.1L27.53 40.7C27.4836 40.5754 27.4886 40.4374 27.5439 40.3164C27.5992 40.1954 27.7004 40.1014 27.825 40.055C27.9497 40.0086 28.0876 40.0136 28.2086 40.0689C28.3296 40.1242 28.4236 40.2253 28.47 40.35L29.97 44.35C30.0102 44.4518 30.016 44.5639 29.9863 44.6693C29.9567 44.7746 29.8933 44.8673 29.8058 44.9332C29.7184 44.999 29.6118 45.0344 29.5024 45.0338C29.393 45.0332 29.2867 44.9968 29.2 44.93L26.57 42.93L27.47 45.33C27.4973 45.4055 27.506 45.4864 27.4954 45.566C27.4848 45.6456 27.4552 45.7214 27.4091 45.7871C27.363 45.8529 27.3018 45.9065 27.2306 45.9436C27.1594 45.9806 27.0803 46 27 46ZM31 44.5C30.8772 44.5009 30.7583 44.4565 30.6661 44.3754C30.5739 44.2942 30.5147 44.182 30.5 44.06L30 39.56C29.9873 39.453 30.0094 39.3448 30.0631 39.2514C30.1169 39.158 30.1994 39.0845 30.2983 39.0418C30.3972 38.9991 30.5073 38.9894 30.6121 39.0143C30.7169 39.0393 30.8109 39.0974 30.88 39.18L33.88 42.68C33.9227 42.7299 33.9551 42.7877 33.9755 42.8502C33.9958 42.9126 34.0036 42.9784 33.9985 43.0439C33.9934 43.1094 33.9755 43.1732 33.9457 43.2317C33.9159 43.2902 33.8749 43.3423 33.825 43.385C33.7751 43.4277 33.7173 43.4601 33.6549 43.4804C33.5924 43.5008 33.5266 43.5086 33.4611 43.5035C33.3957 43.4984 33.3318 43.4805 33.2733 43.4507C33.2148 43.4209 33.1627 43.3799 33.12 43.33L31.18 41.06L31.5 43.95C31.5141 44.0812 31.4757 44.2126 31.3933 44.3156C31.3109 44.4186 31.1911 44.4849 31.06 44.5H31ZM35 43C34.8984 43.0007 34.7991 42.9705 34.7151 42.9133C34.6311 42.8561 34.5666 42.7748 34.53 42.68L33.03 38.68C33.007 38.6183 32.9964 38.5526 32.9988 38.4868C33.0012 38.421 33.0165 38.3563 33.0439 38.2964C33.0713 38.2365 33.1102 38.1826 33.1585 38.1377C33.2067 38.0929 33.2633 38.058 33.325 38.035C33.3867 38.012 33.4524 38.0014 33.5182 38.0038C33.584 38.0062 33.6487 38.0215 33.7086 38.0489C33.7685 38.0763 33.8224 38.1152 33.8673 38.1635C33.9121 38.2117 33.947 38.2683 33.97 38.33L35.47 42.33C35.4973 42.4055 35.506 42.4864 35.4954 42.566C35.4848 42.6456 35.4552 42.7214 35.4091 42.7871C35.363 42.8529 35.3018 42.9065 35.2306 42.9436C35.1594 42.9806 35.0803 43 35 43Z" fill="#FD83FF"/>
<path d="M31 43C30.8674 43.0212 30.7318 42.9889 30.623 42.9101C30.5142 42.8314 30.4412 42.7126 30.42 42.58C30.3988 42.4474 30.4311 42.3118 30.5099 42.203C30.5886 42.0942 30.7074 42.0212 30.84 42L32.34 41.5C32.4024 41.479 32.4683 41.4705 32.534 41.4749C32.5996 41.4794 32.6638 41.4967 32.7227 41.526C32.7817 41.5552 32.8343 41.5958 32.8776 41.6454C32.9209 41.695 32.954 41.7526 32.975 41.815C32.996 41.8774 33.0045 41.9433 33.0001 42.009C32.9956 42.0746 32.9783 42.1388 32.949 42.1977C32.9198 42.2567 32.8792 42.3093 32.8296 42.3526C32.78 42.3959 32.7224 42.429 32.66 42.45L31.16 42.95L31 43ZM36.5 42.5C36.3984 42.5007 36.299 42.4705 36.2151 42.4133C36.1311 42.3561 36.0666 42.2748 36.03 42.18L34.53 38.18C34.4836 38.0554 34.4886 37.9174 34.5439 37.7964C34.5992 37.6754 34.7003 37.5814 34.825 37.535C34.9496 37.4886 35.0876 37.4936 35.2086 37.5489C35.3296 37.6042 35.4236 37.7054 35.47 37.83L36.79 41.35L38.79 40.54C38.9133 40.4909 39.0511 40.4929 39.173 40.5454C39.2949 40.5979 39.3909 40.6967 39.44 40.82C39.4891 40.9433 39.4871 41.0811 39.4346 41.203C39.3821 41.3249 39.2833 41.4209 39.16 41.47L36.66 42.47C36.6087 42.4887 36.5546 42.4988 36.5 42.5Z" fill="#FD83FF"/>
<path d="M27 48L39 43.5L40 46L28 50.5L27 48Z" fill="#FF4BE5"/>
</svg>
