<svg width="64" height="64" viewBox="0 0 64 64" fill="none" xmlns="http://www.w3.org/2000/svg">
<mask id="mask0_1535_75491" style="mask-type:alpha" maskUnits="userSpaceOnUse" x="0" y="0" width="64" height="64">
<rect x="0.5" y="-0.5" width="63" height="63" transform="matrix(1 0 0 -1 0 63)" fill="white" stroke="#EEEEEE"/>
</mask>
<g mask="url(#mask0_1535_75491)">
</g>
<path d="M6 58V25C6 24.2044 6.31607 23.4413 6.87868 22.8787C7.44129 22.3161 8.20435 22 9 22H55C55.7957 22 56.5587 22.3161 57.1213 22.8787C57.6839 23.4413 58 24.2044 58 25V58H6Z" fill="#383838"/>
<path d="M58 25C57.9957 24.708 57.9485 24.4183 57.86 24.14C57.5817 24.0515 57.292 24.0043 57 24H11C10.2044 24 9.44129 24.3161 8.87868 24.8787C8.31607 25.4413 8 26.2044 8 27V40C8 41.7072 8.33625 43.3977 8.98957 44.9749C9.64288 46.5521 10.6004 47.9852 11.8076 49.1924C14.2456 51.6304 17.5522 53 21 53H58V25Z" fill="#4C4C4C"/>
<path d="M10 58V26H54V58" fill="#66C3E9"/>
<path d="M54 26H10V46.906C11.1669 48.7706 12.7886 50.3081 14.7127 51.3741C16.6369 52.44 18.8003 52.9995 21 53H54V26Z" fill="#8ADEF9"/>
<path d="M14 40H50V52H14V40Z" fill="#0059BE"/>
<path d="M28 50H50V40H16.18C16.6512 42.7946 18.0967 45.3322 20.2603 47.1626C22.424 48.9931 25.1659 49.9983 28 50Z" fill="#006BDB"/>
<path d="M41 40H50V52H41V40Z" fill="#F2B129"/>
<path d="M41 40H50V50H41V40Z" fill="#EED05F"/>
<path d="M17 43H25V45H17V43ZM17 47H30V49H17V47Z" fill="#D7E0EF"/>
<path d="M46 43H50V45H46V43ZM44 47H50V49H44V47Z" fill="white"/>
<path d="M32 36C41.3888 36 49 28.3888 49 19C49 9.61116 41.3888 2 32 2C22.6112 2 15 9.61116 15 19C15 28.3888 22.6112 36 32 36Z" fill="#F2B129"/>
<path d="M32 2C27.9801 1.99639 24.0903 3.42394 21.027 6.027C18.2702 9.27999 16.8374 13.4506 17.013 17.711C17.1886 21.9714 18.9598 26.01 21.9749 29.0251C24.99 32.0403 29.0286 33.8114 33.289 33.987C37.5494 34.1626 41.72 32.7298 44.973 29.973C47.0687 27.4995 48.413 24.4781 48.8472 21.2654C49.2814 18.0527 48.7873 14.7829 47.4234 11.8419C46.0594 8.90086 43.8825 6.41147 41.1496 4.66756C38.4167 2.92366 35.2419 1.99805 32 2Z" fill="#EED05F"/>
<path d="M34.333 19.667L39 29L41 26L38.212 15.779L35.221 12.788L25 10L22 12L31.333 16.667L34.333 19.667Z" fill="#0059BE"/>
<path d="M25 43H17.1C17.4239 43.703 17.8154 44.3728 18.269 45H25V43ZM30 47H20.082C21.0199 47.8272 22.0818 48.5021 23.229 49H30V47Z" fill="white"/>
<path d="M42 10.535C41.9999 10.8382 41.9102 11.1347 41.742 11.387C40.5836 13.125 39.2561 14.7443 37.779 16.221L30 24L31 29L29 31L26 25L20 22L22 20L27 21L34.779 13.221C36.2557 11.7439 37.875 10.4164 39.613 9.258C39.8653 9.08984 40.1618 9.00007 40.465 9C40.8721 9 41.2625 9.16172 41.5504 9.44959C41.8383 9.73746 42 10.1279 42 10.535Z" fill="#006BDB"/>
<path d="M62 56C62 57.5913 61.3679 59.1174 60.2426 60.2426C59.1174 61.3679 57.5913 62 56 62H8C6.40943 61.9976 4.88469 61.3647 3.75999 60.24C2.63529 59.1153 2.00238 57.5906 2 56H25L28 58H36L39 56H62Z" fill="#383838"/>
<path d="M39 56L36 58H28L25 56H3.34799C3.7613 57.169 4.52665 58.1813 5.53876 58.8976C6.55088 59.6139 7.76005 59.999 8.99999 60H57C57.9244 59.9995 58.8361 59.7849 59.6637 59.373C60.4913 58.9611 61.2122 58.3631 61.77 57.626C61.9211 57.0972 61.9985 56.55 62 56H39Z" fill="#4C4C4C"/>
</svg>
