<svg width="64" height="64" viewBox="0 0 64 64" fill="none" xmlns="http://www.w3.org/2000/svg">
<mask id="mask0_1535_75588" style="mask-type:alpha" maskUnits="userSpaceOnUse" x="0" y="0" width="64" height="64">
<rect x="0.5" y="-0.5" width="63" height="63" transform="matrix(1 0 0 -1 0 63)" fill="white" stroke="#EEEEEE"/>
</mask>
<g mask="url(#mask0_1535_75588)">
</g>
<path d="M13.4542 24.8462V20.352H6.14397C5.04886 20.352 4.16708 21.248 4.16708 22.3289V24.832C4.16708 27.2924 6.17242 29.312 8.63286 29.3262H8.95997C11.4346 29.3404 13.4542 27.3209 13.4542 24.8462Z" fill="#F6A96C"/>
<path d="M13.4542 20.352V24.8462C13.4542 27.3209 15.4737 29.3404 17.9484 29.3404H18.2613C20.736 29.3404 22.7555 27.3209 22.7555 24.8462V20.352H17.1804H13.4542Z" fill="#A44F3E"/>
<path d="M22.7413 20.352V24.8462C22.7413 27.3209 24.7609 29.3404 27.2356 29.3404H27.5484C30.0231 29.3404 32.0427 27.3209 32.0427 24.8462V20.352H22.7413Z" fill="#F6A96C"/>
<path d="M32.0427 20.352V24.8462C32.0427 27.3209 34.0622 29.3404 36.5369 29.3404H36.8498C39.3244 29.3404 41.344 27.3209 41.344 24.8462V20.352H32.0427Z" fill="#A44F3E"/>
<path d="M41.3298 20.352V24.8462C41.3298 27.3209 43.3493 29.3404 45.824 29.3404H46.1369C48.6115 29.3404 50.6311 27.3209 50.6311 24.8462V20.352H46.9191H41.3298Z" fill="#F6A96C"/>
<path d="M50.6169 20.352V24.8462C50.6169 27.3209 52.6364 29.3404 55.1111 29.3404H55.4524C57.9129 29.3262 59.9182 27.3067 59.9182 24.8462V22.3431C59.9182 21.248 59.0222 20.3662 57.9413 20.3662H50.6169V20.352Z" fill="#A44F3E"/>
<path fill-rule="evenodd" clip-rule="evenodd" d="M32.4124 51.1858V34.8871C32.4124 34.3467 31.9715 33.8916 31.4169 33.8916H28.2595V52.1671H31.4169C31.9573 52.1671 32.4124 51.7262 32.4124 51.1858ZM28.2595 52.1671V33.8916H14.8764C14.336 33.8916 13.8809 34.3324 13.8809 34.8871V51.1858C13.8809 51.7262 14.3217 52.1813 14.8764 52.1813H28.2595V52.1671ZM37.248 40.7751V56.0071H49.7635V40.7751C49.7635 37.3333 46.9475 34.5173 43.5057 34.5173C40.0497 34.5173 37.248 37.3333 37.248 40.7751Z" fill="#C8EFFE"/>
<path fill-rule="evenodd" clip-rule="evenodd" d="M37.248 40.7751C37.248 37.3333 40.064 34.5173 43.5058 34.5173C46.9475 34.5173 49.7635 37.3333 49.7635 40.7751V56.0071H55.4667V29.3404H55.1253C52.6507 29.3404 50.6311 27.3209 50.6311 24.8462C50.6311 27.3209 48.6115 29.3404 46.1369 29.3404H45.824C43.3493 29.3404 41.3298 27.3209 41.3298 24.8462C41.3298 27.3209 39.3102 29.3404 36.8355 29.3404H36.5227C34.048 29.3404 32.0284 27.3209 32.0284 24.8462C32.0284 27.3209 30.0089 29.3404 27.5342 29.3404H27.2213C24.7467 29.3404 22.7271 27.3209 22.7271 24.8462C22.7271 27.3209 20.7075 29.3404 18.2329 29.3404H17.92C15.4453 29.3404 13.4258 27.3209 13.4258 24.8462C13.4258 27.3209 11.4062 29.3404 8.93154 29.3404H8.59021V56.0071H37.2053L37.248 40.7751ZM32.4124 34.8871V51.1858C32.4124 51.7262 31.9715 52.1813 31.4169 52.1813H14.8764C14.336 52.1813 13.8809 51.7404 13.8809 51.1858V34.8871C13.8809 34.3467 14.3218 33.8916 14.8764 33.8916H31.4169C31.9573 33.8916 32.4124 34.3467 32.4124 34.8871Z" fill="#FFE5C2"/>
<path d="M49.7493 56.0071H6.82666C4.94933 56.0071 3.41333 57.5431 3.41333 59.4204C3.41333 61.2978 4.94933 62.8338 6.82666 62.8338H57.2587C59.136 62.8338 60.672 61.2978 60.672 59.4204C60.672 57.5431 59.136 56.0071 57.2587 56.0071H55.4667H49.7493Z" fill="#F6A96C"/>
<path d="M17.1662 13.1556H54.7129V1.37955H9.24442V13.1556H17.1662Z" fill="#A44F3E"/>
<path fill-rule="evenodd" clip-rule="evenodd" d="M46.9049 20.352V13.1556H17.1662V20.352H41.3298H46.9049Z" fill="#FFE5C2"/>
<path d="M57.2444 63.5022H6.82665C4.56532 63.5022 2.73065 61.6676 2.73065 59.4062C2.73065 57.1449 4.56532 55.3102 6.82665 55.3102H57.2587C59.52 55.3102 61.3547 57.1449 61.3547 59.4062C61.3404 61.6676 59.5058 63.5022 57.2444 63.5022ZM6.82665 56.6898C5.3191 56.6898 4.09599 57.9129 4.09599 59.4204C4.09599 60.928 5.3191 62.1511 6.82665 62.1511H57.2587C58.7662 62.1511 59.9893 60.928 59.9893 59.4204C59.9893 57.9129 58.7662 56.6898 57.2587 56.6898H6.82665Z" fill="black"/>
<path d="M55.4524 56.6898C55.0826 56.6898 54.7698 56.3911 54.7698 56.0071V29.5396C54.7555 29.4827 54.7413 29.4116 54.7413 29.3404C54.7413 28.9707 55.04 28.6578 55.4098 28.6436H55.4382C55.6231 28.6436 55.7938 28.7147 55.9218 28.8427C56.0498 28.9707 56.1209 29.1413 56.1209 29.3262V55.9929C56.1351 56.3911 55.8364 56.6898 55.4524 56.6898ZM8.61864 56.6898C8.23464 56.6898 7.93597 56.3911 7.93597 56.0071V29.3404C7.93597 29.1556 8.00709 28.9849 8.13509 28.8569C8.26309 28.7289 8.44797 28.6578 8.61864 28.6578H8.64709C9.03109 28.6578 9.32975 28.9707 9.31553 29.3547C9.31553 29.4258 9.30131 29.4827 9.28709 29.5538V56.0213C9.30131 56.3911 9.00264 56.6898 8.61864 56.6898ZM49.7493 56.6898C49.3795 56.6898 49.0666 56.3911 49.0666 56.0071V40.7751C49.0666 37.7031 46.5635 35.2 43.4915 35.2C40.4195 35.2 37.9164 37.7031 37.9164 40.7751V56.0213C37.9164 56.3911 37.6178 56.704 37.2338 56.704C36.8498 56.704 36.5511 56.4053 36.5511 56.0213V40.7751C36.5511 36.9493 39.6658 33.8347 43.4915 33.8347C47.3173 33.8347 50.432 36.9493 50.432 40.7751V56.0213C50.432 56.3911 50.1333 56.6898 49.7493 56.6898ZM31.4169 52.8498H14.8764C13.952 52.8498 13.1982 52.096 13.1982 51.1716V34.8871C13.1982 33.9627 13.952 33.2089 14.8764 33.2089H31.4169C32.3413 33.2089 33.0951 33.9627 33.0951 34.8871V51.1858C33.0951 52.096 32.3413 52.8498 31.4169 52.8498ZM14.8764 34.5742C14.7058 34.5742 14.5635 34.7164 14.5635 34.8871V51.1858C14.5635 51.3564 14.7058 51.4987 14.8764 51.4987H31.4169C31.5875 51.4987 31.7298 51.3564 31.7298 51.1858V34.8871C31.7298 34.7164 31.5875 34.5742 31.4169 34.5742H14.8764Z" fill="black"/>
<path d="M28.2596 52.8498C27.8898 52.8498 27.5769 52.5511 27.5769 52.1671V33.8916C27.5769 33.5218 27.8755 33.2089 28.2596 33.2089C28.6435 33.2089 28.9422 33.5218 28.9422 33.8916V52.1671C28.9422 52.5511 28.6293 52.8498 28.2596 52.8498ZM17.9484 46.0089C17.7778 46.0089 17.6071 45.9378 17.4649 45.8098C17.1947 45.5396 17.1947 45.1129 17.4649 44.8427L24.2204 38.0587C24.4907 37.7884 24.9173 37.7884 25.1875 38.0587C25.4578 38.3289 25.4578 38.7556 25.1875 39.0258L18.432 45.8098C18.2898 45.9378 18.1191 46.0089 17.9484 46.0089ZM18.1049 41.0453C17.92 41.0453 17.7493 40.9742 17.6071 40.832C17.3511 40.5618 17.3511 40.1209 17.6355 39.8649L19.6551 37.9449C19.9253 37.6889 20.3662 37.6889 20.6222 37.9733C20.8782 38.2436 20.8782 38.6844 20.5938 38.9404L18.5742 40.8604C18.432 40.9884 18.2613 41.0453 18.1049 41.0453ZM8.95999 30.0231H8.6471C5.78844 30.0231 3.47021 27.7049 3.47021 24.8462V22.3431C3.47021 20.8782 4.66488 19.6836 6.12977 19.6836H13.44C13.824 19.6836 14.1227 19.9822 14.1227 20.3662V24.8604C14.1369 27.7049 11.8187 30.0231 8.95999 30.0231ZM6.14399 21.0347C5.43288 21.0347 4.84977 21.6178 4.84977 22.3289V24.832C4.84977 26.9369 6.55644 28.6436 8.66133 28.6436H8.95999C11.0649 28.6436 12.7715 26.9369 12.7715 24.832V21.0204H6.14399V21.0347Z" fill="black"/>
<path d="M18.2471 30.0231H17.9342C15.0755 30.0231 12.7573 27.7049 12.7573 24.8462V20.352C12.7573 19.9822 13.0702 19.6693 13.44 19.6693H22.7271C23.0969 19.6693 23.4098 19.968 23.4098 20.352V24.8462C23.424 27.7049 21.1058 30.0231 18.2471 30.0231ZM14.1369 21.0347V24.8462C14.1369 26.9511 15.8435 28.6578 17.9484 28.6578H18.2613C20.3662 28.6578 22.0729 26.9511 22.0729 24.8462V21.0347H14.1369Z" fill="black"/>
<path d="M27.5484 30.0231H27.2355C24.3769 30.0231 22.0587 27.7049 22.0587 24.8462V20.352C22.0587 19.9822 22.3573 19.6693 22.7413 19.6693H32.0284C32.3982 19.6693 32.7111 19.968 32.7111 20.352V24.8462C32.7253 27.7049 30.3929 30.0231 27.5484 30.0231ZM23.424 21.0347V24.8462C23.424 26.9511 25.1307 28.6578 27.2355 28.6578H27.5484C29.6533 28.6578 31.36 26.9511 31.36 24.8462V21.0347H23.424Z" fill="black"/>
<path d="M36.8355 30.0231H36.5227C33.664 30.0231 31.3458 27.7049 31.3458 24.8462V20.352C31.3458 19.9822 31.6444 19.6693 32.0284 19.6693H41.3155C41.6853 19.6693 41.9982 19.968 41.9982 20.352V24.8462C42.0124 27.7049 39.6942 30.0231 36.8355 30.0231ZM32.7253 21.0347V24.8462C32.7253 26.9511 34.432 28.6578 36.5369 28.6578H36.8498C38.9547 28.6578 40.6613 26.9511 40.6613 24.8462V21.0347H32.7253Z" fill="black"/>
<path d="M46.1369 30.0231H45.824C42.9653 30.0231 40.6471 27.7049 40.6471 24.8462V20.352C40.6471 19.9822 40.9458 19.6693 41.3298 19.6693H50.6169C50.9867 19.6693 51.2995 19.968 51.2995 20.352V24.8462C51.2995 27.7049 48.9813 30.0231 46.1369 30.0231ZM42.0124 21.0347V24.8462C42.0124 26.9511 43.7191 28.6578 45.824 28.6578H46.1369C48.2418 28.6578 49.9484 26.9511 49.9484 24.8462V21.0347H42.0124Z" fill="black"/>
<path d="M55.424 30.0231H55.1111C52.2524 30.0231 49.9342 27.7049 49.9342 24.8462V20.352C49.9342 19.9822 50.2329 19.6693 50.6169 19.6693H57.9271C59.392 19.6693 60.5867 20.864 60.5867 22.3289V24.832C60.6009 27.7049 58.2827 30.0231 55.424 30.0231ZM51.2996 21.0347V24.8462C51.2996 26.9511 53.0062 28.6578 55.1111 28.6578H55.424C57.5289 28.6578 59.2355 26.9511 59.2355 24.8462V22.3431C59.2355 21.632 58.6524 21.0489 57.9413 21.0489H51.2996V21.0347ZM46.6204 48.2702C46.2507 48.2702 45.9378 47.9716 45.9378 47.5876V42.9369C45.9378 42.5671 46.2364 42.2542 46.6204 42.2542C47.0044 42.2542 47.3031 42.5529 47.3031 42.9369V47.5876C47.3031 47.9573 47.0044 48.2702 46.6204 48.2702ZM23.6231 10.8373C21.5467 10.8373 19.8542 9.14489 19.8542 7.06844C19.8542 4.992 21.5467 3.29956 23.6231 3.29956C24.5476 3.29956 25.4435 3.64089 26.1262 4.25244C26.4107 4.50844 26.4249 4.93511 26.1831 5.21956C25.9271 5.504 25.5004 5.53244 25.216 5.27644C24.7751 4.87822 24.2062 4.66489 23.6231 4.66489C22.3004 4.66489 21.2195 5.74578 21.2195 7.06844C21.2195 8.39111 22.3004 9.472 23.6231 9.472C24.3058 9.472 24.9458 9.18756 25.4009 8.67555C25.6569 8.39111 26.0835 8.37689 26.368 8.63289C26.6524 8.88889 26.6667 9.31556 26.4107 9.6C25.6995 10.3822 24.6756 10.8373 23.6231 10.8373ZM32.9956 11.0507C32.7253 11.0507 32.4551 10.88 32.3556 10.6098L30.6347 5.98755L28.9138 10.6098C28.7858 10.9653 28.3876 11.1502 28.032 11.008C27.6764 10.8658 27.4916 10.4818 27.6338 10.1262L30.0089 3.78311C30.1084 3.51289 30.3644 3.34222 30.6489 3.34222C30.9333 3.34222 31.1893 3.52711 31.2889 3.78311L33.6356 10.1404C33.7636 10.496 33.5787 10.8942 33.2373 11.0222C33.1662 11.0364 33.0809 11.0507 32.9956 11.0507Z" fill="black"/>
<path d="M32.128 8.704H29.1698C28.8 8.704 28.4871 8.39111 28.4871 8.02133C28.4871 7.65155 28.7858 7.33867 29.1698 7.33867H32.128C32.4978 7.33867 32.8106 7.65155 32.8106 8.02133C32.8106 8.39111 32.4978 8.704 32.128 8.704ZM35.3849 11.2356C35.0151 11.2356 34.7022 10.9227 34.7022 10.5529V4.01067C34.7022 3.62667 35.0009 3.328 35.3849 3.328C35.7689 3.328 36.0675 3.64089 36.0675 4.01067V10.5387C36.0675 10.9369 35.7689 11.2356 35.3849 11.2356Z" fill="black"/>
<path d="M38.2009 4.69333H35.3849C35.0151 4.69333 34.7022 4.38044 34.7022 4.01067C34.7022 3.64089 35.0009 3.328 35.3849 3.328H38.2009C38.5707 3.328 38.8835 3.64089 38.8835 4.01067C38.8835 4.38044 38.5849 4.69333 38.2009 4.69333ZM38.2009 7.63733H35.3849C35.0151 7.63733 34.7022 7.32444 34.7022 6.95467C34.7022 6.58489 35.0009 6.272 35.3849 6.272H38.2009C38.5707 6.272 38.8835 6.58489 38.8835 6.95467C38.8835 7.32444 38.5849 7.63733 38.2009 7.63733ZM40.5902 11.2356C40.2204 11.2356 39.9075 10.9227 39.9075 10.5529V4.01067C39.9075 3.62667 40.2062 3.328 40.5902 3.328C40.9742 3.328 41.2729 3.64089 41.2729 4.01067V10.5387C41.2729 10.9369 40.9742 11.2356 40.5902 11.2356Z" fill="black"/>
<path d="M43.4204 4.69333H40.6044C40.2347 4.69333 39.9218 4.38044 39.9218 4.01067C39.9218 3.64089 40.2204 3.328 40.6044 3.328H43.4204C43.7902 3.328 44.1031 3.64089 44.1031 4.01067C44.1031 4.38044 43.7902 4.69333 43.4204 4.69333ZM43.4204 11.2356H40.6044C40.2347 11.2356 39.9218 10.9227 39.9218 10.5529C39.9218 10.1831 40.2204 9.87022 40.6044 9.87022H43.4204C43.7902 9.87022 44.1031 10.1831 44.1031 10.5529C44.1031 10.9227 43.7902 11.2356 43.4204 11.2356ZM43.4204 7.96444H40.6044C40.2347 7.96444 39.9218 7.65156 39.9218 7.28178C39.9218 6.912 40.2204 6.59911 40.6044 6.59911H43.4204C43.7902 6.59911 44.1031 6.912 44.1031 7.28178C44.1031 7.65156 43.7902 7.96444 43.4204 7.96444ZM17.1662 21.0347C16.7964 21.0347 16.4836 20.736 16.4836 20.352V13.1556C16.4836 12.7716 16.7822 12.4729 17.1662 12.4729C17.5502 12.4729 17.8489 12.7858 17.8489 13.1556V20.352C17.8489 20.736 17.5502 21.0347 17.1662 21.0347ZM46.9049 21.0347C46.5351 21.0347 46.2222 20.736 46.2222 20.352V13.1556C46.2222 12.7716 46.5209 12.4729 46.9049 12.4729C47.2889 12.4729 47.5876 12.7858 47.5876 13.1556V20.352C47.5876 20.736 47.2889 21.0347 46.9049 21.0347Z" fill="black"/>
<path d="M54.7129 13.8382H9.24443C8.86043 13.8382 8.56177 13.5253 8.56177 13.1556V1.37955C8.56177 1.00978 8.87466 0.696888 9.24443 0.696888H54.7129C55.0827 0.696888 55.3955 0.995555 55.3955 1.37955V13.1556C55.3955 13.5396 55.0827 13.8382 54.7129 13.8382ZM9.9271 12.4729H54.0302V2.06222H9.9271V12.4729Z" fill="black"/>
</svg>
