<svg width="64" height="64" viewBox="0 0 64 64" fill="none" xmlns="http://www.w3.org/2000/svg">
<mask id="mask0_1535_75523" style="mask-type:alpha" maskUnits="userSpaceOnUse" x="0" y="0" width="64" height="64">
<rect x="0.5" y="-0.5" width="63" height="63" transform="matrix(1 0 0 -1 0 63)" fill="white" stroke="#EEEEEE"/>
</mask>
<g mask="url(#mask0_1535_75523)">
<path d="M34.5088 63.7658C33.9218 63.7658 33.3347 63.6253 32.7946 63.3209C31.6675 62.6887 30.963 61.5179 30.963 60.23V44.8455C30.963 44.1899 31.5031 43.6513 32.1606 43.6513C32.8181 43.6513 33.3582 44.1899 33.3582 44.8455V60.23C33.3582 60.8388 33.7574 61.1198 33.9453 61.2135C34.1096 61.3071 34.5793 61.4945 35.0724 61.19C55.6897 48.1472 55.6662 37.3992 55.6662 37.2821C55.6662 29.7421 49.96 23.8646 42.6806 23.8646C38.9939 23.8646 35.5655 25.3164 33.0295 27.9625C32.7946 28.1966 32.4894 28.3371 32.1606 28.3371C31.8319 28.3371 31.5266 28.1966 31.2918 27.9625C28.7322 25.3164 25.3039 23.8646 21.6406 23.8646C14.3612 23.8646 8.65505 29.7421 8.65505 37.2353C8.65505 37.2587 8.65505 37.2587 8.65505 37.2821C8.65505 37.3289 8.63156 44.0026 17.6957 52.6197C18.1653 53.088 18.1888 53.8374 17.7426 54.3291C17.273 54.7974 16.5215 54.8208 16.0284 54.3759C6.28335 45.1031 6.23639 37.8207 6.23639 37.2353C6.23639 28.3839 12.9992 21.4762 21.6406 21.4762C25.5856 21.4762 29.2723 22.8811 32.1606 25.4803C35.0489 22.9046 38.7591 21.4762 42.6806 21.4762C51.322 21.4762 58.0849 28.4074 58.0849 37.2587C58.1083 37.727 58.1318 49.4585 36.3639 63.2272C35.8003 63.5785 35.1428 63.7658 34.5088 63.7658Z" fill="#DC405E"/>
<path d="M34.5086 63.9999C33.8746 63.9999 33.2641 63.836 32.7005 63.5315C31.5029 62.8759 30.7515 61.6114 30.7515 60.2299V44.8454C30.7515 44.0493 31.409 43.417 32.1839 43.417C32.9823 43.417 33.6163 44.0727 33.6163 44.8454V60.2299C33.6163 60.6982 33.8981 60.9089 34.086 61.0026C34.2503 61.0963 34.6026 61.2133 34.9783 60.9792C55.3842 48.0769 55.4781 37.3757 55.4781 37.282C55.4781 29.8825 49.8659 24.0987 42.7274 24.0987C39.1111 24.0987 35.7532 25.5271 33.2406 28.1263C32.9588 28.4073 32.5831 28.5712 32.2074 28.5712C31.8082 28.5712 31.4325 28.4073 31.1742 28.1263C28.6616 25.5271 25.3037 24.0987 21.6874 24.0987C14.5254 24.0987 8.93664 29.8825 8.93664 37.2352V37.2586C8.93664 37.3288 8.9836 43.9322 17.9068 52.4323C18.4704 52.9708 18.4938 53.8841 17.9538 54.4695C17.6955 54.7505 17.3197 54.9144 16.944 54.9144C16.5683 54.9144 16.1926 54.7739 15.9108 54.5163C6.14227 45.2903 5.97789 38.0313 6.00137 37.2352C6.00137 28.2668 12.8816 21.2419 21.6404 21.2419C25.5385 21.2419 29.2486 22.6235 32.1604 25.1524C35.0722 22.6235 38.8059 21.2419 42.6804 21.2419C51.4392 21.2419 58.3195 28.2668 58.3195 37.2586C58.343 37.7503 58.3664 49.5755 36.5046 63.4145C35.8941 63.8125 35.2131 63.9999 34.5086 63.9999ZM32.1604 43.8854C31.6203 43.8854 31.1977 44.3303 31.1977 44.8454V60.2299C31.1977 61.4241 31.8552 62.5481 32.9119 63.1101C33.9685 63.6955 35.2601 63.6486 36.2463 63.0164C57.8968 49.3179 57.8733 37.7269 57.8498 37.2586C57.8498 28.5243 51.1809 21.7102 42.6804 21.7102C38.8293 21.7102 35.1661 23.1152 32.3013 25.6441C32.2074 25.7144 32.0665 25.7144 31.9961 25.6441C29.1547 23.1152 25.4915 21.7102 21.6404 21.7102C13.1399 21.7102 6.47102 28.5243 6.47102 37.2352C6.47102 37.5396 6.44753 44.9157 16.1691 54.1885C16.357 54.3758 16.5918 54.4695 16.8501 54.4461C17.1084 54.4461 17.3432 54.329 17.5311 54.1417C17.9068 53.767 17.8833 53.1348 17.5076 52.7835C8.37306 44.0727 8.39655 37.3288 8.39655 37.2586V37.2352C8.39655 29.6015 14.1966 23.6303 21.617 23.6303C25.3506 23.6303 28.8495 25.1056 31.4325 27.7984C31.6203 27.9858 31.8786 28.1028 32.1369 28.1028C32.3952 28.1028 32.6536 27.9858 32.8414 27.7984C35.4479 25.1056 38.9233 23.6303 42.6569 23.6303C50.0773 23.6303 55.8773 29.6249 55.8773 37.282C55.8773 37.3757 55.9008 48.2642 35.1661 61.3773C34.5556 61.7519 34.0155 61.5412 33.8042 61.4241C33.5928 61.307 33.0997 60.9558 33.0997 60.2299V44.8454C33.1467 44.3068 32.7005 43.8854 32.1604 43.8854Z" fill="#3A3365"/>
<path d="M47.0248 7.91839C48.0111 10.26 48.1285 12.8826 47.377 15.2945L42.164 31.8029L41.4126 31.5687L40.7786 31.3814L40.6377 31.3346L45.8507 14.8262C46.5082 12.7655 46.3908 10.541 45.5689 8.55063L45.4985 8.38672C44.1365 5.22553 41.2247 3.11807 37.8668 2.83708C37.8903 2.62633 37.9138 2.34534 37.9138 1.99409C37.9138 1.66627 37.9138 1.43211 37.8903 1.22136C41.8822 1.52577 45.3811 4.00789 46.9544 7.75448L47.0248 7.91839Z" fill="white"/>
<path d="M42.7511 31.9901L40.5908 38.8042C39.5811 42.0356 36.8571 44.3304 33.5931 44.8456V47.3043H30.7048V44.8456C27.4408 44.307 24.7404 42.0122 23.7072 38.8042L21.5468 31.9901L22.1573 31.8028L22.9088 31.5686L23.214 31.4749L23.5193 31.3813L23.6602 31.3344L24.2707 31.1471L25.0222 33.5121L25.7501 35.8303L26.4311 37.9612C27.206 40.4433 29.5072 42.1059 32.1138 42.1059C34.7203 42.1059 36.998 40.4433 37.7964 37.9612L38.4774 35.8303L39.2053 33.5121L39.9568 31.1471L40.5673 31.3344L40.7082 31.3813L41.3422 31.5686L42.0936 31.8028L42.7511 31.9901Z" fill="#DC405E"/>
<path d="M39.2522 33.489L38.5242 35.8072C36.9979 36.861 34.9315 37.7039 32.1606 37.7039C29.3897 37.7039 27.3233 36.861 25.7969 35.8072L25.069 33.489C26.384 34.894 28.6382 36.416 32.1606 36.416C35.6829 36.416 37.9372 34.8706 39.2522 33.489Z" fill="#3A3365"/>
<path d="M37.8666 1.22128C37.8901 1.40861 37.8901 1.66618 37.8901 1.99401C37.8901 2.34525 37.8666 2.62625 37.8431 2.83699C37.8431 2.93066 37.8197 3.02432 37.8197 3.09457C37.7727 3.32873 37.5848 3.51606 37.3265 3.51606H37.0682C36.669 3.51606 36.6221 3.02432 36.6221 3.02432C36.3403 2.74333 35.9176 3.02432 35.9176 3.02432C35.9176 3.02432 35.3306 3.70339 34.6965 3.72681C34.0625 3.77364 33.6633 3.37557 33.6633 1.99401C33.6633 0.612455 34.0625 0.237796 34.6965 0.261212C35.3306 0.308045 35.9176 0.963698 35.9176 0.963698C35.9176 0.963698 36.3403 1.24469 36.6221 0.963698C36.6221 0.963698 36.669 0.471958 37.0682 0.471958H37.3265C37.5614 0.471958 37.7727 0.659287 37.8197 0.893449C37.8666 0.987114 37.8666 1.1042 37.8666 1.22128Z" fill="#3A3365"/>
<path d="M26.4542 1.22135C26.4542 1.10427 26.4777 0.987186 26.5012 0.893521C26.5481 0.659359 26.736 0.472029 26.9943 0.472029H27.2526C27.6283 0.495446 27.6988 0.96377 27.6988 0.96377C27.9805 1.24476 28.4032 0.96377 28.4032 0.96377C28.4032 0.96377 28.9903 0.2847 29.6243 0.261284C30.2583 0.214451 30.6575 0.612526 30.6575 1.99408C30.6575 3.37564 30.2583 3.77371 29.6243 3.72688C28.9903 3.68005 28.4032 3.02439 28.4032 3.02439C28.4032 3.02439 27.9805 2.7434 27.6988 3.02439C27.6988 3.02439 27.6518 3.51613 27.2526 3.51613H26.9943C26.7595 3.51613 26.5481 3.32881 26.5012 3.09464C26.4777 3.02439 26.4777 2.95415 26.4777 2.83707C26.4307 2.62632 26.4307 2.34532 26.4307 1.99408C26.4307 1.66626 26.4307 1.40868 26.4542 1.22135Z" fill="#3A3365"/>
<path d="M26.4544 1.22136C26.4309 1.40869 26.4309 1.66627 26.4309 1.99409C26.4309 2.34534 26.4544 2.62633 26.4779 2.83708C23.1199 3.14149 20.2082 5.24895 18.8697 8.38672L18.7992 8.55063C17.9539 10.541 17.86 12.7655 18.5175 14.8262L23.7305 31.3346L23.5896 31.3814C23.5661 31.358 23.5661 31.3346 23.5661 31.3112L22.9791 31.5687L22.2276 31.8029L16.9676 15.2945C16.1927 12.8826 16.3336 10.26 17.3199 7.91839L17.3903 7.75448C18.9636 4.00789 22.4624 1.52577 26.4544 1.22136Z" fill="white"/>
<path d="M23.7303 31.3113L23.5894 31.3581L23.7303 31.3113Z" fill="white"/>
<path d="M23.5896 31.3579L23.2843 31.4516L22.9791 31.5452L23.5661 31.2877C23.5426 31.3111 23.5661 31.3345 23.5896 31.3579Z" fill="white"/>
<path d="M23.2842 31.4514L22.9554 31.5451L23.2842 31.4514Z" fill="white"/>
<path d="M42.1406 32.0368C42.1172 32.0368 42.0937 32.0368 42.0702 32.0368L41.3188 31.8026H41.2953L40.5439 31.5685C40.4499 31.5451 40.3795 31.4514 40.3795 31.3343C40.3795 31.3109 40.3795 31.2875 40.3795 31.2641L45.5925 14.7556C46.2265 12.7653 46.1326 10.5876 45.3107 8.64401L45.2403 8.4801C43.9488 5.43599 41.1309 3.37537 37.8434 3.07096C37.773 3.07096 37.726 3.02412 37.679 2.97729C37.6321 2.93046 37.6321 2.86021 37.6321 2.81338C37.6556 2.60263 37.6556 2.32164 37.6556 1.99381C37.6556 1.6894 37.6556 1.45524 37.6321 1.24449C37.6321 1.17424 37.6556 1.104 37.7025 1.05716C37.7495 1.01033 37.8199 0.986915 37.8904 0.986915C41.9998 1.31474 45.569 3.86711 47.1658 7.66053L47.2363 7.82444C48.246 10.2129 48.3634 12.8823 47.5885 15.3645L42.3755 31.8729C42.3285 31.9665 42.2346 32.0368 42.1406 32.0368ZM41.4831 31.3343L41.9998 31.4982L47.1423 15.224C47.8938 12.8589 47.7763 10.3066 46.8136 8.01177L46.7431 7.84786C45.2403 4.2886 41.9763 1.87673 38.1487 1.47866C38.1487 1.61915 38.1487 1.80648 38.1487 1.99381C38.1487 2.22797 38.1487 2.43872 38.1252 2.62605C41.4831 3.00071 44.3714 5.155 45.6864 8.29277L45.7569 8.45668C46.6257 10.4939 46.7197 12.7887 46.0622 14.8961L40.8961 31.1704L41.4362 31.3343C41.4597 31.3343 41.4831 31.3343 41.4831 31.3343Z" fill="#3A3365"/>
<path d="M33.6164 47.5382C33.4755 47.5382 33.3816 47.4446 33.3816 47.3041V44.8454C33.3816 44.7283 33.4755 44.6346 33.5694 44.6112C36.7865 44.096 39.393 41.8247 40.3792 38.7103L42.4692 32.1304L41.342 31.7791C41.342 31.7791 41.3185 31.7791 41.3185 31.7557L40.1679 31.4045L38.078 37.9844C37.2561 40.5602 34.8844 42.293 32.184 42.293C29.4836 42.293 27.1119 40.5602 26.29 37.9844L24.1766 31.4045L21.8754 32.1304L23.9653 38.7103C24.9515 41.8247 27.558 44.0726 30.7751 44.6112C30.8925 44.6346 30.9629 44.7283 30.9629 44.8454V47.3041C30.9629 47.4446 30.869 47.5382 30.7281 47.5382C30.5872 47.5382 30.4933 47.4446 30.4933 47.3041V45.0327C27.2058 44.4239 24.5288 42.0823 23.5191 38.8508L21.3587 32.0367C21.3353 31.9665 21.3353 31.9196 21.3822 31.8494C21.4057 31.8025 21.4527 31.7557 21.5231 31.7323L24.2705 30.8659C24.3879 30.8191 24.5288 30.8893 24.5758 31.0298L26.7361 37.8439C27.4876 40.2324 29.6949 41.8247 32.184 41.8247C34.6966 41.8247 36.8804 40.2324 37.6318 37.8439L39.7922 31.0298C39.8392 30.9127 39.9566 30.8425 40.0975 30.8659L41.4829 31.2874C41.4829 31.2874 41.5064 31.2874 41.5299 31.3108L42.8683 31.7323C42.9388 31.7557 42.9858 31.8025 43.0092 31.8494C43.0327 31.8962 43.0327 31.9665 43.0327 32.0367L40.8724 38.8508C39.8626 42.0588 37.1857 44.4239 33.8982 45.0327V47.3041C33.8512 47.4446 33.7338 47.5382 33.6164 47.5382Z" fill="#3A3365"/>
<path d="M32.1609 37.938C29.7187 37.938 27.5349 37.2823 25.6798 35.9944C25.6328 35.971 25.6094 35.9242 25.5859 35.8774L24.8579 33.5592C24.8344 33.4655 24.8579 33.3484 24.9519 33.2782C25.0458 33.2313 25.1632 33.2313 25.2336 33.325C26.4782 34.6363 28.662 36.1818 32.1374 36.1818C35.6127 36.1818 37.82 34.6129 39.0411 33.325C39.1116 33.2547 39.229 33.2313 39.3229 33.2782C39.4168 33.325 39.4638 33.4421 39.4168 33.5592L38.6889 35.8774C38.6654 35.9242 38.6419 35.971 38.595 35.9944C36.8103 37.2823 34.6265 37.938 32.1609 37.938ZM26.0085 35.6432C27.7697 36.8374 29.8361 37.4697 32.1609 37.4697C34.4856 37.4697 36.552 36.8608 38.3132 35.6432L38.7358 34.2851C37.3739 35.4793 35.237 36.6501 32.1609 36.6501C29.0847 36.6501 26.9478 35.4793 25.5859 34.2851L26.0085 35.6432Z" fill="#3A3365"/>
<path d="M34.65 3.93746C34.3682 3.93746 34.1334 3.84379 33.9455 3.67988C33.6168 3.37547 33.4759 2.8369 33.4759 1.9705C33.4759 1.1041 33.6168 0.565525 33.9455 0.261114C34.1569 0.0737848 34.4152 -0.01988 34.7439 0.0035362C35.3779 0.0503686 35.965 0.635773 36.0824 0.776271C36.1294 0.799687 36.2937 0.893352 36.4112 0.823103C36.4581 0.565525 36.646 0.237698 37.0687 0.237698H37.327C37.6792 0.237698 37.9845 0.495276 38.0549 0.846519C38.0784 0.940184 38.0784 1.05726 38.1019 1.19776C38.1253 1.40851 38.1253 1.66609 38.1253 1.99391C38.1253 2.34516 38.1019 2.62615 38.0784 2.86031C38.0784 2.95398 38.0549 3.04764 38.0549 3.11789C38.0079 3.46913 37.7027 3.72671 37.327 3.72671H37.0687C36.646 3.72671 36.4581 3.37547 36.4112 3.14131C36.2937 3.07106 36.1294 3.16472 36.0824 3.18814C35.965 3.32864 35.3779 3.91404 34.7439 3.96087C34.7204 3.93746 34.697 3.93746 34.65 3.93746ZM34.65 0.495276C34.4856 0.495276 34.3682 0.542109 34.2743 0.635773C34.0629 0.846519 33.9455 1.29143 33.9455 1.99391C33.9455 2.6964 34.0629 3.16472 34.2743 3.35205C34.3917 3.44572 34.5326 3.49255 34.7204 3.46913C35.1431 3.44572 35.6362 3.00081 35.7771 2.8369C35.8006 2.81348 35.8006 2.81348 35.8241 2.79006C36.0354 2.64957 36.4816 2.48565 36.8103 2.81348C36.8573 2.86031 36.8808 2.90714 36.8808 2.95398C36.8808 2.95398 36.9043 3.23497 37.0921 3.23497H37.3504C37.4678 3.23497 37.5853 3.14131 37.6087 3.02423C37.6322 2.95398 37.6322 2.88373 37.6322 2.79006C37.6557 2.57932 37.6557 2.29832 37.6557 1.9705C37.6557 1.66609 37.6557 1.43192 37.6322 1.22118C37.6322 1.1041 37.6087 1.01043 37.5853 0.916768C37.5618 0.776271 37.4678 0.706022 37.327 0.706022H37.0687C36.8808 0.706022 36.8573 0.9636 36.8573 0.987016C36.8573 1.03385 36.8338 1.08068 36.7869 1.12751C36.4581 1.47876 35.9885 1.29143 35.8006 1.15093C35.7771 1.15093 35.7771 1.12751 35.7537 1.1041C35.6128 0.940184 35.1196 0.495276 34.697 0.47186C34.697 0.495276 34.6735 0.495276 34.65 0.495276Z" fill="#3A3365"/>
<path d="M29.6718 3.93726C29.6483 3.93726 29.6013 3.93726 29.5544 3.93726C28.9204 3.89043 28.3333 3.30502 28.2159 3.16452C28.1689 3.14111 28.0046 3.04744 27.8872 3.11769C27.8402 3.37527 27.6523 3.7031 27.2297 3.7031H26.9714C26.6191 3.7031 26.3139 3.44552 26.2434 3.09427C26.2199 3.02403 26.2199 2.93036 26.2199 2.8367C26.1964 2.62595 26.1964 2.34496 26.1964 1.99371C26.1964 1.66589 26.1964 1.40831 26.2199 1.19756C26.2199 1.05707 26.2434 0.9634 26.2669 0.846319C26.3139 0.518493 26.6191 0.260915 26.9948 0.260915H27.2531C27.6758 0.260915 27.8637 0.612158 27.9106 0.846319C28.028 0.893152 28.1924 0.822903 28.2394 0.799487C28.3568 0.65899 28.9438 0.0735851 29.5779 0.0267527C29.9066 0.00333649 30.1884 0.0970013 30.3763 0.284331C30.705 0.588741 30.8459 1.12731 30.8459 1.99371C30.8459 2.86011 30.705 3.39868 30.3763 3.7031C30.1884 3.86701 29.9536 3.93726 29.6718 3.93726ZM27.9811 2.62595C28.1924 2.62595 28.4038 2.71962 28.4977 2.78986C28.5212 2.78986 28.5212 2.81328 28.5447 2.8367C28.6855 3.00061 29.1787 3.44552 29.6013 3.46893C29.7892 3.49235 29.9536 3.44552 30.0475 3.35185C30.2588 3.14111 30.3763 2.6962 30.3763 1.99371C30.3763 1.29123 30.2588 0.822903 30.0475 0.635574C29.9301 0.541909 29.7892 0.495077 29.6013 0.518493C29.1787 0.541909 28.6855 0.986817 28.5447 1.15073C28.5212 1.17415 28.5212 1.17415 28.4977 1.19756C28.3098 1.31464 27.8402 1.47856 27.5114 1.12731C27.4645 1.08048 27.441 1.03365 27.441 0.986817C27.441 0.986817 27.4175 0.705822 27.2297 0.705822H26.9714C26.8539 0.705822 26.7365 0.799487 26.713 0.916568C26.6896 1.01023 26.6896 1.1039 26.6661 1.22098C26.6661 1.43172 26.6661 1.6893 26.6661 1.99371C26.6661 2.32154 26.6661 2.60253 26.6896 2.81328C26.6896 2.90694 26.713 2.97719 26.713 3.04744C26.7365 3.18794 26.8305 3.25819 26.9714 3.25819H27.2297C27.4175 3.25819 27.441 3.00061 27.441 2.97719C27.441 2.93036 27.4645 2.88353 27.5114 2.8367C27.6523 2.6962 27.8402 2.62595 27.9811 2.62595Z" fill="#3A3365"/>
<path d="M22.2043 32.0368C22.1103 32.0368 22.0164 31.9665 21.9694 31.8729L16.7564 15.3645C15.9815 12.8823 16.0989 10.2129 17.1087 7.82444L17.1791 7.66053C18.7759 3.86711 22.3217 1.31474 26.431 0.986915C26.5015 0.986915 26.5719 1.01033 26.6189 1.05716C26.6659 1.104 26.6893 1.17424 26.6893 1.24449C26.6659 1.43182 26.6659 1.6894 26.6659 1.99381C26.6659 2.32164 26.6659 2.60263 26.6893 2.81338C26.6893 2.88363 26.6659 2.93046 26.6424 2.97729C26.5954 3.02412 26.5485 3.04754 26.478 3.07096C23.1905 3.35195 20.3727 5.41258 19.0811 8.45668L19.0107 8.6206C18.1888 10.5641 18.0949 12.7184 18.7289 14.7322L23.9419 31.2406C23.9889 31.3577 23.9185 31.4982 23.801 31.5216L23.6602 31.5685C23.6132 31.5919 23.5427 31.5919 23.4958 31.5685L23.0731 31.7558C23.0496 31.7558 23.0496 31.7792 23.0261 31.7792L22.2512 32.0134L22.2043 32.0368ZM26.1962 1.47866C22.3686 1.87673 19.1046 4.2886 17.6018 7.84786L17.5313 8.01177C16.5686 10.3066 16.4512 12.8589 17.2026 15.224L22.3452 31.4982L22.8618 31.3343L23.4019 31.1001L18.2828 14.8727C17.6253 12.7653 17.7192 10.4705 18.588 8.43327L18.6585 8.26935C19.9735 5.155 22.8618 3.00071 26.2197 2.60263C26.2197 2.4153 26.1962 2.20456 26.1962 1.9704C26.1962 1.80648 26.1962 1.61915 26.1962 1.47866Z" fill="#3A3365"/>
<path d="M23.5899 31.5918C23.496 31.5918 23.402 31.5215 23.3551 31.4279C23.3081 31.3108 23.3786 31.1703 23.496 31.1235L23.6369 31.0766C23.7073 31.0532 23.7778 31.0532 23.8482 31.1C23.9186 31.1469 23.9421 31.2171 23.9421 31.2874C23.9421 31.381 23.8717 31.4747 23.7777 31.5215L23.6369 31.5684C23.6369 31.5918 23.6134 31.5918 23.5899 31.5918Z" fill="#3A3365"/>
<path d="M22.9555 31.7794C22.8616 31.7794 22.7677 31.7325 22.7442 31.6155C22.6972 31.4984 22.7442 31.3579 22.8616 31.3111L23.4487 31.0535C23.5191 31.0301 23.5895 31.0301 23.6365 31.0535C23.707 31.0769 23.7539 31.1237 23.7539 31.194L23.7774 31.2174C23.8009 31.2876 23.8009 31.3579 23.7774 31.4047C23.7539 31.475 23.707 31.5218 23.6365 31.5452L23.026 31.7325C23.0025 31.7794 22.979 31.7794 22.9555 31.7794Z" fill="#3A3365"/>
<path d="M22.9559 31.7795C22.8854 31.7795 22.7915 31.7327 22.7446 31.6624C22.6976 31.5688 22.6976 31.4517 22.768 31.3814C22.7915 31.358 22.8385 31.3346 22.862 31.3112L23.1672 31.2175C23.2846 31.1707 23.4255 31.2409 23.449 31.3814C23.496 31.4985 23.4255 31.639 23.2846 31.6858L22.9794 31.7795C23.0029 31.7795 22.9794 31.7795 22.9559 31.7795Z" fill="#3A3365"/>
<path d="M16.2393 60.9088C14.2668 58.9418 14.0555 55.8977 15.6288 53.72L16.4976 54.5864C15.4175 56.2958 15.6053 58.5671 17.1082 60.0658C18.8459 61.7986 21.6402 61.7752 23.3544 60.0658C25.0686 58.3564 25.0921 55.5699 23.3544 53.8371C21.875 52.3619 19.5738 52.1511 17.8596 53.2283L16.9908 52.3619C19.1746 50.8164 22.2508 51.0271 24.1998 52.9707C26.4071 55.1718 26.4071 58.7076 24.1998 60.9088C21.9925 63.1099 18.4467 63.1099 16.2393 60.9088Z" fill="white"/>
<path d="M17.1081 60.0661C15.6288 58.5909 15.4174 56.2961 16.4976 54.5867L18.3057 56.3897C18.1179 57.0688 18.2822 57.8181 18.8223 58.3567C19.5972 59.1294 20.8653 59.1294 21.6402 58.3567C22.4151 57.584 22.4151 56.3195 21.6402 55.5468C21.1001 55.0082 20.3487 54.8443 19.6677 55.055L17.8596 53.252C19.5737 52.1748 21.8515 52.3621 23.3544 53.8608C25.092 55.5936 25.0686 58.3801 23.3544 60.0895C21.6167 61.7755 18.8223 61.7755 17.1081 60.0661Z" fill="#3A3365"/>
<path d="M14.2201 53.5796L13.1165 52.479L15.7465 49.8564L16.8501 50.9804L16.2161 51.5892L14.8542 52.9474L14.2201 53.5796Z" fill="white"/>
<path d="M18.7988 58.3566C18.2587 57.818 18.0943 57.0687 18.2822 56.3896C18.3761 56.0852 18.5405 55.7808 18.7988 55.5466C19.0336 55.3125 19.3389 55.1252 19.6442 55.0315C20.3251 54.8442 21.0766 55.0081 21.6166 55.5232C22.3916 56.296 22.3916 57.5604 21.6166 58.3332C20.8652 59.1293 19.5972 59.1293 18.7988 58.3566Z" fill="#DC405E"/>
<path d="M15.6291 53.7202L14.8542 52.9475L16.2161 51.5893L16.991 52.362L17.8599 53.2284L19.668 55.0315C19.3627 55.1252 19.0575 55.2891 18.8226 55.5467C18.5878 55.7808 18.4 56.0852 18.306 56.3896L16.4979 54.5866L15.6291 53.7202Z" fill="white"/>
<path d="M20.2317 62.7824C18.7288 62.7824 17.2259 62.2204 16.0753 61.073C14.0559 59.0592 13.7741 55.898 15.4178 53.5798C15.4648 53.533 15.5118 53.4862 15.5822 53.4862C15.6526 53.4862 15.7231 53.5096 15.7701 53.5564L16.6389 54.4228C16.7093 54.4931 16.7328 54.6101 16.6624 54.7038C15.6292 56.3429 15.864 58.5206 17.2259 59.8788C18.0243 60.6749 19.0575 61.0964 20.1847 61.0964C21.3118 61.0964 22.345 60.6515 23.1434 59.8788C23.9418 59.0826 24.3645 58.0523 24.3645 56.9283C24.3645 55.8044 23.9183 54.7741 23.1434 53.9779C21.758 52.5963 19.5742 52.3622 17.9539 53.4159C17.86 53.4862 17.7426 53.4627 17.6721 53.3925L16.8033 52.5261C16.7563 52.4793 16.7328 52.409 16.7328 52.3388C16.7328 52.2685 16.7798 52.1983 16.8268 52.1749C19.1515 50.5357 22.3216 50.7933 24.341 52.8071C26.6188 55.0785 26.6188 58.8016 24.341 61.073C23.2139 62.2204 21.7345 62.7824 20.2317 62.7824ZM16.4041 60.7452C18.5175 62.8526 21.9224 62.8526 24.0358 60.7452C26.1491 58.6377 26.1491 55.2424 24.0358 53.1349C22.2511 51.3553 19.4802 51.0509 17.3434 52.3856L17.8834 52.9242C19.6916 51.8704 22.0163 52.1749 23.4957 53.6501C24.3645 54.5165 24.8576 55.6873 24.8576 56.9283C24.8576 58.1694 24.3645 59.3402 23.4957 60.2066C22.6268 61.073 21.4527 61.5647 20.2082 61.5647C18.9636 61.5647 17.7895 61.073 16.9207 60.2066C15.4413 58.7314 15.136 56.3898 16.1927 54.6101L15.6526 54.0716C14.3142 56.2024 14.6194 58.9656 16.4041 60.7452Z" fill="#3A3365"/>
<path d="M20.2317 61.5879C18.9872 61.5879 17.8131 61.0962 16.9443 60.2298C15.4179 58.7077 15.1596 56.2724 16.3102 54.4694C16.3572 54.3992 16.4042 54.3757 16.4746 54.3523C16.5451 54.3523 16.6155 54.3757 16.6625 54.4226L18.4706 56.2256C18.541 56.2959 18.5645 56.3661 18.541 56.4598C18.3532 57.0686 18.541 57.7477 18.9872 58.1926C19.3159 58.5204 19.7621 58.7077 20.2317 58.7077C20.7014 58.7077 21.1475 58.5204 21.4763 58.1926C21.805 57.8647 21.9929 57.4198 21.9929 56.9515C21.9929 56.4832 21.805 56.0383 21.4763 55.7105C21.0301 55.2656 20.3492 55.0782 19.7386 55.2655C19.6682 55.289 19.5742 55.2656 19.5038 55.1953L17.6957 53.3923C17.6487 53.3454 17.6252 53.2752 17.6252 53.2049C17.6252 53.1347 17.6722 53.0644 17.7426 53.041C19.5742 51.8936 21.9929 52.1512 23.5192 53.6733C24.3881 54.5396 24.8812 55.7105 24.8812 56.9515C24.8812 58.1926 24.3881 59.3634 23.5192 60.2298C22.6269 61.0962 21.4528 61.5879 20.2317 61.5879ZM17.273 59.902C18.0714 60.6981 19.1046 61.1196 20.2317 61.1196C21.3589 61.1196 22.3921 60.6747 23.1905 59.902C23.9889 59.1058 24.4116 58.0755 24.4116 56.9515C24.4116 55.8275 23.9654 54.7972 23.1905 54.0011C21.8755 52.6898 19.856 52.4088 18.2593 53.2752L19.7621 54.7738C20.5135 54.6099 21.2884 54.8206 21.8285 55.3592C22.2512 55.7807 22.486 56.3427 22.486 56.9281C22.486 57.5135 22.2512 58.0755 21.8285 58.497C21.4059 58.9185 20.8423 59.1526 20.2552 59.1526C19.6682 59.1526 19.1046 58.9185 18.6819 58.497C18.1418 57.9584 17.907 57.1857 18.0714 56.4364L16.5685 54.9377C15.6762 56.5534 15.958 58.5906 17.273 59.902Z" fill="#3A3365"/>
<path d="M14.2203 53.814C14.1498 53.814 14.1029 53.7906 14.0559 53.7437L12.9523 52.6432C12.9053 52.5963 12.8818 52.5495 12.8818 52.4793C12.8818 52.409 12.9053 52.3622 12.9523 52.3153L15.5588 49.7161C15.6527 49.6225 15.7936 49.6225 15.8875 49.7161L16.9912 50.8167C17.0381 50.8635 17.0616 50.9104 17.0616 50.9806C17.0616 51.0509 17.0381 51.0977 16.9912 51.1445L14.3847 53.7437C14.3612 53.7906 14.2907 53.814 14.2203 53.814ZM13.4454 52.4793L14.2203 53.252L16.498 50.9806L15.7231 50.2079L13.4454 52.4793Z" fill="#3A3365"/>
<path d="M20.2319 59.176C19.6448 59.176 19.0813 58.9418 18.6586 58.5203C18.095 57.9583 17.8602 57.1153 18.095 56.3192C18.189 55.9679 18.4003 55.6401 18.6586 55.3591C18.9169 55.1016 19.2457 54.8908 19.6214 54.7971C20.3963 54.563 21.2416 54.7971 21.8287 55.3591C22.2514 55.7806 22.4862 56.3426 22.4862 56.928C22.4862 57.5134 22.2514 58.0754 21.8287 58.4969C21.3825 58.9418 20.819 59.176 20.2319 59.176ZM20.2319 55.1952C20.0675 55.1952 19.9032 55.2186 19.7388 55.2655C19.457 55.3357 19.1987 55.4996 18.9874 55.7104C18.776 55.9211 18.6116 56.1787 18.5412 56.4597C18.3533 57.0685 18.5412 57.7476 18.9874 58.1925C19.3161 58.5203 19.7623 58.7076 20.2319 58.7076C20.7015 58.7076 21.1477 58.5203 21.4765 58.1925C21.8052 57.8647 21.9931 57.4198 21.9931 56.9514C21.9931 56.4831 21.8052 56.0382 21.4765 55.7104C21.1242 55.3591 20.6781 55.1952 20.2319 55.1952Z" fill="#3A3365"/>
<path d="M18.3063 56.624C18.2359 56.624 18.1889 56.6006 18.142 56.5538L14.6901 53.1116C14.5962 53.0179 14.5962 52.8774 14.6901 52.7838L16.0521 51.4256C16.146 51.332 16.2869 51.332 16.3808 51.4256L19.8327 54.8678C19.8796 54.9146 19.9031 55.0083 19.9031 55.102C19.8796 55.1722 19.8092 55.2425 19.7388 55.2659C19.457 55.3595 19.1987 55.5 18.9873 55.7108C18.776 55.9215 18.6116 56.1791 18.5412 56.4601C18.5177 56.5304 18.4472 56.6006 18.3768 56.624C18.3533 56.624 18.3298 56.624 18.3063 56.624ZM15.1832 52.9477L15.7703 53.5331L18.2124 55.9684C18.3298 55.7576 18.4707 55.5469 18.6351 55.3595C18.7995 55.1956 19.0108 55.0317 19.2456 54.9381L16.2164 51.9174L15.1832 52.9477Z" fill="#3A3365"/>
<path d="M37.984 15.5753H34.0859V19.4858H29.8826V15.5753H25.9611V11.3838H29.8826V7.49671H34.0859V11.3838H37.984V15.5753Z" fill="white"/>
<path d="M37.984 11.3838V15.5753H34.0859V19.4858H29.8826V15.5753H25.9611V11.3838H29.8826V7.49671H34.0859V11.3838H37.984Z" fill="white"/>
<path d="M34.0626 19.72H29.8593C29.7185 19.72 29.6245 19.6263 29.6245 19.4858V15.8095H25.9613C25.8204 15.8095 25.7265 15.7158 25.7265 15.5753V11.3838C25.7265 11.2433 25.8204 11.1497 25.9613 11.1497H29.648V7.49673C29.648 7.35623 29.7419 7.26257 29.8828 7.26257H34.0861C34.227 7.26257 34.3209 7.35623 34.3209 7.49673V11.1731H37.9842C38.125 11.1731 38.219 11.2667 38.219 11.4072V15.5987C38.219 15.7392 38.125 15.8329 37.9842 15.8329H34.3209V19.5092C34.2975 19.6029 34.2035 19.72 34.0626 19.72ZM30.1177 19.2517H33.8513V15.5753C33.8513 15.4348 33.9452 15.3412 34.0861 15.3412H37.7493V11.618H34.0861C33.9452 11.618 33.8513 11.5243 33.8513 11.3838V7.73089H30.1177V11.4072C30.1177 11.5477 30.0237 11.6414 29.8828 11.6414H26.1961V15.3646H29.8828C30.0237 15.3646 30.1177 15.4582 30.1177 15.5987V19.2517Z" fill="#3A3365"/>
<path d="M34.0861 19.72H29.8828C29.7419 19.72 29.648 19.6263 29.648 19.4858V15.8095H25.9613C25.8204 15.8095 25.7265 15.7158 25.7265 15.5753V11.3838C25.7265 11.2433 25.8204 11.1497 25.9613 11.1497H29.648V7.49673C29.648 7.35623 29.7419 7.26257 29.8828 7.26257H34.0861C34.227 7.26257 34.3209 7.35623 34.3209 7.49673V11.1731H37.9842C38.125 11.1731 38.219 11.2667 38.219 11.4072V15.5987C38.219 15.7392 38.125 15.8329 37.9842 15.8329H34.3209V19.5092C34.3209 19.6029 34.2035 19.72 34.0861 19.72ZM30.1177 19.2517H33.8513V15.5753C33.8513 15.4348 33.9452 15.3412 34.0861 15.3412H37.7493V11.618H34.0861C33.9452 11.618 33.8513 11.5243 33.8513 11.3838V7.73089H30.1177V11.4072C30.1177 11.5477 30.0237 11.6414 29.8828 11.6414H26.1961V15.3646H29.8828C30.0237 15.3646 30.1177 15.4582 30.1177 15.5987V19.2517Z" fill="#3A3365"/>
</g>
</svg>
