<svg width="64" height="64" viewBox="0 0 64 64" fill="none" xmlns="http://www.w3.org/2000/svg">
<mask id="mask0_1535_75514" style="mask-type:alpha" maskUnits="userSpaceOnUse" x="0" y="0" width="64" height="64">
<rect x="0.5" y="-0.5" width="63" height="63" transform="matrix(1 0 0 -1 0 63)" fill="white" stroke="#EEEEEE"/>
</mask>
<g mask="url(#mask0_1535_75514)">
</g>
<path d="M53.2293 12.3239C53.185 12.0007 52.902 11.822 52.6686 11.8025C52.4353 11.783 47.8795 11.7137 47.8795 11.7137C47.8795 11.7137 44.0694 8.01337 43.693 7.63675C43.3166 7.26012 42.5814 7.37437 42.296 7.45837L40.3814 8.05112C40.1813 7.40087 39.886 6.60225 39.4653 5.79975C38.1085 3.21175 36.1224 1.84187 33.7218 1.83837H33.7136C33.5473 1.83837 33.3814 1.854 33.2154 1.86912C33.1455 1.78379 33.0732 1.70055 32.9984 1.6195C31.9533 0.500872 30.6111 -0.0441279 29.0048 0.00299715C25.9038 0.0918721 22.8171 2.331 20.3135 6.3075C18.5511 9.10625 17.2123 12.6221 16.8315 15.3432C13.2718 16.4456 10.7811 17.217 10.7273 17.2339C8.93038 17.7977 8.87388 17.8542 8.63826 19.5471C8.45988 20.8287 3.75876 57.186 3.75876 57.186L43.163 64L60.241 59.7551C60.241 59.7551 53.2734 12.647 53.2293 12.3239ZM19.039 14.6595C20.1045 9.6775 24.279 2.20337 29.0644 2.06575C29.7924 2.0505 30.4055 2.21025 30.9291 2.55487C30.0916 2.98975 29.2815 3.61475 28.5216 4.42975C26.5521 6.5425 25.0435 9.823 24.4419 12.9864L19.039 14.6595ZM33.2883 10.2472L26.7096 12.2842C27.3461 9.8495 28.5509 7.42537 30.0314 5.83725C30.5821 5.2465 31.3526 4.58725 32.2649 4.21087C33.1231 5.99925 33.309 8.5345 33.2883 10.2472ZM35.3495 9.609C35.3266 8.03887 35.1391 5.855 34.4078 3.96712C36.7604 4.41287 37.9188 7.07487 38.4076 8.66212L35.3495 9.609Z" fill="#95BF47"/>
<path d="M52.6686 11.8025C52.4353 11.783 47.8795 11.7137 47.8795 11.7137C47.8795 11.7137 44.0694 8.01337 43.693 7.63675C43.5526 7.49625 43.3623 7.42437 43.164 7.39337L43.165 63.9996L60.241 59.7551C60.241 59.7551 53.2735 12.647 53.2293 12.3239C53.185 12.0007 52.902 11.822 52.6686 11.8025Z" fill="#5E8E3E"/>
<path d="M33.699 20.5835L31.7154 28.0036C31.7154 28.0036 29.5029 26.9961 26.8798 27.1617C23.0336 27.4046 22.9928 29.8307 23.0311 30.4387C23.2406 33.7574 31.9709 34.4825 32.4616 42.2552C32.8478 48.3705 29.218 52.5535 23.9879 52.8837C17.7118 53.28 14.2559 49.5766 14.2559 49.5766L15.5858 43.9185C15.5858 43.9185 19.0636 46.5425 21.8476 46.3667C23.6661 46.2519 24.3159 44.7729 24.2499 43.7269C23.9765 39.3979 16.8675 39.6529 16.4184 32.54C16.0404 26.5535 19.9714 20.4889 28.6454 19.9411C31.9875 19.7302 33.699 20.5835 33.699 20.5835Z" fill="white"/>
</svg>
