<svg width="48" height="48" viewBox="0 0 48 48" fill="none" xmlns="http://www.w3.org/2000/svg">
<mask id="mask0_1535_75687" style="mask-type:alpha" maskUnits="userSpaceOnUse" x="0" y="0" width="48" height="48">
<rect width="48" height="48" fill="white"/>
</mask>
<g mask="url(#mask0_1535_75687)">
<path d="M23.9748 48C19.5139 48.007 15.1412 46.7592 11.3497 44.3968L27.4269 0C30.2723 0.411255 33.0223 1.33658 35.5399 2.73157C47.1585 9.13873 51.4126 23.799 45.0384 35.4801C40.8215 43.2098 32.7457 48.0093 23.9748 48Z" fill="#6E7BF2"/>
<path d="M17.0472 22.8634C17.0576 22.2622 16.9957 21.6609 16.865 21.0769H8.69684V24.3217H13.4926C13.3104 25.4724 12.6675 26.4953 11.7152 27.1587L11.698 27.2659L14.2798 29.277L14.4586 29.2943C16.0984 27.7704 17.0472 25.5277 17.0472 22.8634Z" fill="#4285F4"/>
<path d="M8.69745 31.4124C11.0455 31.4124 13.0188 30.6348 14.4592 29.2941L11.7158 27.1551C10.8254 27.7563 9.77005 28.0604 8.70089 28.0293C6.4457 28.0155 4.45178 26.5503 3.75047 24.394L3.64733 24.4044L0.962417 26.4916L0.92804 26.5883C2.39942 29.5498 5.40749 31.4158 8.69745 31.4124Z" fill="#34A853"/>
<path d="M3.7472 24.3975C3.55812 23.8411 3.45842 23.2572 3.45842 22.6662C3.46186 22.0788 3.55812 21.4948 3.74032 20.935L3.73688 20.821L1.01759 18.6992L0.928204 18.7407C-0.309401 21.2114 -0.309401 24.1211 0.928204 26.5918L3.7472 24.3975Z" fill="#FBBC05"/>
<path d="M8.69682 17.3065C9.94474 17.2858 11.148 17.7523 12.059 18.6093L14.5136 16.2008C12.9391 14.7149 10.8523 13.9028 8.69339 13.927C5.40342 13.927 2.39535 15.7895 0.920532 18.7475L3.73265 20.9418C4.44083 18.7855 6.43819 17.3204 8.69682 17.3065Z" fill="#EB4335"/>
<path d="M25.0921 24.2962V28.5933H23.7252V17.9778H27.3493C28.2211 17.9591 29.0672 18.2886 29.6972 18.8961C30.9316 20.0388 31.0106 21.9735 29.8716 23.2143C29.8158 23.2751 29.7577 23.3335 29.6972 23.3895C29.0649 23.9924 28.2211 24.3172 27.3493 24.2938L25.0921 24.2962ZM25.0921 19.284V22.99H27.3819C27.8886 23.0063 28.3791 22.8077 28.7325 22.4409C29.4462 21.7515 29.4671 20.6136 28.7813 19.8962L28.7674 19.8822C28.7557 19.8705 28.7441 19.8565 28.7325 19.8472C28.3815 19.4733 27.891 19.27 27.3819 19.284H25.0921ZM33.8235 21.0926C34.8347 21.0926 35.632 21.3613 36.2155 21.9011C36.799 22.4385 37.0919 23.1769 37.0919 24.1163V28.5933H35.7854V27.5839H35.7273C35.1624 28.4134 34.4093 28.8293 33.4678 28.8293C32.7332 28.8527 32.0149 28.6003 31.457 28.1166C31.1987 27.8997 30.992 27.6274 30.852 27.3197C30.7121 27.012 30.6423 26.6767 30.648 26.3384C30.6247 25.6374 30.9432 24.9668 31.5011 24.5462C32.0707 24.1022 32.8308 23.8803 33.7816 23.8803C34.4767 23.8545 35.1671 24.0064 35.7854 24.3242V24.0111C35.7878 23.5438 35.5809 23.0998 35.2206 22.8054C34.8579 22.4806 34.3883 22.303 33.9025 22.31C33.1726 22.2937 32.4868 22.6582 32.0916 23.2727L30.8898 22.5156C31.5453 21.5669 32.524 21.0926 33.8235 21.0926ZM32.0544 26.3688C32.0521 26.7216 32.2218 27.0535 32.5054 27.2591C32.8076 27.4974 33.1842 27.6213 33.5677 27.6143C34.1443 27.6143 34.6952 27.3853 35.1043 26.9763C35.5344 26.6001 35.7831 26.0534 35.7831 25.4785C35.3554 25.1397 34.7626 24.9691 34.0001 24.9691C33.5073 24.9504 33.0191 25.0906 32.6123 25.3687C32.2706 25.5884 32.0614 25.9622 32.0544 26.3688ZM44.5935 21.3309L40.0326 31.7946H38.6215L40.3138 28.133L37.3127 21.3286H38.7982L40.9671 26.5464H40.9973L43.1057 21.3286L44.5935 21.3309Z" fill="white"/>
</g>
</svg>
