<svg width="48" height="48" viewBox="0 0 48 48" fill="none" xmlns="http://www.w3.org/2000/svg">
<mask id="mask0_1535_75655" style="mask-type:alpha" maskUnits="userSpaceOnUse" x="0" y="0" width="48" height="48">
<rect width="48" height="48" fill="white"/>
</mask>
<g mask="url(#mask0_1535_75655)">
<path d="M42.3285 10.9309C39.1016 10.2838 33.8987 9.40863 32.445 12.419C28.0025 20.0448 25.452 28.026 23.5322 31.4504C23.7339 31.5658 32.5824 36.6537 33.2083 36.9546C35.1976 37.9114 38.5188 37.4808 39.9336 34.9519C43.8585 27.9366 42.8609 29.763 47.0311 22.6048C49.726 17.9789 46.3567 11.7385 42.3285 10.9309Z" fill="#EA4335"/>
<path d="M14.4125 41.8894C12.2458 39.4328 10.6563 34.518 12.5603 31.7655C18.1222 22.218 22.5746 16.4383 26.0763 10.645C27.9331 11.7075 35.3729 15.8898 35.8683 16.3207C37.5305 17.7657 38.9075 20.5269 37.4051 23.0057C33.237 29.882 31.5268 32.994 27.2905 40.266C24.595 44.8931 17.1194 44.9584 14.4125 41.8894Z" fill="#FDBD00"/>
<path d="M34.3596 6.06622C30.0251 3.55605 27.7971 3.88503 25.4661 4.25552C23.3469 4.78052 20.4815 6.30676 19.2736 8.26756C16.2265 13.2138 13.3403 18.1082 9.60138 24.7408C8.4498 26.7836 9.30459 29.2934 10.3673 30.2894C11.0876 30.9647 16.3869 33.8622 17.3646 34.2789C18.7477 34.8681 20.8196 34.4582 22.0693 33.1833C22.4145 32.8312 30.32 19.374 32.5464 15.4048C33.4861 13.7299 34.3326 12.803 35.7378 11.9095C38.4526 10.4977 40.5722 10.3156 43.8188 11.4921C43.8188 11.4921 36.7528 7.43312 34.3596 6.06622Z" fill="#2DA94F"/>
<path d="M6.47105 37.6453C2.11009 35.1803 1.28356 33.1037 0.44178 30.9176C-0.158911 28.8366 -0.257908 25.614 0.851591 23.5966C3.65055 18.5086 3.63042 18.4828 7.55697 11.9574C8.76628 9.94764 11.387 9.42647 12.7888 9.84047C13.7389 10.1209 18.9205 13.2203 19.7735 13.8513C20.9801 14.7438 21.6576 16.7269 21.1686 18.4371C21.0334 18.9093 16.0801 27.5245 13.7251 31.4201C12.731 33.064 12.3444 34.2538 12.2663 35.9066C12.3899 38.9425 13.2905 40.8528 15.942 43.0511C15.942 43.0511 8.86202 39.0159 6.47105 37.6453Z" fill="#297AEC"/>
</g>
</svg>
