<svg width="48" height="48" viewBox="0 0 48 48" fill="none" xmlns="http://www.w3.org/2000/svg">
<mask id="mask0_1535_75628" style="mask-type:alpha" maskUnits="userSpaceOnUse" x="0" y="0" width="48" height="48">
<rect width="48" height="48" fill="white"/>
</mask>
<g mask="url(#mask0_1535_75628)">
<path d="M18.9493 21.6671C16.2016 17.8842 12.3772 14.571 8.04315 12.2546C7.51534 11.9719 6.93689 11.7959 6.34089 11.7367C5.74489 11.6774 5.14304 11.7361 4.56976 11.9093C3.99649 12.0825 3.46304 12.3668 2.99995 12.7461C2.53685 13.1254 2.15319 13.5921 1.87092 14.1195C1.30183 15.1844 1.17896 16.4311 1.52928 17.5862C1.87959 18.7414 2.67448 19.7107 3.73958 20.2814C10.4267 23.8538 14.7416 30.6681 15.2468 38.5435V38.5253C15.1633 37.6464 15.3268 36.7618 15.719 35.9706C15.773 35.8584 15.8366 35.7366 15.9176 35.6052C18.0082 32.1633 19.1114 28.2141 19.107 24.1887C19.107 23.3424 19.046 22.5021 18.9493 21.6671Z" fill="#3158A6"/>
<path d="M45.4223 13.0988C44.6154 9.56947 43.4223 6.13941 41.8645 2.87045C41.4521 2.01286 40.806 1.28868 40.0003 0.780979C39.1946 0.273273 38.2619 0.00259875 37.3091 0C36.559 0 35.8308 0.163529 35.1486 0.488846C32.6405 1.68052 31.5707 4.69709 32.7642 7.19525C35.3237 12.5839 36.5887 18.276 36.5887 24.19C36.5887 30.1014 35.3168 35.7892 32.8069 41.09C32.7695 41.1692 32.3304 42.1068 32.3304 43.1915C32.3291 43.5845 32.3721 43.9763 32.4585 44.3597C32.6255 45.1028 32.9601 45.7981 33.4368 46.3926C33.9136 46.9871 34.5199 47.4651 35.2096 47.7903C35.8815 48.1096 36.6164 48.2751 37.3605 48.2748C38.263 48.2716 39.1483 48.0279 39.9249 47.5688C40.7015 47.1098 41.3413 46.4521 41.7782 45.6636C42.7835 43.7813 43.7993 41.3022 44.6853 38.1169C44.9632 37.1575 45.1984 36.2563 45.418 35.2813C46.2482 31.6424 46.6672 27.9221 46.6672 24.19C46.6646 20.4583 46.2471 16.7385 45.4223 13.0988Z" fill="#449F27"/>
<path d="M24.1414 7.83057C24.0512 7.68508 23.9532 7.54455 23.8478 7.40957C23.4027 6.82744 22.8299 6.35483 22.1735 6.02795C21.5171 5.70106 20.7944 5.5286 20.0609 5.52377C19.2907 5.52377 18.8961 5.61858 18.3429 5.83952C17.774 6.06481 17.1721 6.37447 16.6276 6.94856C16.1447 7.45179 15.7726 8.05029 15.5351 8.70562C15.0786 9.91991 15.1326 11.5169 15.9298 12.7956C17.6033 15.4807 18.5877 18.5286 18.9492 21.6661C19.0459 22.5012 19.1052 23.3423 19.1052 24.1895C19.1052 28.2273 18.0031 32.1754 15.9158 35.6052C15.3817 36.4842 15.147 37.5123 15.2468 38.5356C15.3146 39.2803 15.5561 39.9988 15.952 40.6335C16.3479 41.2682 16.8872 41.8015 17.5266 42.1907C17.8733 42.3977 18.2419 42.5569 18.6234 42.6726C19.6422 42.9877 20.7375 42.9529 21.7341 42.5735C22.7307 42.1941 23.5713 41.4921 24.1214 40.5797C27.1233 35.6386 28.7076 29.9687 28.7011 24.1895C28.705 18.4232 27.1282 12.7658 24.1414 7.83057Z" fill="#F8002E"/>
<path d="M32.8055 41.0887C35.3162 35.787 36.5881 30.0992 36.5881 24.1869C36.5881 22.1541 36.4496 20.6728 36.3433 19.7325C33.0433 14.4622 28.2589 9.75121 22.6555 6.30319C22.659 6.30406 22.7853 6.38931 22.7949 6.39452C23.1817 6.672 23.5093 6.96601 23.8508 7.40701C23.9557 7.54256 24.0537 7.68337 24.1443 7.82888C27.131 12.7636 28.7078 18.4203 28.704 24.1861C28.704 24.875 28.6814 25.5648 28.6378 26.2502C31.0318 30.7968 32.3368 35.9662 32.3368 41.3861C32.3368 41.815 32.3447 42.5108 32.3333 43.0171C32.3646 42.4372 32.4896 41.8661 32.7036 41.3261C32.7358 41.2461 32.768 41.1652 32.8055 41.0887Z" fill="#FBBB08"/>
</g>
</svg>
