<svg width="64" height="64" viewBox="0 0 64 64" fill="none" xmlns="http://www.w3.org/2000/svg">
<mask id="mask0_1535_75443" style="mask-type:alpha" maskUnits="userSpaceOnUse" x="0" y="0" width="64" height="64">
<rect x="0.5" y="-0.5" width="63" height="63" transform="matrix(1 0 0 -1 0 63)" fill="white" stroke="#EEEEEE"/>
</mask>
<g mask="url(#mask0_1535_75443)">
<path d="M46.7679 47.3359H26.293C21.6696 47.3359 17.5867 44.6307 16.3858 40.7233L9.18054 17.1586C11.6423 16.4372 14.2242 17.7597 14.9447 20.2244L20.829 39.4008C21.4295 41.3245 23.7111 42.7672 26.293 42.7672H46.7679C49.3498 42.7672 51.6314 41.3846 52.2319 39.4008L58.2362 20.2244C59.0168 17.7597 61.5987 16.4372 64.0004 17.2187L56.6751 40.7233C55.4142 44.6307 51.3913 47.3359 46.7679 47.3359Z" fill="#A6CC41"/>
<path d="M23.5307 13.5518C22.4499 12.8906 22.0896 11.4478 22.8102 10.3658L27.9739 2.07003C28.6344 0.987979 30.0154 0.687408 31.0962 1.34866C32.177 2.00992 32.5372 3.45266 31.8167 4.53471L26.653 12.8305C26.0525 13.9125 24.6115 14.2131 23.5307 13.5518Z" fill="#A6CC41"/>
<path d="M46.5275 12.8305L41.4238 4.53471C40.7633 3.45266 41.0635 2.00992 42.1443 1.34866C43.2251 0.687408 44.6661 0.987979 45.3266 2.07003L50.4904 10.3658C51.1508 11.4478 50.8506 12.8906 49.7698 13.5518C48.629 14.2131 47.248 13.9125 46.5275 12.8305Z" fill="#A6CC41"/>
<path d="M59.4825 23.067L13.2535 23.6329L13.2763 25.4962L59.5053 24.9303L59.4825 23.067Z" fill="#A6CC41"/>
<path d="M56.8501 33.8151L17.1612 34.0477L17.1721 35.9113L56.861 35.6787L56.8501 33.8151Z" fill="#A6CC41"/>
<path d="M29.2352 45.1114L25.9928 17.5792C25.9328 17.0983 26.293 16.6173 26.7734 16.5572C27.2537 16.4971 27.7341 16.8578 27.7941 17.3387L31.0965 44.871L29.2352 45.1114Z" fill="#A6CC41"/>
<path d="M44.0058 45.1113L42.2045 44.8709L45.4469 17.3386C45.5069 16.8577 45.9873 16.497 46.4676 16.5571C46.948 16.6172 47.3082 17.0981 47.2482 17.5791L44.0058 45.1113Z" fill="#A6CC41"/>
<path d="M48.6288 42.6474C34.6386 54.8505 18.3668 54.9707 12.2423 42.8878C9.60039 37.6579 9.30017 31.0453 10.9213 24.2524C6.77833 33.6302 6.05781 43.4288 9.66043 50.5824C15.7849 62.6654 32.0567 62.5451 46.0469 50.342C54.0327 43.3687 59.4967 33.9909 61.5982 24.9738C58.7762 31.406 54.3329 37.6579 48.6288 42.6474Z" fill="#5EA5C8"/>
<path d="M6.35805 26.5362C6.35805 26.5362 -3.12885 41.685 1.07421 52.9263C5.33731 64.1677 20.7685 62.8452 27.1332 60.2603C27.1332 60.2603 14.8843 61.5828 8.15936 52.4454C1.37443 43.248 6.35805 26.5362 6.35805 26.5362Z" fill="#A6CC41"/>
</g>
</svg>
