<svg width="48" height="46" viewBox="0 0 48 46" fill="none" xmlns="http://www.w3.org/2000/svg">
<mask id="mask0_1535_75678" style="mask-type:alpha" maskUnits="userSpaceOnUse" x="0" y="0" width="48" height="46">
<rect width="48" height="46" fill="white"/>
</mask>
<g mask="url(#mask0_1535_75678)">
<path fill-rule="evenodd" clip-rule="evenodd" d="M24 33.4175C25.4905 32.0964 26.6803 30.4873 27.4932 28.6933C28.3061 26.8993 28.7242 24.96 28.7205 22.9999C28.7242 21.0397 28.3062 19.1004 27.4933 17.3064C26.6804 15.5124 25.4905 13.9033 24 12.5823C21.4513 10.3219 18.0703 8.94444 14.3601 8.94444C6.42949 8.94444 0 15.2372 0 22.9999C0 30.7623 6.42949 37.0553 14.3601 37.0553C18.0703 37.0553 21.4516 35.6779 24 33.4175Z" fill="#3A9BD9"/>
<path fill-rule="evenodd" clip-rule="evenodd" d="M33.6396 8.94444C29.9294 8.94444 26.5479 10.3219 23.9997 12.5823C23.4801 13.0436 22.9955 13.5409 22.5499 14.0704H25.4486C25.8465 14.5429 26.2125 15.0401 26.5441 15.5588H21.4551C21.1488 16.0384 20.8723 16.5354 20.6272 17.0471H27.3707C27.6028 17.5315 27.8063 18.0283 27.9801 18.5353H20.0191C19.8522 19.0235 19.713 19.5203 19.6022 20.0234H28.3972C28.6126 21.0017 28.7209 21.9994 28.7205 22.9999C28.7205 24.5603 28.4598 26.0616 27.9803 27.4643H20.0191C20.1923 27.9713 20.3953 28.4682 20.6272 28.9526H27.3707C27.1261 29.4644 26.8499 29.9614 26.5438 30.441H21.4551C21.7864 30.9596 22.152 31.4568 22.5496 31.9294H25.4486C25.0035 32.4591 24.5193 32.9565 23.9997 33.4178C26.5479 35.6781 29.9294 37.0556 33.6396 37.0556C41.57 37.0556 47.9997 30.7626 47.9997 23.0001C47.9997 15.2372 41.57 8.94444 33.6396 8.94444Z" fill="#CC2131"/>
<path fill-rule="evenodd" clip-rule="evenodd" d="M46.0876 30.8351C46.0876 30.5844 46.2951 30.381 46.5517 30.381C46.8078 30.381 47.0153 30.5844 47.0153 30.8351C47.0153 31.0854 46.8078 31.2888 46.5517 31.2888C46.4283 31.2884 46.31 31.2404 46.223 31.1553C46.1359 31.0702 46.0872 30.9551 46.0876 30.8351ZM46.5515 31.1796C46.7459 31.1796 46.9037 31.0258 46.9037 30.8349C46.9037 30.6439 46.7459 30.4896 46.5515 30.4896C46.3565 30.4896 46.1987 30.6439 46.1987 30.8349C46.1987 31.0258 46.3567 31.1796 46.5515 31.1796ZM46.4889 31.034H46.3937V30.6347H46.5661C46.6017 30.6347 46.6382 30.6357 46.6697 30.6552C46.6861 30.6664 46.6994 30.6814 46.7085 30.6987C46.7176 30.7161 46.7221 30.7354 46.7218 30.7549C46.7218 30.7997 46.6949 30.8421 46.6513 30.8581L46.7264 31.0338H46.6207L46.5586 30.876H46.4891L46.4889 31.034L46.4891 30.8082H46.5417C46.5607 30.8082 46.5822 30.8092 46.5994 30.8C46.6071 30.7949 46.6133 30.788 46.6175 30.78C46.6217 30.772 46.6238 30.7631 46.6236 30.7541C46.6232 30.7461 46.621 30.7383 46.617 30.7312C46.613 30.7242 46.6073 30.7182 46.6005 30.7137C46.584 30.704 46.5574 30.7065 46.5394 30.7065H46.4894V31.034H46.4889Z" fill="#CC2131"/>
<path fill-rule="evenodd" clip-rule="evenodd" d="M43.0506 26.0465C43.0506 25.7958 43.2581 25.5924 43.5142 25.5924C43.7702 25.5924 43.9778 25.7958 43.9778 26.0465C43.9778 26.2973 43.7702 26.5002 43.5142 26.5002C43.2581 26.5002 43.0506 26.297 43.0506 26.0465ZM43.5139 26.391C43.7084 26.391 43.8662 26.2367 43.8662 26.0463C43.8662 25.8553 43.7084 25.701 43.5139 25.701C43.3189 25.701 43.1617 25.8553 43.1617 26.0463C43.1617 26.2367 43.3192 26.391 43.5139 26.391ZM43.4513 26.2454H43.3561V25.8466H43.5286C43.5642 25.8466 43.6012 25.8471 43.6322 25.867C43.6486 25.8782 43.6619 25.893 43.671 25.9103C43.68 25.9276 43.6846 25.9468 43.6843 25.9663C43.6843 26.0116 43.6576 26.0535 43.6137 26.0694L43.6889 26.2452H43.5837L43.5211 26.0874H43.4516L43.4513 26.2454L43.4516 26.0196H43.5042C43.5237 26.0196 43.5452 26.0211 43.5619 26.0119C43.5695 26.0067 43.5756 25.9998 43.5798 25.9918C43.584 25.9838 43.5861 25.975 43.586 25.966C43.5858 25.9579 43.5837 25.9499 43.5796 25.9428C43.5756 25.9357 43.5699 25.9296 43.5629 25.9251C43.5465 25.9159 43.5198 25.9179 43.5024 25.9179H43.4518V26.2454H43.4513ZM12.5657 26.5002H10.7784L11.8406 21.0223L9.39505 26.5002H7.76536L7.46749 21.0537L6.40198 26.5002H4.77972L6.16594 19.3744H8.95479L9.10231 23.7859L11.0686 19.3744H13.9747L12.5657 26.5002ZM32.5394 26.4291C32.0504 26.5605 31.6681 26.6171 31.2551 26.6171C30.3407 26.6171 29.8414 26.1682 29.8414 25.3446C29.8414 25.1816 29.8599 25.0081 29.894 24.8246L30.0028 24.258L30.0864 23.7994L30.9149 19.3741H32.6923L32.4347 20.705H33.3468L33.1018 22.1138H32.1859L31.7148 24.5317C31.6974 24.6107 31.6871 24.691 31.6843 24.7718C31.6843 25.0711 31.8693 25.2013 32.2941 25.2013C32.4976 25.2013 32.6554 25.1833 32.7762 25.1472L32.5394 26.4291ZM37.7595 20.7526C37.6096 20.6947 37.5745 20.6947 37.557 20.69C37.4624 20.6696 37.4118 20.6576 37.4031 20.6561C37.3437 20.646 37.2835 20.6412 37.2232 20.6417C36.6365 20.6417 36.2134 20.8974 35.6664 21.5826L35.8242 20.7045H34.2055L33.1162 26.4999H34.9047C35.5445 22.9556 35.8186 22.3349 36.6765 22.3349C36.7412 22.3349 36.8158 22.3399 36.9025 22.3496L37.1114 22.3913L37.7595 20.7526ZM25.4544 22.5358C25.4544 23.2679 25.8759 23.7722 26.8314 24.1511C27.5636 24.4422 27.6768 24.5275 27.6768 24.7907C27.6768 25.1514 27.354 25.3142 26.639 25.3142C26.0991 25.3142 25.5976 25.2431 25.0185 25.0848L24.7704 26.4217L24.8505 26.4349L25.1817 26.4942C25.2884 26.5121 25.4457 26.5293 25.6543 26.5448C26.0843 26.5775 26.417 26.5929 26.6515 26.5929C28.5593 26.5929 29.4406 25.981 29.4406 24.6591C29.4406 23.8637 29.0722 23.3973 28.1663 23.0461C27.4081 22.7527 27.3204 22.6876 27.3204 22.4172C27.3204 22.1049 27.6211 21.9443 28.2053 21.9443C28.5606 21.9443 29.045 21.977 29.5045 22.0313L29.7621 20.6898C29.2941 20.6274 28.584 20.5763 28.1712 20.5763C26.1484 20.5766 25.4482 21.467 25.4544 22.5358ZM18.3758 26.5002H16.8906L16.9252 25.8994C16.4729 26.3751 15.87 26.6004 15.0505 26.6004C14.082 26.6004 13.4172 25.9548 13.4172 25.0175C13.4172 23.6057 14.572 22.7829 16.5568 22.7829C16.7602 22.7829 17.0186 22.7986 17.2849 22.8275C17.3403 22.637 17.3555 22.5548 17.3555 22.4511C17.3555 22.0675 17.0437 21.9239 16.2091 21.9239C15.6988 21.9239 15.1221 21.9867 14.7239 22.0854L14.4763 22.147L14.3159 22.1844L14.5638 20.8815C15.4548 20.6581 16.0429 20.5736 16.7035 20.5736C18.2396 20.5736 19.0513 21.1624 19.0513 22.2736C19.0513 22.5595 19.0244 22.7766 18.9061 23.4217L18.5326 25.4777L18.4697 25.8466L18.424 26.1412L18.3935 26.3429L18.3758 26.5002ZM17.072 23.9183C16.9394 23.9023 16.806 23.8943 16.6725 23.8943C15.6596 23.8943 15.1464 24.1907 15.1464 24.776C15.1464 25.1367 15.3968 25.367 15.7876 25.367C16.5162 25.3673 17.0412 24.7753 17.072 23.9183ZM24.2391 26.3751C23.6421 26.5324 23.0262 26.6115 22.4077 26.6101C20.4096 26.6086 19.3682 25.7182 19.3682 24.0137C19.3682 22.0243 20.6931 20.5596 22.4916 20.5596C23.963 20.5596 24.9025 21.38 24.9025 22.6662C24.9025 23.0932 24.8384 23.5095 24.6832 24.097H21.1295C21.1186 24.1571 21.1129 24.218 21.1123 24.279C21.1123 24.9507 21.6421 25.2935 22.6802 25.2935C23.3185 25.2935 23.8955 25.1801 24.5362 24.9268L24.2391 26.3751ZM23.2872 22.9267C23.297 22.806 23.3021 22.7073 23.3021 22.6311C23.3021 22.1604 22.9888 21.8843 22.4567 21.8843C21.8882 21.8843 21.4815 22.2547 21.3165 22.9232L23.2872 22.9267ZM43.3151 23.8727C43.0475 25.8005 41.6721 26.6555 39.8435 26.6555C37.8215 26.6555 37.0049 25.455 37.0049 23.9841C37.0049 21.9301 38.388 20.5385 40.5242 20.5385C42.3784 20.5385 43.3628 21.6828 43.3628 23.154C43.3628 23.512 43.3623 23.5356 43.3151 23.8727ZM41.4745 23.1311C41.4745 22.5249 41.2231 21.9526 40.4903 21.9526C39.5782 21.9526 39.013 23.0077 39.013 23.9392C39.013 24.7249 39.4004 25.2529 40.0393 25.2416C40.4267 25.2416 41.2528 24.7252 41.4163 23.8231C41.4545 23.6127 41.4745 23.3819 41.4745 23.1311Z" fill="white"/>
</g>
</svg>
