<svg width="48" height="48" viewBox="0 0 48 48" fill="none" xmlns="http://www.w3.org/2000/svg">
<mask id="mask0_1535_75637" style="mask-type:alpha" maskUnits="userSpaceOnUse" x="0" y="0" width="48" height="48">
<rect width="48" height="48" fill="white"/>
</mask>
<g mask="url(#mask0_1535_75637)">
<path fill-rule="evenodd" clip-rule="evenodd" d="M24.0123 34.8645C26.5427 37.2311 29.9409 38.6666 33.6371 38.6666C41.5752 38.6666 48 32.095 48 24.0123C48 15.9051 41.5752 9.33322 33.6371 9.33322C29.9409 9.33322 26.5427 10.7684 24.0123 13.1352C21.11 15.8293 19.2741 19.7068 19.2741 24.0123C19.2744 28.3178 21.11 32.1957 24.0123 34.8645Z" fill="#E9B040"/>
<path fill-rule="evenodd" clip-rule="evenodd" d="M46.0906 32.1706C46.0906 31.9187 46.2891 31.7175 46.537 31.7175C46.8097 31.7175 47.0079 31.919 47.0079 32.1706C47.0079 32.448 46.8094 32.6492 46.537 32.6492C46.2891 32.6492 46.0906 32.448 46.0906 32.1706ZM46.537 32.5488C46.7355 32.5488 46.9086 32.3721 46.9086 32.1709C46.9086 31.9697 46.7352 31.8186 46.537 31.8186C46.363 31.8186 46.1898 31.9697 46.1898 32.1709C46.1898 32.3721 46.3633 32.5488 46.537 32.5488ZM46.4873 32.3976H46.3881V31.9694H46.5615C46.5866 31.9694 46.6362 31.9694 46.6608 31.9949C46.7104 32.0198 46.7104 32.0453 46.7104 32.0957C46.7104 32.146 46.6859 32.1964 46.6362 32.1964L46.7355 32.3979H46.6111L46.5615 32.2213H46.4873V32.3976V32.1457H46.5866C46.6111 32.1457 46.6111 32.1203 46.6111 32.0954C46.6111 32.0699 46.6111 32.0699 46.5866 32.045H46.4873V32.3976Z" fill="#E9B040"/>
<path fill-rule="evenodd" clip-rule="evenodd" d="M28.6515 22.4514C28.6018 21.9227 28.5026 21.4193 28.4033 20.8903H19.6217C19.721 20.3616 19.8699 19.8582 20.0185 19.3544H27.9817C27.8089 18.8243 27.6102 18.3033 27.3864 17.7933H20.6389C20.8871 17.2599 21.1603 16.739 21.4576 16.2322H26.5432C26.216 15.6944 25.8513 15.1811 25.4519 14.6962H22.5492C22.9982 14.1397 23.4874 13.6179 24.0128 13.1351C21.4579 10.7935 18.084 9.33311 14.363 9.33311C6.44968 9.33311 0 15.905 0 24.0122C0 32.0948 6.44968 38.6664 14.363 38.6664C18.084 38.6664 21.4576 37.231 24.0128 34.8644C24.5302 34.3901 25.0112 33.8766 25.4519 33.3282H22.5492C22.1522 32.8247 21.805 32.3213 21.4576 31.7671H26.5432C26.863 31.2692 27.145 30.7473 27.3867 30.206H20.6389C20.4156 29.7025 20.1925 29.199 20.0185 28.6698H27.9817C28.1551 28.1663 28.2795 27.6379 28.403 27.1087C28.5023 26.6052 28.6015 26.0768 28.6512 25.5476C28.7015 25.0371 28.7264 24.5244 28.7259 24.0113C28.7259 23.4836 28.7011 22.9549 28.6515 22.4514Z" fill="#CC2131"/>
<path fill-rule="evenodd" clip-rule="evenodd" d="M46.0906 27.4123C46.0906 27.1355 46.2891 26.9343 46.537 26.9343C46.8097 26.9343 47.0079 27.1358 47.0079 27.4123C47.0079 27.6642 46.8094 27.8909 46.537 27.8909C46.2891 27.8909 46.0906 27.6639 46.0906 27.4123ZM46.537 27.7646C46.7355 27.7646 46.9086 27.6135 46.9086 27.4123C46.9086 27.2111 46.7352 27.0599 46.537 27.0599C46.363 27.0599 46.1898 27.2111 46.1898 27.4123C46.1898 27.6135 46.3633 27.7646 46.537 27.7646ZM46.4873 27.6135H46.3881V27.2108H46.6608C46.7104 27.2362 46.7104 27.2866 46.7104 27.337C46.7104 27.3619 46.6859 27.4123 46.6362 27.4378L46.7355 27.6138H46.6111L46.5615 27.4627H46.4873V27.6135V27.3871H46.537C46.5615 27.3871 46.5866 27.3871 46.5866 27.3616C46.6111 27.3616 46.6111 27.3367 46.6111 27.3112C46.6111 27.3112 46.6111 27.2863 46.5866 27.2863C46.5866 27.2608 46.5615 27.2863 46.537 27.2863H46.4873V27.6135Z" fill="white"/>
<path fill-rule="evenodd" clip-rule="evenodd" d="M19.1251 28.2426C18.6539 28.3683 18.3065 28.4441 17.9593 28.4441C17.2151 28.4441 16.7684 27.9656 16.7684 27.1094C16.7684 26.9334 16.7932 26.7571 16.8181 26.5556L16.9173 25.9768L16.9918 25.4982L17.6615 21.3691H19.1499L18.9762 22.2756H19.919L19.6956 23.7863H18.7529L18.3561 26.2536C18.3313 26.3799 18.3313 26.4551 18.3313 26.5055C18.3313 26.833 18.4802 26.9586 18.8521 26.9586C19.0259 26.9586 19.1745 26.9337 19.3234 26.9082L19.1251 28.2426ZM23.9378 28.1923C23.3921 28.3434 22.8961 28.4187 22.3501 28.4187C20.6632 28.4187 19.6956 27.5122 19.6956 25.7249C19.6956 23.6349 20.8369 22.1241 22.4243 22.1241C23.6893 22.1241 24.508 22.9803 24.508 24.3144C24.508 24.7681 24.4583 25.196 24.3346 25.8002H21.2337C21.2088 25.901 21.2088 25.9513 21.2088 26.0017C21.2088 26.7067 21.6801 27.0591 22.5732 27.0591C23.1437 27.0591 23.6397 26.9334 24.1857 26.6818L23.9378 28.1923ZM23.0199 24.5917V24.2895C23.0199 23.786 22.7469 23.5089 22.2757 23.5089C21.7793 23.5089 21.4322 23.8865 21.2833 24.5915L23.0199 24.5917ZM7.21783 28.3179H5.67979L6.5729 22.6027L4.56363 28.3179H3.4971L3.37302 22.6279L2.43028 28.3179H0.917053L2.13248 20.8905H4.38991L4.43955 25.4734L5.95277 20.8905H8.43356L7.21783 28.3179ZM10.964 25.6242C10.8151 25.5987 10.7654 25.5987 10.6662 25.5987C9.77307 25.5987 9.32666 25.9511 9.32666 26.5052C9.32666 26.883 9.55001 27.1349 9.89715 27.1349C10.6414 27.1349 10.9389 26.5052 10.964 25.6242ZM12.2042 28.3179H10.8647L10.8895 27.6888C10.5421 28.1668 10.0709 28.4187 9.25221 28.4187C8.50801 28.4187 7.86307 27.7392 7.86307 26.7571C7.86307 26.4803 7.9127 26.2287 7.98715 25.9768C8.23502 25.0448 9.15294 24.4661 10.5669 24.4406C10.7406 24.4406 11.0133 24.4406 11.2615 24.4661C11.3108 24.2646 11.3108 24.1887 11.3108 24.0631C11.3108 23.6601 10.9885 23.5341 10.2691 23.5341C9.8227 23.5341 9.32637 23.6097 8.97923 23.7356L8.75588 23.786L8.65661 23.8109L8.87996 22.4513C9.59935 22.2246 10.1202 22.1241 10.691 22.1241C12.0305 22.1241 12.7499 22.7536 12.7499 23.9117C12.7499 24.2139 12.7747 24.4406 12.6754 25.0952L12.3283 27.2606L12.2787 27.6384L12.2538 27.9407L12.229 28.1422L12.2042 28.3179ZM31.4295 22.3256C31.8759 22.3256 32.2729 22.4516 32.8186 22.7284L33.0913 21.1169C32.9424 21.0413 32.8928 21.0413 32.6945 20.9658L32.0747 20.7894C31.8762 20.7391 31.6283 20.7139 31.355 20.7139C30.5857 20.7139 30.1393 20.7391 29.6684 21.0161C29.4202 21.1925 29.0976 21.4192 28.7502 21.8219L28.5516 21.7715L26.9639 22.9044L27.0387 22.275H25.4011L24.4341 28.3176H25.9973L26.5675 25.07C26.5675 25.07 26.7911 24.6163 26.8901 24.4658C27.1879 24.088 27.4357 24.088 27.7581 24.088H27.8824C27.8304 24.4717 27.8054 24.8587 27.8077 25.2461C27.8077 27.2099 28.8991 28.4438 30.586 28.4438C31.0079 28.4438 31.3804 28.3935 31.9506 28.2423L32.2239 26.5304C31.7278 26.8072 31.2812 26.9331 30.9089 26.9331C29.9913 26.9331 29.445 26.2281 29.445 25.1204C29.4444 23.4837 30.2634 22.3256 31.4295 22.3256ZM44.6012 20.8905L44.2544 23.0055C43.8821 22.4264 43.4354 22.1493 42.8401 22.1493C42.0212 22.1493 41.2524 22.6276 40.7809 23.5341V23.5092L39.7889 22.9047L39.8881 22.2753H38.226L37.2833 28.3179H38.8213L39.3424 25.0703C39.3424 25.0703 39.7392 24.6166 39.8385 24.4661C40.0867 24.1638 40.3345 24.1132 40.5331 24.0883C40.3596 24.5917 40.2604 25.196 40.2604 25.8761C40.2604 27.3868 41.0291 28.3938 42.1701 28.3938C42.7409 28.3938 43.1873 28.1923 43.6089 27.7137L43.5347 28.3179H44.9986L46.1892 20.8905H44.6012ZM42.6915 26.883C42.1704 26.883 41.8977 26.4803 41.8977 25.6995C41.8977 24.5159 42.3937 23.6601 43.1128 23.6601C43.6585 23.6601 43.9318 24.0883 43.9318 24.8436C43.9318 26.0521 43.4357 26.883 42.6915 26.883ZM35.5227 25.6242C35.3738 25.5987 35.3242 25.5987 35.2249 25.5987C34.3313 25.5987 33.8848 25.9511 33.8848 26.5052C33.8848 26.883 34.1085 27.1349 34.4556 27.1349C35.1998 27.1349 35.4976 26.5052 35.5227 25.6242ZM36.763 28.3179H35.3984L35.448 27.6888C35.1009 28.1668 34.6291 28.4187 33.811 28.4187C33.0417 28.4187 32.3722 27.764 32.3722 26.7571C32.3722 25.3222 33.4384 24.4409 35.1254 24.4409C35.2994 24.4409 35.5718 24.4409 35.7954 24.4664C35.8451 24.2649 35.8702 24.189 35.8702 24.0634C35.8702 23.6604 35.5476 23.5344 34.8034 23.5344C34.3815 23.5344 33.8606 23.61 33.5135 23.7359L33.3149 23.7863L33.2157 23.8112L33.4387 22.4516C34.1584 22.2249 34.6796 22.1244 35.2498 22.1244C36.5893 22.1244 37.2838 22.7539 37.2838 23.9119C37.2838 24.2142 37.3335 24.4409 37.2097 25.0955L36.8871 27.2609L36.8374 27.6387L36.7878 27.941L36.7633 28.1425V28.3179H36.763ZM15.4537 23.5593C15.7515 23.5593 16.1731 23.5845 16.6198 23.6601L16.8432 22.2501C16.3965 22.1997 15.8012 22.1241 15.4537 22.1241C13.7174 22.1241 13.147 23.081 13.147 24.1887C13.147 24.9192 13.4693 25.4476 14.3127 25.8503C14.9329 26.1526 15.0321 26.2026 15.0321 26.48C15.0321 26.8573 14.7098 27.0842 14.1142 27.0842C13.643 27.0842 13.1963 27.0084 12.7003 26.8324L12.5265 28.2169L12.5511 28.2423L12.8489 28.2927C12.9481 28.3176 13.0722 28.3431 13.2459 28.368C13.6179 28.3935 13.9405 28.4184 14.139 28.4184C15.8756 28.4184 16.595 27.7389 16.595 26.4042C16.595 25.5735 16.1979 25.07 15.4289 24.7177C14.7592 24.4151 14.6847 24.3653 14.6847 24.088C14.6847 23.8112 14.9825 23.5593 15.4537 23.5593Z" fill="#1B3771"/>
<path fill-rule="evenodd" clip-rule="evenodd" d="M33.5139 20.6386L33.2406 22.2501C32.695 21.973 32.2979 21.8474 31.8515 21.8474C30.6854 21.8474 29.867 23.0055 29.867 24.6421C29.867 25.7753 30.4127 26.4548 31.3309 26.4548C31.7026 26.4548 32.1493 26.3292 32.6453 26.0776L32.3726 27.7641C31.8019 27.9152 31.4299 27.9911 31.008 27.9911C29.3214 27.9911 28.2794 26.7571 28.2794 24.7684C28.2794 22.1245 29.7181 20.2611 31.777 20.2611C32.0497 20.2611 32.2976 20.2863 32.4961 20.3366L33.1165 20.4878C33.3154 20.5633 33.365 20.5885 33.5139 20.6386ZM28.5027 21.7466H28.3538C27.8332 21.7466 27.5354 21.9985 27.0639 22.7284L27.2128 21.7967H25.7986L24.8316 27.8396H26.3948C26.965 24.1384 27.1139 23.5089 27.8581 23.5089H27.9573C28.1062 22.7788 28.3045 22.2498 28.5526 21.7715L28.5027 21.7466ZM19.5229 27.7641C19.1013 27.9152 18.7539 27.9656 18.4067 27.9656C17.6129 27.9656 17.1662 27.5125 17.1662 26.6315C17.1662 26.4803 17.191 26.2791 17.2158 26.1025L17.3151 25.4983L17.3896 25.0203L18.0593 20.8905H19.5974L19.4236 21.797H20.2175L20.0189 23.2825H19.2251L18.8035 25.8005C18.7787 25.9013 18.7787 25.9771 18.7787 26.0524C18.7787 26.3547 18.9276 26.4806 19.2996 26.4806C19.4733 26.4806 19.6219 26.4806 19.7211 26.4302L19.5229 27.7641ZM13.5444 23.7105C13.5444 24.4661 13.8916 24.9945 14.7102 25.3975C15.3552 25.6998 15.4544 25.8002 15.4544 26.0521C15.4544 26.43 15.1815 26.606 14.5613 26.606C14.0901 26.606 13.6682 26.5307 13.1722 26.3796L12.9488 27.7641L13.0233 27.7896L13.2963 27.8399C13.3953 27.8648 13.5196 27.8903 13.7179 27.8903C14.065 27.9407 14.3628 27.9407 14.5613 27.9407C16.1984 27.9407 16.9677 27.311 16.9677 25.9265C16.9677 25.0952 16.6453 24.6167 15.8763 24.2394C15.2066 23.9372 15.1321 23.8619 15.1321 23.5848C15.1321 23.2576 15.4051 23.1065 15.9011 23.1065C16.1989 23.1065 16.6205 23.1317 17.0176 23.1821L17.2407 21.7973C16.8439 21.7217 16.2238 21.6714 15.8763 21.6714C14.1397 21.6711 13.5196 22.6027 13.5444 23.7105ZM45.3964 27.8399H43.9325L44.0072 27.2606C43.5854 27.7137 43.1386 27.9152 42.5679 27.9152C41.4269 27.9152 40.6827 26.9337 40.6827 25.423C40.6827 23.4085 41.8488 21.6962 43.2128 21.6962C43.8332 21.6962 44.2796 21.9733 44.7018 22.5272L45.0489 20.4122H46.587L45.3964 27.8399ZM43.1138 26.43C43.8335 26.43 44.3295 25.5738 44.3295 24.3903C44.3295 23.6097 44.0563 23.2067 43.5106 23.2067C42.816 23.2067 42.2955 24.0376 42.2955 25.2212C42.2955 26.0272 42.5682 26.43 43.1138 26.43ZM24.2856 27.7137C23.7397 27.8903 23.2436 27.9656 22.6731 27.9656C20.9366 27.9656 20.0435 27.0342 20.0435 25.2464C20.0435 23.1818 21.1847 21.6459 22.7476 21.6459C24.0375 21.6459 24.8558 22.502 24.8558 23.8364C24.8558 24.2898 24.8062 24.718 24.6573 25.3471H21.5818C21.557 25.423 21.557 25.4734 21.557 25.5237C21.557 26.2287 22.0285 26.5811 22.9213 26.5811C23.4918 26.5811 23.9878 26.4803 24.5338 26.2033L24.2856 27.7137ZM23.4174 24.1132V23.8112C23.4174 23.3077 23.1444 23.0307 22.6731 23.0307C22.1771 23.0307 21.8297 23.4085 21.6808 24.1132H23.4174ZM7.61562 27.8399H6.07757L6.97068 22.1242L4.96141 27.8399H3.89459L3.77051 22.1745L2.82806 27.8399H1.38928L2.60471 20.4122H4.83733L4.91178 25.02L6.3999 20.4122H8.83104L7.61562 27.8399ZM11.4607 25.1456C11.3118 25.1456 11.2374 25.1207 11.1133 25.1207C10.245 25.1207 9.7986 25.4479 9.7986 26.0521C9.7986 26.43 9.99713 26.6564 10.3443 26.6564C10.9892 26.6564 11.4359 26.0521 11.4607 25.1456ZM12.6017 27.8399H11.3115L11.3364 27.2102C10.9393 27.7137 10.4184 27.9407 9.69904 27.9407C8.85557 27.9407 8.28508 27.2861 8.28508 26.304C8.28508 24.8188 9.27716 23.9626 11.0137 23.9626C11.1875 23.9626 11.4108 23.9878 11.6587 24.0127C11.7083 23.8115 11.7083 23.7359 11.7083 23.6352C11.7083 23.2325 11.4353 23.0813 10.7159 23.0813C10.2695 23.0813 9.7732 23.1317 9.42606 23.2325L9.20271 23.308L9.05381 23.3332L9.27716 21.9736C10.0462 21.7469 10.567 21.6714 11.1378 21.6714C12.4773 21.6714 13.1967 22.2756 13.1967 23.4337C13.1967 23.7359 13.1719 23.9626 13.0726 24.6424L12.7252 26.7829L12.6756 27.1601L12.6508 27.4624L12.6259 27.6894L12.6017 27.8399ZM36.0195 25.1456C35.8455 25.1456 35.7713 25.1207 35.6724 25.1207C34.7793 25.1207 34.3323 25.4479 34.3323 26.0521C34.3323 26.43 34.5559 26.6564 34.903 26.6564C35.5235 26.6564 35.9944 26.0521 36.0195 25.1456ZM37.1605 27.8399H35.8706L35.8951 27.2102C35.4984 27.7137 34.9775 27.9407 34.2581 27.9407C33.4146 27.9407 32.8439 27.2861 32.8439 26.304C32.8439 24.8188 33.8359 23.9626 35.5725 23.9626C35.7465 23.9626 35.9699 23.9878 36.1929 24.0127C36.2426 23.8115 36.2677 23.7359 36.2677 23.6352C36.2677 23.2325 35.9944 23.0813 35.2756 23.0813C34.8286 23.0813 34.308 23.1317 33.9606 23.2325L33.7621 23.308L33.6132 23.3332L33.8362 21.9736C34.6055 21.7469 35.1261 21.6714 35.6969 21.6714C37.0364 21.6714 37.731 22.2756 37.731 23.4337C37.731 23.7359 37.731 23.9626 37.6072 24.6424L37.2846 26.7829L37.2349 27.1601L37.1853 27.4624L37.1608 27.6894L37.1605 27.8399ZM41.3279 21.7466H41.179C40.6585 21.7466 40.3607 21.9985 39.8891 22.7284L40.038 21.7967H38.6238L37.681 27.8396H39.2191C39.7899 24.1384 39.9388 23.5089 40.683 23.5089H40.7822C40.9311 22.7788 41.1294 22.2498 41.3775 21.7715L41.3279 21.7466Z" fill="white"/>
</g>
</svg>
