<svg width="48" height="48" viewBox="0 0 48 48" fill="none" xmlns="http://www.w3.org/2000/svg">
<mask id="mask0_1535_75665" style="mask-type:alpha" maskUnits="userSpaceOnUse" x="0" y="0" width="48" height="48">
<rect width="48" height="48" fill="white"/>
</mask>
<g mask="url(#mask0_1535_75665)">
<path d="M19.6037 48C18.7917 48 17.9979 47.7621 17.3226 47.3162C16.6473 46.8703 16.1209 46.2364 15.8098 45.4948L1.64555 11.6826C1.22941 10.689 1.22939 9.57276 1.64551 8.57924C2.06163 7.58572 2.8598 6.79632 3.86445 6.38469L18.7 0.30882C19.1975 0.104982 19.7306 4.4166e-05 20.2691 1.39384e-08C20.8075 -4.41381e-05 21.3407 0.104806 21.8381 0.308563C22.3356 0.512319 22.7876 0.810989 23.1683 1.18751C23.549 1.56404 23.851 2.01104 24.0569 2.50298L38.2212 36.3166C38.6366 37.3099 38.6363 38.4256 38.2202 39.4187C37.8042 40.4117 37.0064 41.2007 36.0023 41.6124L21.1667 47.691C20.6713 47.8946 20.1401 47.9996 19.6037 48ZM20.2694 2.18148C20.021 2.18148 19.7747 2.23019 19.5452 2.32553L4.70895 8.4014C4.47931 8.49546 4.27067 8.63332 4.09493 8.80713C3.91919 8.98093 3.7798 9.18727 3.68471 9.41435C3.58963 9.64143 3.54071 9.88482 3.54076 10.1306C3.54081 10.3764 3.58982 10.6197 3.685 10.8468L17.8492 44.6611C18.0418 45.1193 18.4103 45.4833 18.8739 45.6733C19.3375 45.8632 19.8583 45.8636 20.3222 45.6743L35.1578 39.5943C35.3874 39.5002 35.596 39.3623 35.7718 39.1885C35.9475 39.0147 36.0869 38.8084 36.182 38.5813C36.2771 38.3542 36.326 38.1109 36.326 37.8651C36.3259 37.6193 36.2769 37.3759 36.1817 37.1489L22.0175 3.33806C21.8741 2.99617 21.6316 2.7039 21.3205 2.49808C21.0094 2.29226 20.6437 2.1821 20.2694 2.18148Z" fill="#5A78FF"/>
<path opacity="0.7" d="M22.9522 5.56841L24.9918 4.733L30.6 18.1213L28.5604 18.9567L22.9522 5.56841Z" fill="url(#paint0_linear_1535_75665)"/>
<path opacity="0.7" d="M37.2795 34.0677L35.2399 34.9031L28.8918 19.748L30.9314 18.9126L37.2795 34.0677Z" fill="url(#paint1_linear_1535_75665)"/>
<path d="M32.6632 24.8578C28.4203 26.5975 24.8777 28.9956 22.5582 31.8864L16.5778 17.6038C19.3057 14.4698 22.7779 12.0546 26.6828 10.5752C30.9257 8.83548 35.2122 7.99345 38.854 8.48405L44.8358 22.7659C40.6657 22.4554 36.4829 23.1742 32.6632 24.8578Z" fill="#5A78FF"/>
<g opacity="0.4">
<path opacity="0.9" d="M32.6632 24.8578C28.4203 26.5975 24.8777 28.9956 22.5582 31.8864L16.5778 17.6038C19.3057 14.4698 22.7779 12.0546 26.6828 10.5752C30.9257 8.83548 35.2122 7.99345 38.854 8.48405L44.8358 22.7659C40.6657 22.4554 36.4829 23.1742 32.6632 24.8578Z" fill="url(#paint2_linear_1535_75665)"/>
<path opacity="0.7" d="M32.6632 24.8578C28.4203 26.5975 24.8777 28.9956 22.5582 31.8864L16.5778 17.6038C19.3057 14.4698 22.7779 12.0546 26.6828 10.5752C30.9257 8.83548 35.2122 7.99345 38.854 8.48405L44.8358 22.7659C40.6657 22.4554 36.4829 23.1742 32.6632 24.8578Z" fill="url(#paint3_linear_1535_75665)"/>
</g>
<path d="M34.6119 29.2121C30.0193 29.2121 25.8151 30.0897 22.5568 31.8809V17.4397C26.2898 15.5769 30.4321 14.6599 34.6119 14.7709C39.2045 14.7709 43.491 15.6129 46.6663 17.4431V31.8844C42.934 30.0201 38.7918 29.1019 34.6119 29.2121Z" fill="#5A78FF"/>
</g>
<defs>
<linearGradient id="paint0_linear_1535_75665" x1="539.967" y1="634.805" x2="751.293" y2="102.569" gradientUnits="userSpaceOnUse">
<stop stop-color="#504678"/>
<stop offset="0.302" stop-color="#504678" stop-opacity="0.616"/>
<stop offset="0.608" stop-color="#504678" stop-opacity="0.283"/>
<stop offset="0.852" stop-color="#504678" stop-opacity="0.076"/>
<stop offset="1" stop-color="#504678" stop-opacity="0"/>
</linearGradient>
<linearGradient id="paint1_linear_1535_75665" x1="-519.416" y1="-689.897" x2="-778.072" y2="-139.592" gradientUnits="userSpaceOnUse">
<stop stop-color="#504678"/>
<stop offset="0.302" stop-color="#504678" stop-opacity="0.616"/>
<stop offset="0.608" stop-color="#504678" stop-opacity="0.283"/>
<stop offset="0.852" stop-color="#504678" stop-opacity="0.076"/>
<stop offset="1" stop-color="#504678" stop-opacity="0"/>
</linearGradient>
<linearGradient id="paint2_linear_1535_75665" x1="859.084" y1="1110.09" x2="3505.76" y2="518.513" gradientUnits="userSpaceOnUse">
<stop stop-color="#504678"/>
<stop offset="0.179" stop-color="#504678" stop-opacity="0.872"/>
<stop offset="0.526" stop-color="#504678" stop-opacity="0.536"/>
<stop offset="1" stop-color="#504678" stop-opacity="0"/>
</linearGradient>
<linearGradient id="paint3_linear_1535_75665" x1="2951.02" y1="589.117" x2="2840.04" y2="298.075" gradientUnits="userSpaceOnUse">
<stop stop-color="#504678"/>
<stop offset="0.643" stop-color="#504678" stop-opacity="0.332"/>
<stop offset="1" stop-color="#504678" stop-opacity="0"/>
</linearGradient>
</defs>
</svg>
