<svg width="48" height="48" viewBox="0 0 48 48" fill="none" xmlns="http://www.w3.org/2000/svg">
<mask id="mask0_1535_75618" style="mask-type:alpha" maskUnits="userSpaceOnUse" x="0" y="0" width="48" height="48">
<rect width="48" height="48" fill="white"/>
</mask>
<g mask="url(#mask0_1535_75618)">
<path d="M15.7572 43.4547L16.5159 38.8599L14.826 38.8225H6.75629L12.3643 4.91759C12.381 4.814 12.4362 4.71957 12.5198 4.65153C12.6034 4.58349 12.7099 4.54636 12.8198 4.54691H26.4264C30.9436 4.54691 34.0609 5.44319 35.6885 7.21223C36.4515 8.04211 36.9374 8.90934 37.1724 9.86371C37.419 10.8651 37.4234 12.0615 37.1826 13.5207L37.1652 13.6272V14.5622L37.9282 14.9744C38.5107 15.2558 39.0343 15.6364 39.4731 16.0975C40.1259 16.8071 40.548 17.7089 40.7264 18.7781C40.9106 19.8777 40.8497 21.1861 40.548 22.6674C40.1998 24.3715 39.637 25.8556 38.8769 27.07C38.2062 28.1579 37.3045 29.1001 36.2295 29.8363C35.2199 30.5195 34.0203 31.0382 32.664 31.3702C31.3497 31.6966 29.8513 31.8612 28.2077 31.8612H27.1488C26.3916 31.8612 25.6561 32.1212 25.0788 32.5873C24.5023 33.0584 24.1198 33.7093 23.9995 34.4242L23.9198 34.8377L22.5794 42.936L22.5185 43.2334C22.5025 43.3274 22.475 43.3745 22.4344 43.4063C22.395 43.437 22.3459 43.454 22.2951 43.4547H15.7572Z" fill="#253B80"/>
<path d="M38.651 13.7349C38.6104 13.9825 38.564 14.2356 38.5118 14.4956C36.7174 23.28 30.5785 26.3146 22.738 26.3146H18.7459C17.7871 26.3146 16.9791 26.9785 16.8297 27.8803L14.7858 40.2401L14.207 43.7436C14.1839 43.8825 14.1927 44.0246 14.2328 44.16C14.2729 44.2954 14.3432 44.421 14.439 44.528C14.5348 44.635 14.6538 44.7209 14.7878 44.7799C14.9218 44.8388 15.0676 44.8694 15.2152 44.8694H22.2955C23.134 44.8694 23.8462 44.2885 23.9782 43.5001L24.0479 43.1571L25.381 35.0906L25.4666 34.648C25.5971 33.8569 26.3108 33.2759 27.1492 33.2759H28.2082C35.0681 33.2759 40.4382 30.6203 42.0077 22.9356C42.6634 19.7253 42.324 17.0448 40.589 15.1595C40.0392 14.5764 39.3824 14.0936 38.651 13.7349Z" fill="#179BD7"/>
<path d="M36.7747 13.0218C36.2018 12.8638 35.6189 12.7404 35.0297 12.6525C33.8653 12.4819 32.6885 12.4 31.5105 12.4077H20.8457C20.4398 12.4074 20.0472 12.5456 19.7389 12.7972C19.4305 13.0488 19.2268 13.3974 19.1645 13.7798L16.8957 27.4812L16.8304 27.8809C16.9011 27.4447 17.1332 27.0471 17.4847 26.7599C17.8361 26.4727 18.2838 26.315 18.7467 26.3152H22.7387C30.5792 26.3152 36.7182 23.2792 38.5125 14.4962C38.5662 14.2362 38.6112 13.9831 38.6518 13.7355C38.1783 13.4988 37.6848 13.3003 37.1765 13.1421C37.0433 13.1 36.9093 13.0599 36.7747 13.0218Z" fill="#222D65"/>
<path d="M19.1635 13.7792C19.2253 13.3967 19.429 13.048 19.7375 12.7965C20.046 12.545 20.4389 12.4073 20.8448 12.4085H31.5096C32.773 12.4085 33.9524 12.4874 35.0287 12.6533C35.7571 12.7625 36.4754 12.9257 37.1771 13.1416C37.7065 13.3089 38.1983 13.5067 38.6523 13.7349C39.1861 10.4887 38.648 8.27846 36.8071 6.27705C34.7778 4.0737 31.115 3.1304 26.4281 3.1304H12.8215C11.8641 3.1304 11.0474 3.79431 10.8995 4.6975L5.23197 38.951C5.20557 39.11 5.21561 39.2726 5.26141 39.4276C5.3072 39.5826 5.38766 39.7263 5.49725 39.8488C5.60684 39.9713 5.74295 40.0697 5.89623 40.1372C6.04952 40.2048 6.21633 40.2399 6.38519 40.2401H14.7856L16.8948 27.4806L19.1635 13.7792Z" fill="#253B80"/>
</g>
</svg>
