<svg width="48" height="48" viewBox="0 0 48 48" fill="none" xmlns="http://www.w3.org/2000/svg">
<mask id="mask0_1535_75648" style="mask-type:alpha" maskUnits="userSpaceOnUse" x="0" y="0" width="48" height="48">
<rect width="48" height="48" fill="white"/>
</mask>
<g mask="url(#mask0_1535_75648)">
<path fill-rule="evenodd" clip-rule="evenodd" d="M3.47623 37.3336C13.2746 33.1059 27.0231 29.2738 45.2319 33.1108L45.4228 28.461C26.2117 26.3492 12.4269 32.5095 3.47623 36.8753V37.3336Z" fill="#E7A83A"/>
<path fill-rule="evenodd" clip-rule="evenodd" d="M13.7231 25.0737L17.9698 10.9759H21.7591L17.5121 25.0737H13.7231ZM12.0292 10.9798L8.62071 16.9558C7.75301 18.521 7.24583 19.3115 7.00193 20.3006H6.95004C7.0104 19.0467 6.8367 17.5074 6.82031 16.6374L6.44395 10.9798H0.0655486L0 11.3589C1.63871 11.3589 2.61047 12.1877 2.87785 13.883L4.12108 25.0737H8.04661L15.984 10.9798H12.0292ZM41.4962 25.0737L41.3916 22.977L36.6601 22.9731L35.6925 25.0734H31.5788L39.0379 11.0026H44.0873L45.3505 25.0734L41.4962 25.0737ZM41.0617 16.7578C41.0196 15.7159 40.9844 14.3017 41.0549 13.446H40.9989C40.7684 14.1458 39.7778 16.2475 39.3421 17.2811L37.9323 20.3713H41.2545L41.0617 16.7578ZM25.737 25.4743C23.0618 25.4743 21.2866 24.6199 20.019 23.8583L21.8241 21.0829C22.9619 21.7236 23.8552 22.463 25.9107 22.463C26.5717 22.463 27.2086 22.2901 27.5702 21.6595C28.0973 20.7425 27.4487 20.2492 25.9684 19.4056L25.2375 18.9271C23.0433 17.4175 22.0942 15.9838 23.1271 13.4809C23.7881 11.88 25.5314 10.6666 28.4073 10.6666C30.3907 10.6666 32.2501 11.5303 33.3335 12.3742L31.2584 14.8245C30.2012 13.9635 29.3247 13.528 28.3218 13.528C27.5221 13.528 26.9147 13.8384 26.705 14.2572C26.3103 15.0444 26.8325 15.5812 27.9856 16.3019L28.8547 16.8585C31.5187 18.5501 32.1534 20.324 31.4856 21.9824C30.3374 24.8369 28.0891 25.4743 25.737 25.4743ZM46.387 13.1565H46.1373V11.6281H46.7133C47.0799 11.6281 47.2669 11.7574 47.2669 12.0676C47.2669 12.3442 47.0979 12.4586 46.8707 12.4844L47.2959 13.1565H47.0138L46.6216 12.5031H46.387V13.1565ZM46.6653 12.2889C46.8526 12.2889 47.0173 12.2705 47.0173 12.0489C47.0173 11.8644 46.8376 11.8421 46.6877 11.8421H46.3867V12.2889H46.6653ZM46.6579 13.7471C45.8699 13.7471 45.309 13.1529 45.309 12.3665C45.309 11.5358 45.9319 10.9858 46.6579 10.9858C47.377 10.9858 48 11.5358 48 12.3665C48 13.1969 47.377 13.7471 46.6579 13.7471ZM46.6579 11.2259C46.0641 11.2259 45.6023 11.6944 45.6023 12.3665C45.6023 12.994 46.0057 13.5071 46.6579 13.5071C47.2446 13.5071 47.7067 13.0421 47.7067 12.3665C47.7067 11.6944 47.2446 11.2259 46.6579 11.2259Z" fill="#1D5B99"/>
</g>
</svg>
