<svg width="40" height="40" viewBox="0 0 40 40" fill="none" xmlns="http://www.w3.org/2000/svg">
<path d="M20 40C31.0457 40 40 31.0457 40 20C40 8.9543 31.0457 0 20 0C8.9543 0 0 8.9543 0 20C0 31.0457 8.9543 40 20 40Z" fill="#E1F5FE"/>
<path d="M19.9991 34.091C27.7813 34.091 34.09 27.7823 34.09 20.0001C34.09 12.2179 27.7813 5.90918 19.9991 5.90918C12.2169 5.90918 5.9082 12.2179 5.9082 20.0001C5.9082 27.7823 12.2169 34.091 19.9991 34.091Z" fill="#B3E5FC"/>
<path d="M24.9991 14.6047C24.9991 18.322 22.7264 21.3347 20.4537 21.3347C18.1809 21.3347 15.9082 18.322 15.9082 14.6047C15.9082 10.8865 17.9437 8.83472 20.4537 8.83472C22.9637 8.83472 24.9991 10.8874 24.9991 14.6047Z" fill="#FFECB3"/>
<path d="M17.7273 19.9004V21.7868C17.7273 22.5422 17.1555 23.2258 16.4636 23.5286L12.2782 25.3604C11.6009 25.6564 11.0246 26.1436 10.6199 26.7622C10.2153 27.3808 9.99985 28.1039 10 28.8431V29.924C10.9152 30.8436 11.9528 31.6326 13.0836 32.2686L26.9482 32.2495C28.4624 31.3911 29.8052 30.2607 30.9091 28.9149V28.8422C30.9091 28.1031 30.6936 27.3799 30.289 26.7613C29.8844 26.1428 29.3082 25.6556 28.6309 25.3595L24.4455 23.5277C23.7527 23.2249 23.1818 22.5413 23.1818 21.7858V20.0495L17.7273 19.9004Z" fill="#FFECB3"/>
<path d="M12.6415 26.647C12.5372 26.6469 12.4361 26.6109 12.3551 26.545C12.2742 26.4792 12.2184 26.3875 12.1971 26.2853C12.1758 26.1832 12.1902 26.0769 12.238 25.9841C12.2859 25.8914 12.3641 25.8179 12.4597 25.7761L16.6461 23.9443C17.5642 23.5415 18.1815 22.6743 18.1815 21.7861C18.1815 21.6655 18.2294 21.5499 18.3146 21.4647C18.3999 21.3794 18.5155 21.3315 18.6361 21.3315C18.7566 21.3315 18.8722 21.3794 18.9575 21.4647C19.0427 21.5499 19.0906 21.6655 19.0906 21.7861C19.0906 23.0306 18.2551 24.2325 17.0106 24.777L12.8242 26.6088C12.7665 26.6338 12.7044 26.6468 12.6415 26.647Z" fill="white"/>
<path d="M29.5822 26.4099C29.4739 26.4098 29.3692 26.3711 29.2868 26.3008C29.036 26.0853 28.7544 25.9085 28.4513 25.7762L24.265 23.9444C23.3459 23.5426 22.7286 22.6753 22.7286 21.7862V20.0499C22.7286 19.9293 22.7765 19.8137 22.8617 19.7284C22.947 19.6432 23.0626 19.5953 23.1832 19.5953C23.3037 19.5953 23.4193 19.6432 23.5046 19.7284C23.5898 19.8137 23.6377 19.9293 23.6377 20.0499V21.7862C23.6377 22.3117 24.045 22.8571 24.6286 23.1117L28.8141 24.9435C29.1995 25.1117 29.5568 25.3362 29.8777 25.6099C29.9483 25.6703 29.9987 25.7508 30.0222 25.8408C30.0456 25.9307 30.0409 26.0256 30.0087 26.1128C29.9765 26.2 29.9184 26.2752 29.8421 26.3283C29.7659 26.3814 29.6752 26.4099 29.5822 26.4099ZM12.2795 25.8144C12.1741 25.8164 12.0712 25.7815 11.9887 25.7158C11.9063 25.65 11.8493 25.5575 11.8278 25.4543C11.8062 25.351 11.8214 25.2435 11.8707 25.1502C11.92 25.057 12.0003 24.9839 12.0977 24.9435L16.2832 23.1117C16.8668 22.8562 17.2741 22.3108 17.2741 21.7862V19.8999C17.2741 19.7793 17.322 19.6637 17.4072 19.5784C17.4924 19.4932 17.6081 19.4453 17.7286 19.4453C17.8492 19.4453 17.9648 19.4932 18.05 19.5784C18.1353 19.6637 18.1832 19.7793 18.1832 19.8999V21.7862C18.1832 22.6753 17.5659 23.5426 16.6477 23.9444L12.4622 25.7762C12.4045 25.8011 12.3424 25.8141 12.2795 25.8144Z" fill="#0277BD"/>
<path d="M31.1704 29.0478C31.0855 29.048 31.0022 29.0243 30.93 28.9795C30.8578 28.9347 30.7996 28.8705 30.762 28.7943C30.7245 28.7181 30.709 28.6329 30.7174 28.5484C30.7258 28.4638 30.7577 28.3833 30.8095 28.316C32.6529 25.9366 33.6487 23.0096 33.6386 19.9996C33.6386 12.4806 27.5213 6.36328 20.0022 6.36328C16.9613 6.36328 14.0841 7.34237 11.6841 9.19328C11.6368 9.22975 11.5829 9.25657 11.5253 9.27219C11.4678 9.28782 11.4077 9.29195 11.3485 9.28435C11.2893 9.27676 11.2322 9.25758 11.1804 9.22791C11.1287 9.19825 11.0833 9.15868 11.0468 9.11146C11.0103 9.06424 10.9835 9.01031 10.9679 8.95273C10.9523 8.89515 10.9481 8.83506 10.9557 8.77588C10.9633 8.7167 10.9825 8.6596 11.0122 8.60784C11.0418 8.55607 11.0814 8.51066 11.1286 8.47419C13.6669 6.50606 16.7903 5.44305 20.0022 5.45419C28.0222 5.45419 34.5477 11.9796 34.5477 19.9996C34.5477 23.2406 33.505 26.3087 31.5313 28.8706C31.4888 28.9258 31.4341 28.9705 31.3715 29.0013C31.309 29.032 31.2402 29.0479 31.1704 29.0478Z" fill="#0277BD"/>
<path d="M30.5723 28.3275C30.4878 28.3279 30.4049 28.3046 30.3329 28.2605C30.2609 28.2163 30.2027 28.1528 30.1648 28.0773C30.1269 28.0018 30.1108 27.9172 30.1184 27.8331C30.126 27.749 30.1569 27.6686 30.2077 27.6011C31.85 25.408 32.7339 22.74 32.7259 20.0002C32.7259 12.982 27.0168 7.27294 19.9986 7.27294C17.1532 7.27294 14.4623 8.19112 12.2168 9.92839C12.1212 9.99758 12.0023 10.0268 11.8855 10.0099C11.7686 9.99306 11.6629 9.93137 11.5907 9.83793C11.5186 9.7445 11.4856 9.62664 11.4988 9.50932C11.5119 9.39199 11.5703 9.28439 11.6614 9.2093C14.0442 7.35549 16.9796 6.35367 19.9986 6.36385C27.5177 6.36385 33.635 12.4811 33.635 20.0002C33.6436 22.9361 32.6962 25.795 30.9359 28.1448C30.8939 28.2016 30.8391 28.2478 30.7759 28.2796C30.7128 28.3113 30.643 28.3277 30.5723 28.3275Z" fill="#E1F5FE"/>
<path d="M16.8178 15.0588C16.6973 15.0588 16.5817 15.0109 16.4964 14.9257C16.4112 14.8404 16.3633 14.7248 16.3633 14.6043C16.3633 11.3752 17.9696 9.28882 20.4542 9.28882C20.5747 9.28882 20.6904 9.33671 20.7756 9.42195C20.8608 9.5072 20.9087 9.62281 20.9087 9.74336C20.9087 9.86392 20.8608 9.97953 20.7756 10.0648C20.6904 10.15 20.5747 10.1979 20.4542 10.1979C18.5215 10.1979 17.2724 11.927 17.2724 14.6043C17.2724 14.7248 17.2245 14.8404 17.1392 14.9257C17.054 15.0109 16.9384 15.0588 16.8178 15.0588Z" fill="white"/>
<path d="M20.4561 21.7901C20.2779 21.7901 20.0997 21.7738 19.9224 21.7429C19.8075 21.718 19.7068 21.6496 19.6413 21.552C19.5758 21.4544 19.5506 21.3352 19.5711 21.2195C19.5915 21.1037 19.656 21.0004 19.751 20.9312C19.846 20.862 19.9642 20.8323 20.0806 20.8483C22.1261 21.2129 24.547 18.4301 24.547 14.6056C24.547 11.4265 22.9024 9.29013 20.4561 9.29013C18.0097 9.29013 16.3651 11.4265 16.3651 14.6056C16.3651 16.4956 17.0088 18.361 18.0879 19.5947C18.1672 19.6856 18.2072 19.8043 18.199 19.9246C18.1908 20.045 18.1351 20.1572 18.0442 20.2365C17.9533 20.3158 17.8347 20.3558 17.7143 20.3476C17.5939 20.3394 17.4817 20.2838 17.4024 20.1929C16.1651 18.7774 15.4561 16.741 15.4561 14.6047C15.4561 10.3056 17.9679 8.38013 20.4561 8.38013C22.9442 8.38013 25.4561 10.3047 25.4561 14.6047C25.4561 18.4319 23.1197 21.7901 20.4561 21.7901Z" fill="#007DF1"/>
<path d="M15.6569 31.4416L8.5587 24.3425C6.65415 22.4407 7.0587 19.1434 9.23051 17.5962L11.2242 16.1762C11.5004 15.9787 11.6977 15.6896 11.7811 15.3605C11.8645 15.0313 11.8285 14.6832 11.6796 14.378L7.87142 6.47526C7.2187 5.12436 5.43142 4.81163 4.38051 5.86617L2.71324 7.53617C1.21597 9.03799 0.402333 11.1371 0.657787 13.2553C2.29961 26.8607 13.1387 37.7007 26.7442 39.3407C28.8623 39.5962 30.9605 38.7834 32.4623 37.2862L34.1342 35.6189C35.1878 34.5689 34.8751 32.7798 33.5232 32.128L25.6187 28.3198C25.3137 28.1712 24.966 28.1354 24.6372 28.2188C24.3083 28.3022 24.0197 28.4993 23.8223 28.7753L22.4014 30.7689C20.856 32.9416 17.5578 33.3453 15.6569 31.4416Z" fill="#007DF1"/>
<path d="M27.5186 39.842C27.2431 39.842 26.9668 39.8256 26.6895 39.792C19.9436 38.9909 13.6633 35.9433 8.85962 31.1398C4.05591 26.3362 1.00812 20.0561 0.206788 13.3102C-0.0568481 11.1311 0.759516 8.85201 2.39042 7.21565L4.05861 5.54565C4.29897 5.30296 4.58517 5.11048 4.90058 4.97938C5.21599 4.84829 5.55431 4.7812 5.89588 4.78201C6.3942 4.7797 6.8829 4.91915 7.30496 5.1841C7.72702 5.44905 8.06501 5.82857 8.27951 6.27837L12.0877 14.182C12.2837 14.5836 12.3308 15.0417 12.2208 15.4749C12.1108 15.908 11.8507 16.2881 11.4868 16.5475L9.49315 17.9675C8.52406 18.6584 7.90951 19.7584 7.8077 20.9856C7.71224 22.1402 8.10224 23.2456 8.87951 24.022L15.9777 31.1211C16.6777 31.822 17.6322 32.2065 18.6686 32.2065C20.0168 32.2065 21.2741 31.5711 22.0322 30.5065L23.4531 28.5129C23.9722 27.7829 25.0041 27.5193 25.8177 27.912L33.7213 31.7202C34.1023 31.9038 34.4337 32.176 34.6879 32.514C34.942 32.852 35.1115 33.246 35.1822 33.6629C35.2545 34.0734 35.2261 34.4954 35.0994 34.8925C34.9727 35.2896 34.7516 35.6501 34.455 35.9429L32.7841 37.6102C31.3586 39.0284 29.4404 39.842 27.5186 39.842ZM5.89588 5.6911C5.67394 5.69051 5.4541 5.7341 5.24917 5.81931C5.04424 5.90453 4.85832 6.02968 4.70224 6.18746L3.03406 7.85837C1.59861 9.29837 0.878606 11.2956 1.10861 13.202C1.88634 19.7459 4.84302 25.8378 9.50287 30.4974C14.1627 35.1571 20.2547 38.1136 26.7986 38.8911C28.7431 39.1211 30.7086 38.3938 32.1422 36.9656L33.8131 35.2984C34.0063 35.1077 34.1502 34.873 34.2326 34.6144C34.3149 34.3558 34.3332 34.0811 34.2859 33.8138C34.2411 33.5396 34.1304 33.2804 33.9634 33.0584C33.7963 32.8364 33.5779 32.6582 33.3268 32.5393L25.4222 28.7311C25.213 28.6333 24.9764 28.6108 24.7525 28.6672C24.5286 28.7237 24.331 28.8558 24.1931 29.0411L22.7722 31.0347C21.8441 32.3384 20.3104 33.1166 18.6677 33.1166C17.3895 33.1166 16.205 32.6366 15.3341 31.7647L8.23588 24.6656C7.26952 23.7002 6.78224 22.3329 6.90042 20.9111C7.02497 19.4156 7.7777 18.0738 8.96497 17.2275L10.9586 15.8075C11.1476 15.6722 11.2825 15.4742 11.3393 15.2488C11.396 15.0234 11.371 14.7852 11.2686 14.5766L7.46042 6.67383C7.31988 6.37836 7.0981 6.12902 6.82103 5.95499C6.54397 5.78095 6.22307 5.68942 5.89588 5.6911Z" fill="#0277BD"/>
<path d="M10.0006 30.8056C9.88112 30.8056 9.7665 30.7586 9.68146 30.6747C4.95146 26.0247 1.90601 19.8193 1.10782 13.2002C0.876914 11.2956 1.59691 9.29746 3.03237 7.85746L4.70146 6.18564C4.85763 6.02829 5.04346 5.90348 5.24819 5.81844C5.45293 5.73339 5.67249 5.6898 5.89419 5.69019C6.01474 5.69019 6.13036 5.73808 6.2156 5.82332C6.30084 5.90857 6.34873 6.02418 6.34873 6.14473C6.34873 6.26529 6.30084 6.3809 6.2156 6.46615C6.13036 6.55139 6.01474 6.59928 5.89419 6.59928C5.79206 6.59929 5.69096 6.61954 5.59671 6.65886C5.50246 6.69818 5.41694 6.75579 5.3451 6.82837L3.67691 8.50019C2.43691 9.74473 1.81328 11.462 2.01055 13.0929C2.7851 19.5075 5.73601 25.5211 10.3196 30.0275C10.3838 30.0908 10.4278 30.1717 10.4458 30.2601C10.4639 30.3484 10.4552 30.4401 10.421 30.5235C10.3868 30.607 10.3286 30.6783 10.2537 30.7286C10.1788 30.7788 10.0907 30.8056 10.0006 30.8056Z" fill="#E8EAF6"/>
<path d="M9.1359 17.3779C9.05037 17.378 8.96656 17.354 8.89416 17.3084C8.82175 17.2629 8.76373 17.1978 8.72681 17.1206L4.91772 9.217C4.8889 9.16296 4.8713 9.10366 4.86598 9.04264C4.86065 8.98163 4.86771 8.92017 4.88674 8.86196C4.90576 8.80375 4.93634 8.74997 4.97666 8.70388C5.01698 8.65778 5.0662 8.6203 5.12137 8.5937C5.17653 8.5671 5.2365 8.55192 5.29768 8.54908C5.35886 8.54623 5.41998 8.55578 5.47737 8.57714C5.53477 8.59851 5.58726 8.63125 5.63168 8.67341C5.67611 8.71556 5.71156 8.76626 5.7359 8.82246L9.54499 16.7261C9.57836 16.7954 9.59361 16.8719 9.58932 16.9487C9.58504 17.0255 9.56135 17.0999 9.52049 17.165C9.47962 17.2301 9.4229 17.2838 9.35564 17.321C9.28838 17.3583 9.21278 17.3778 9.1359 17.3779ZM30.9786 35.1252C30.9103 35.1252 30.8428 35.1097 30.7814 35.0797L22.8786 31.2725C22.7751 31.2172 22.6969 31.1241 22.6604 31.0125C22.624 30.901 22.6321 30.7797 22.6831 30.6739C22.734 30.5682 22.8239 30.4863 22.9339 30.4454C23.0439 30.4044 23.1655 30.4076 23.2732 30.4543L31.1759 34.2616C31.2684 34.3064 31.343 34.3812 31.3875 34.4739C31.432 34.5666 31.4438 34.6716 31.4209 34.7719C31.398 34.8721 31.3418 34.9616 31.2615 35.0258C31.1812 35.09 31.0814 35.125 30.9786 35.1252Z" fill="#005A8F"/>
</svg>
