<svg width="40" height="40" viewBox="0 0 40 40" fill="none" xmlns="http://www.w3.org/2000/svg">
<path d="M22.0002 26.733C25.7665 26.733 28.8196 23.7297 28.8196 20.025C28.8196 16.3202 25.7665 13.3169 22.0002 13.3169C18.2339 13.3169 15.1807 16.3202 15.1807 20.025C15.1807 23.7297 18.2339 26.733 22.0002 26.733Z" fill="#E62415"/>
<path d="M30.1038 28.3459C28.0528 30.1616 25.3352 31.1703 22.3613 31.1703C20.8505 31.2124 19.3469 30.9499 17.9431 30.3989C16.5394 29.8479 15.2651 29.0201 14.1987 27.9665C13.1324 26.9129 12.2966 25.6557 11.7428 24.2724C11.1889 22.8891 10.9288 21.4089 10.9784 19.9229C10.9784 13.4166 15.6444 8.87732 22.3613 8.87732C25.284 8.87732 28.0528 9.83562 30.155 11.6513L31.5907 12.8618L37.9487 6.60767L36.3592 5.19545C32.5089 1.81736 27.5205 -0.0339589 22.3613 0.00047176C10.5682 0.00047176 2.0054 8.37296 2.0054 19.8725C1.94274 22.5236 2.42566 25.1597 3.42515 27.6225C4.42464 30.0853 5.92005 32.3239 7.8215 34.2037C9.72294 36.0835 11.9912 37.5657 14.4898 38.5612C16.9885 39.5568 19.6659 40.045 22.3613 39.9967C27.7451 39.9967 32.77 38.1306 36.4618 34.7513L38 33.3391L31.5394 27.085L30.1038 28.3459Z" fill="#17313B"/>
</svg>
