<svg width="40" height="40" viewBox="0 0 40 40" fill="none" xmlns="http://www.w3.org/2000/svg">
<g clip-path="url(#clip0_1535_242748)">
<path d="M8.86484 24.1726L7.4725 29.3704L2.38352 29.478C0.862656 26.6572 0 23.4297 0 20.0001C0 16.6836 0.806562 13.5561 2.23625 10.8022H2.23734L6.76797 11.6329L8.75265 16.1363C8.33726 17.3473 8.11086 18.6473 8.11086 20.0001C8.11101 21.4682 8.37695 22.8748 8.86484 24.1726Z" fill="#FBBB00"/>
<path d="M39.6506 16.2637C39.8802 17.4735 40 18.723 40 19.9999C40 21.4318 39.8495 22.8285 39.5627 24.1758C38.5891 28.7604 36.0451 32.7637 32.5209 35.5966L32.5199 35.5955L26.8133 35.3044L26.0056 30.2626C28.3441 28.8912 30.1716 26.745 31.1342 24.1758H20.4397V16.2637H39.6506Z" fill="#518EF8"/>
<path d="M32.52 35.5957L32.5211 35.5968C29.0937 38.3517 24.7398 40 20.0003 40C12.3838 40 5.76184 35.7429 2.38379 29.4781L8.86512 24.1726C10.5541 28.6803 14.9025 31.8891 20.0003 31.8891C22.1914 31.8891 24.2443 31.2967 26.0057 30.2627L32.52 35.5957Z" fill="#28B446"/>
<path d="M32.7659 4.60438L26.2868 9.90875C24.4637 8.76922 22.3087 8.11094 20 8.11094C14.7868 8.11094 10.3571 11.467 8.75272 16.1363L2.23733 10.8022H2.23624C5.56483 4.38461 12.2703 0 20 0C24.8527 0 29.3022 1.72859 32.7659 4.60438Z" fill="#F14336"/>
</g>
<defs>
<clipPath id="clip0_1535_242748">
<rect width="40" height="40" fill="white"/>
</clipPath>
</defs>
</svg>
