<svg width="40" height="40" viewBox="0 0 40 40" fill="none" xmlns="http://www.w3.org/2000/svg">
<path d="M37.5 16.4001V33.7501C37.497 34.7438 37.101 35.6959 36.3984 36.3985C35.6958 37.1011 34.7436 37.4972 33.75 37.5001H6.25C5.25635 37.4972 4.30425 37.1011 3.60163 36.3985C2.89901 35.6959 2.50297 34.7438 2.5 33.7501V16.4001C2.49969 15.7599 2.6625 15.1301 2.97306 14.5702C3.28361 14.0104 3.73169 13.5388 4.275 13.2001L8.1625 11.1376C8.35231 11.0332 8.56616 10.9804 8.78275 10.9843C8.99934 10.9883 9.21112 11.0489 9.39698 11.1602C9.58285 11.2715 9.73633 11.4295 9.84213 11.6185C9.94793 11.8076 10.0024 12.021 10 12.2376V19.4376L17.4625 23.4626L20 24.8251L22.5375 23.4626L30 19.4376V12.2376C29.9976 12.021 30.0521 11.8076 30.1579 11.6185C30.2637 11.4295 30.4171 11.2715 30.603 11.1602C30.7889 11.0489 31.0007 10.9883 31.2172 10.9843C31.4338 10.9804 31.6477 11.0332 31.8375 11.1376L35.65 13.1626C36.2118 13.4965 36.6774 13.9702 37.0017 14.5376C37.3259 15.1049 37.4976 15.7466 37.5 16.4001Z" fill="#4294FF"/>
<path d="M37.5 16.4001V18.2501L20.5875 27.3501C20.4073 27.4486 20.2053 27.5002 20 27.5002C19.7947 27.5002 19.5927 27.4486 19.4125 27.3501L2.5 18.2501V16.4001C2.49969 15.7599 2.6625 15.1301 2.97306 14.5702C3.28361 14.0104 3.73169 13.5388 4.275 13.2001L8.1625 11.1376C8.35231 11.0332 8.56616 10.9804 8.78275 10.9843C8.99934 10.9883 9.21112 11.0489 9.39698 11.1602C9.58285 11.2715 9.73633 11.4295 9.84213 11.6185C9.94793 11.8076 10.0024 12.021 10 12.2376V19.4376L20 24.8251L30 19.4376V12.2376C29.9976 12.021 30.0521 11.8076 30.1579 11.6185C30.2637 11.4295 30.4171 11.2715 30.603 11.1602C30.7889 11.0489 31.0007 10.9883 31.2172 10.9843C31.4338 10.9804 31.6477 11.0332 31.8375 11.1376L35.65 13.1626C36.2118 13.4965 36.6774 13.9702 37.0017 14.5376C37.3259 15.1049 37.4976 15.7466 37.5 16.4001Z" fill="#376CFB"/>
<path d="M32.2375 37.5H6.25C5.25635 37.4971 4.30425 37.101 3.60163 36.3984C2.89901 35.6958 2.50297 34.7437 2.5 33.75V16.4C2.49842 15.8251 2.62957 15.2575 2.88324 14.7415C3.13691 14.2255 3.50625 13.775 3.9625 13.425C5.0625 21.55 10.2125 35.375 32.2375 37.5Z" fill="#2965ED"/>
<path d="M37.5 33.1001V33.7501C37.497 34.7437 37.101 35.6958 36.3984 36.3985C35.6958 37.1011 34.7436 37.4971 33.75 37.5001H6.25C5.25635 37.4971 4.30425 37.1011 3.60163 36.3985C2.89901 35.6958 2.50297 34.7437 2.5 33.7501V33.1001L16.15 23.5376C16.3412 23.4067 16.5645 23.3305 16.7958 23.3173C17.0271 23.304 17.2577 23.3543 17.4625 23.4626L20 24.8251L22.5375 23.4626C22.7423 23.3543 22.9729 23.304 23.2042 23.3173C23.4355 23.3305 23.6588 23.4067 23.85 23.5376L37.5 33.1001Z" fill="#376CFB"/>
<path d="M5.6 19.9125L2.5 18.25V16.4C2.49842 15.8251 2.62957 15.2575 2.88324 14.7415C3.13691 14.2255 3.50625 13.775 3.9625 13.425C4.25932 15.6429 4.80872 17.8195 5.6 19.9125ZM32.2375 37.5H6.25C5.25635 37.4971 4.30425 37.101 3.60163 36.3984C2.89901 35.6958 2.50297 34.7437 2.5 33.75V33.1L10.2375 27.6875C14.4125 32.4375 21.2125 36.4375 32.2375 37.5Z" fill="#2045CE"/>
<path d="M31.25 2.5H8.75C8.41848 2.5 8.10054 2.6317 7.86612 2.86612C7.6317 3.10054 7.5 3.41848 7.5 3.75V20.9337L19.4075 27.35C19.5895 27.4485 19.7931 27.5 20 27.5C20.2069 27.5 20.4105 27.4485 20.5925 27.35L32.5 20.9337V3.75C32.5 3.41848 32.3683 3.10054 32.1339 2.86612C31.8995 2.6317 31.5815 2.5 31.25 2.5Z" fill="#E6ECFF"/>
<path d="M24.325 25.3375L20.5875 27.35C20.4073 27.4485 20.2053 27.5001 20 27.5001C19.7947 27.5001 19.5927 27.4485 19.4125 27.35L7.5 20.9375V3.75C7.50099 3.41878 7.633 3.10142 7.86721 2.86721C8.10142 2.633 8.41879 2.50099 8.75 2.5H13.2875C13.875 9.6625 16.45 19.5375 24.325 25.3375Z" fill="#B7C6E2"/>
<path d="M26.25 10H13.75C13.4185 10 13.1005 9.8683 12.8661 9.63388C12.6317 9.39946 12.5 9.08152 12.5 8.75C12.5 8.41848 12.6317 8.10054 12.8661 7.86612C13.1005 7.6317 13.4185 7.5 13.75 7.5H26.25C26.5815 7.5 26.8995 7.6317 27.1339 7.86612C27.3683 8.10054 27.5 8.41848 27.5 8.75C27.5 9.08152 27.3683 9.39946 27.1339 9.63388C26.8995 9.8683 26.5815 10 26.25 10ZM26.25 15H13.75C13.4185 15 13.1005 14.8683 12.8661 14.6339C12.6317 14.3995 12.5 14.0815 12.5 13.75C12.5 13.4185 12.6317 13.1005 12.8661 12.8661C13.1005 12.6317 13.4185 12.5 13.75 12.5H26.25C26.5815 12.5 26.8995 12.6317 27.1339 12.8661C27.3683 13.1005 27.5 13.4185 27.5 13.75C27.5 14.0815 27.3683 14.3995 27.1339 14.6339C26.8995 14.8683 26.5815 15 26.25 15ZM26.25 20H13.75C13.4185 20 13.1005 19.8683 12.8661 19.6339C12.6317 19.3995 12.5 19.0815 12.5 18.75C12.5 18.4185 12.6317 18.1005 12.8661 17.8661C13.1005 17.6317 13.4185 17.5 13.75 17.5H26.25C26.5815 17.5 26.8995 17.6317 27.1339 17.8661C27.3683 18.1005 27.5 18.4185 27.5 18.75C27.5 19.0815 27.3683 19.3995 27.1339 19.6339C26.8995 19.8683 26.5815 20 26.25 20Z" fill="#4294FF"/>
<path d="M14.575 10H13.75C13.4185 10 13.1005 9.8683 12.8661 9.63388C12.6317 9.39946 12.5 9.08152 12.5 8.75C12.5 8.41848 12.6317 8.10054 12.8661 7.86612C13.1005 7.6317 13.4185 7.5 13.75 7.5H13.9875C14.15 8.325 14.35 9.1625 14.575 10ZM16.325 15H13.75C13.4185 15 13.1005 14.8683 12.8661 14.6339C12.6317 14.3995 12.5 14.0815 12.5 13.75C12.5 13.4185 12.6317 13.1005 12.8661 12.8661C13.1005 12.6317 13.4185 12.5 13.75 12.5H15.35C15.6292 13.3505 15.9547 14.185 16.325 15ZM19.125 20H13.75C13.4185 20 13.1005 19.8683 12.8661 19.6339C12.6317 19.3995 12.5 19.0815 12.5 18.75C12.5 18.4185 12.6317 18.1005 12.8661 17.8661C13.1005 17.6317 13.4185 17.5 13.75 17.5H17.55C18.0304 18.3606 18.5561 19.1951 19.125 20Z" fill="#2965ED"/>
</svg>
