<svg width="40" height="40" viewBox="0 0 40 40" fill="none" xmlns="http://www.w3.org/2000/svg">
<path d="M38.8097 24.2218C41.7037 11.2198 30.3116 -0.592292 16.9331 1.67522C9.67055 -2.8313 1.17662e-06 2.26172 1.17662e-06 10.9018C-0.000906917 12.8425 0.523839 14.7473 1.51851 16.4138C-1.1705 29.4463 10.3145 41.0879 23.6816 38.6659C33.1307 43.6619 43.5717 33.6979 38.8097 24.2218ZM26.0926 32.0634C22.5826 33.5069 16.8066 33.5149 13.3121 31.6854C8.32854 29.0283 7.44304 23.0468 11.7421 23.0468C14.9821 23.0468 13.9566 26.8243 17.2281 28.3643C18.7301 29.0583 21.9586 29.1303 23.8351 27.8648C25.6881 26.6243 25.5186 24.6733 24.5111 23.7413C21.8421 21.2773 14.2046 22.2563 10.7131 17.9428C9.19604 16.0718 8.91004 12.7703 10.7746 10.3763C14.0246 6.19424 23.5621 5.93974 27.6626 9.09775C31.4486 12.0278 30.4266 15.9168 27.3711 15.9168C23.6966 15.9168 25.6276 11.1088 19.6956 11.1088C15.3951 11.1088 13.7031 14.1668 16.7321 15.6553C20.8381 17.6948 31.3011 17.0138 31.3011 24.9833C31.2921 28.2988 29.2591 30.7713 26.0926 32.0634Z" fill="#03A9F4"/>
</svg>
