<svg width="150" height="36" viewBox="0 0 150 36" fill="none" xmlns="http://www.w3.org/2000/svg">
<mask id="mask0_1535_122996" style="mask-type:alpha" maskUnits="userSpaceOnUse" x="0" y="0" width="150" height="36">
<rect width="150" height="36" fill="#D9D9D9"/>
</mask>
<g mask="url(#mask0_1535_122996)">
<path d="M139.858 35.9878C139.09 35.9878 138.467 35.8435 137.988 35.555C137.509 35.2582 137.27 34.9285 137.27 34.5658C137.27 34.3844 137.323 34.2442 137.431 34.1453C137.546 34.0464 137.699 33.9969 137.889 33.9969C138.054 33.9969 138.19 34.0505 138.297 34.1577C138.413 34.2649 138.504 34.3968 138.57 34.5534C138.636 34.71 138.71 34.8666 138.793 35.0233C138.884 35.1717 139.016 35.2994 139.189 35.4066C139.371 35.5138 139.594 35.5674 139.858 35.5674C140.196 35.5674 140.469 35.4849 140.675 35.3201C140.89 35.1552 140.997 34.9202 140.997 34.6152C140.997 34.3102 140.873 34.0753 140.626 33.9104C140.378 33.7373 140.077 33.6095 139.722 33.527C139.375 33.4446 139.024 33.3498 138.669 33.2426C138.314 33.1355 138.013 32.9459 137.765 32.6738C137.517 32.3935 137.393 32.0267 137.393 31.5733C137.393 31.0704 137.62 30.6541 138.075 30.3244C138.529 29.9864 139.111 29.8174 139.821 29.8174C140.555 29.8174 141.15 29.9699 141.604 30.2749C142.066 30.5717 142.297 30.9097 142.297 31.2889C142.297 31.4455 142.244 31.5733 142.136 31.6722C142.029 31.7711 141.893 31.8206 141.728 31.8206C141.571 31.8206 141.439 31.767 141.332 31.6598C141.232 31.5527 141.146 31.4249 141.071 31.2765C141.005 31.1199 140.931 30.9674 140.849 30.819C140.774 30.6624 140.655 30.5305 140.489 30.4233C140.333 30.3161 140.134 30.2625 139.895 30.2625C139.598 30.2625 139.35 30.3532 139.152 30.5346C138.954 30.7159 138.855 30.9426 138.855 31.2147C138.855 31.5197 138.979 31.7588 139.226 31.9319C139.474 32.105 139.771 32.2369 140.118 32.3276C140.473 32.41 140.828 32.5048 141.183 32.612C141.538 32.7192 141.839 32.9088 142.087 33.1808C142.335 33.4529 142.458 33.8156 142.458 34.269C142.458 34.7636 142.219 35.1758 141.74 35.5055C141.27 35.827 140.642 35.9878 139.858 35.9878Z" fill="white"/>
<path d="M134.005 35.9878C133.237 35.9878 132.614 35.8435 132.135 35.555C131.656 35.2582 131.417 34.9285 131.417 34.5658C131.417 34.3844 131.47 34.2442 131.577 34.1453C131.693 34.0464 131.846 33.9969 132.036 33.9969C132.201 33.9969 132.337 34.0505 132.444 34.1577C132.56 34.2649 132.651 34.3968 132.717 34.5534C132.783 34.71 132.857 34.8666 132.94 35.0233C133.031 35.1717 133.163 35.2994 133.336 35.4066C133.518 35.5138 133.741 35.5674 134.005 35.5674C134.343 35.5674 134.616 35.4849 134.822 35.3201C135.037 35.1552 135.144 34.9202 135.144 34.6152C135.144 34.3102 135.02 34.0753 134.773 33.9104C134.525 33.7373 134.224 33.6095 133.869 33.527C133.522 33.4446 133.171 33.3498 132.816 33.2426C132.461 33.1355 132.16 32.9459 131.912 32.6738C131.664 32.3935 131.54 32.0267 131.54 31.5733C131.54 31.0704 131.767 30.6541 132.221 30.3244C132.676 29.9864 133.258 29.8174 133.968 29.8174C134.702 29.8174 135.297 29.9699 135.751 30.2749C136.213 30.5717 136.444 30.9097 136.444 31.2889C136.444 31.4455 136.391 31.5733 136.283 31.6722C136.176 31.7711 136.04 31.8206 135.875 31.8206C135.718 31.8206 135.586 31.767 135.479 31.6598C135.379 31.5527 135.293 31.4249 135.218 31.2765C135.152 31.1199 135.078 30.9674 134.996 30.819C134.921 30.6624 134.802 30.5305 134.636 30.4233C134.48 30.3161 134.281 30.2625 134.042 30.2625C133.745 30.2625 133.497 30.3532 133.299 30.5346C133.101 30.7159 133.002 30.9426 133.002 31.2147C133.002 31.5197 133.126 31.7588 133.373 31.9319C133.621 32.105 133.918 32.2369 134.265 32.3276C134.62 32.41 134.975 32.5048 135.33 32.612C135.685 32.7192 135.986 32.9088 136.234 33.1808C136.482 33.4529 136.605 33.8156 136.605 34.269C136.605 34.7636 136.366 35.1758 135.887 35.5055C135.417 35.827 134.789 35.9878 134.005 35.9878Z" fill="white"/>
<path d="M130.386 34.0588C130.452 33.9681 130.534 33.9351 130.633 33.9598C130.741 33.9846 130.79 34.0588 130.782 34.1824C130.716 34.6193 130.46 35.0315 130.014 35.419C129.568 35.8064 128.986 36.0002 128.268 36.0002C127.426 36.0002 126.724 35.7116 126.163 35.1346C125.61 34.5575 125.333 33.7991 125.333 32.8593C125.333 31.9855 125.618 31.26 126.188 30.683C126.765 30.1059 127.467 29.8174 128.293 29.8174C129.036 29.8174 129.606 30.0029 130.002 30.3738C130.406 30.7366 130.609 31.157 130.609 31.6351C130.609 32.0638 130.398 32.3523 129.977 32.5007L126.98 33.6012C127.137 34.0299 127.372 34.3638 127.686 34.6029C128 34.8419 128.371 34.9615 128.801 34.9615C129.172 34.9615 129.494 34.879 129.767 34.7141C130.047 34.541 130.254 34.3226 130.386 34.0588ZM128.045 30.2873C127.657 30.2873 127.347 30.4728 127.116 30.8437C126.885 31.2147 126.77 31.7011 126.77 32.3029C126.77 32.5831 126.794 32.8469 126.844 33.0943L128.9 32.2039C129.114 32.105 129.222 31.9319 129.222 31.6846C129.222 31.3878 129.106 31.0828 128.875 30.7695C128.652 30.448 128.375 30.2873 128.045 30.2873Z" fill="white"/>
<path d="M124.269 34.8378C124.277 35.0192 124.352 35.184 124.492 35.3324C124.641 35.4726 124.715 35.5797 124.715 35.6539V35.7034C124.715 35.827 124.624 35.8889 124.443 35.8889H122.635C122.453 35.8889 122.362 35.827 122.362 35.7034V35.6539C122.362 35.5797 122.436 35.4726 122.585 35.3324C122.742 35.184 122.816 35.0192 122.808 34.8378L122.684 32.4512C122.626 31.091 122.193 30.4109 121.384 30.4109C120.996 30.4109 120.682 30.5552 120.443 30.8437C120.203 31.124 120.083 31.4909 120.083 31.9443V34.8502C120.083 35.0315 120.166 35.1923 120.331 35.3324C120.504 35.4726 120.591 35.5797 120.591 35.6539V35.7034C120.591 35.827 120.5 35.8889 120.319 35.8889H118.399C118.226 35.8889 118.139 35.827 118.139 35.7034V35.6539C118.139 35.5797 118.222 35.4726 118.387 35.3324C118.552 35.1923 118.634 35.0315 118.634 34.8502V31.5362C118.634 31.3796 118.585 31.2518 118.486 31.1529C118.395 31.0539 118.304 30.9756 118.213 30.9179C118.123 30.852 118.077 30.7819 118.077 30.7077V30.6706C118.077 30.5882 118.151 30.514 118.3 30.448L119.501 29.8668C119.633 29.8091 119.728 29.805 119.786 29.8545C119.852 29.8957 119.885 29.974 119.885 30.0894V30.8932C120.059 30.5552 120.31 30.2914 120.641 30.1018C120.971 29.9122 121.347 29.8174 121.768 29.8174C122.403 29.8174 122.94 30.0358 123.378 30.4728C123.815 30.9097 124.063 31.5857 124.121 32.5007L124.269 34.8378Z" fill="white"/>
<path d="M116.051 28.9134C115.745 28.9134 115.497 28.8269 115.307 28.6537C115.118 28.4806 115.023 28.2581 115.023 27.986C115.023 27.714 115.118 27.4914 115.307 27.3183C115.497 27.1452 115.745 27.0586 116.051 27.0586C116.348 27.0586 116.587 27.1452 116.769 27.3183C116.959 27.4914 117.054 27.714 117.054 27.986C117.054 28.2581 116.959 28.4806 116.769 28.6537C116.587 28.8269 116.348 28.9134 116.051 28.9134ZM115.134 35.8752C114.961 35.8752 114.874 35.8134 114.874 35.6897V35.6403C114.874 35.5661 114.948 35.4589 115.097 35.3188C115.254 35.1786 115.332 35.0179 115.332 34.8365V31.5968C115.332 31.4071 115.254 31.2299 115.097 31.065C114.948 30.9002 114.874 30.793 114.874 30.7435V30.7064C114.874 30.6405 114.948 30.5663 115.097 30.4839L116.335 29.8656C116.476 29.8079 116.583 29.8037 116.657 29.8532C116.74 29.8944 116.781 29.9686 116.781 30.0758V34.8365C116.781 35.0179 116.864 35.1786 117.029 35.3188C117.202 35.4589 117.289 35.5661 117.289 35.6403V35.6897C117.289 35.8134 117.198 35.8752 117.016 35.8752H115.134Z" fill="white"/>
<path d="M111.485 35.9878C110.717 35.9878 110.094 35.8435 109.615 35.555C109.136 35.2582 108.897 34.9285 108.897 34.5658C108.897 34.3844 108.951 34.2442 109.058 34.1453C109.174 34.0464 109.326 33.9969 109.516 33.9969C109.681 33.9969 109.818 34.0505 109.925 34.1577C110.04 34.2649 110.131 34.3968 110.197 34.5534C110.263 34.71 110.338 34.8666 110.42 35.0233C110.511 35.1717 110.643 35.2994 110.817 35.4066C110.998 35.5138 111.221 35.5674 111.485 35.5674C111.824 35.5674 112.096 35.4849 112.303 35.3201C112.517 35.1552 112.625 34.9202 112.625 34.6152C112.625 34.3102 112.501 34.0753 112.253 33.9104C112.005 33.7373 111.704 33.6095 111.349 33.527C111.002 33.4446 110.651 33.3498 110.296 33.2426C109.941 33.1355 109.64 32.9459 109.392 32.6738C109.145 32.3935 109.021 32.0267 109.021 31.5733C109.021 31.0704 109.248 30.6541 109.702 30.3244C110.156 29.9864 110.738 29.8174 111.448 29.8174C112.183 29.8174 112.777 29.9699 113.231 30.2749C113.694 30.5717 113.925 30.9097 113.925 31.2889C113.925 31.4455 113.871 31.5733 113.764 31.6722C113.657 31.7711 113.52 31.8206 113.355 31.8206C113.198 31.8206 113.066 31.767 112.959 31.6598C112.86 31.5527 112.773 31.4249 112.699 31.2765C112.633 31.1199 112.559 30.9674 112.476 30.819C112.402 30.6624 112.282 30.5305 112.117 30.4233C111.96 30.3161 111.762 30.2625 111.522 30.2625C111.225 30.2625 110.978 30.3532 110.779 30.5346C110.581 30.7159 110.482 30.9426 110.482 31.2147C110.482 31.5197 110.606 31.7588 110.854 31.9319C111.101 32.105 111.399 32.2369 111.745 32.3276C112.1 32.41 112.455 32.5048 112.81 32.612C113.165 32.7192 113.467 32.9088 113.714 33.1808C113.962 33.4529 114.086 33.8156 114.086 34.269C114.086 34.7636 113.846 35.1758 113.368 35.5055C112.897 35.827 112.27 35.9878 111.485 35.9878Z" fill="white"/>
<path d="M107.656 34.7142C107.656 34.9285 107.689 35.0892 107.755 35.1964C107.821 35.3036 107.891 35.3654 107.966 35.3819C108.048 35.3901 108.123 35.4149 108.189 35.4561C108.255 35.4891 108.288 35.5509 108.288 35.6416C108.288 35.8477 107.978 35.9507 107.359 35.9507C107.012 35.9507 106.756 35.8806 106.591 35.7405C106.426 35.6004 106.348 35.3654 106.356 35.0357C105.993 35.6787 105.373 36.0002 104.498 36.0002C103.805 36.0002 103.247 35.7693 102.826 35.3077C102.405 34.8461 102.195 34.1783 102.195 33.3045V31.1652C102.195 30.9756 102.116 30.8066 101.959 30.6583C101.803 30.5016 101.724 30.3945 101.724 30.3367V30.2997C101.724 30.176 101.798 30.1018 101.947 30.0771L103.247 29.8669C103.528 29.8256 103.668 29.8875 103.668 30.0523L103.644 33.4405C103.644 34.7512 104.056 35.4066 104.882 35.4066C105.262 35.4066 105.576 35.2541 105.823 34.9491C106.079 34.6358 106.207 34.2319 106.207 33.7373V31.1652C106.207 30.9756 106.125 30.8066 105.959 30.6583C105.803 30.5016 105.724 30.3945 105.724 30.3367V30.2997C105.724 30.176 105.794 30.1018 105.935 30.0771L107.26 29.8669C107.524 29.8256 107.656 29.8875 107.656 30.0523V34.7142Z" fill="white"/>
<path d="M98.6307 31.1516C99.4068 31.2588 100.005 31.5143 100.426 31.9183C100.856 32.314 101.07 32.8127 101.07 33.4145C101.07 34.1564 100.74 34.7541 100.08 35.2075C99.4274 35.6527 98.5646 35.8752 97.4913 35.8752H93.9866C93.8133 35.8752 93.7266 35.8175 93.7266 35.7021V35.6527C93.7266 35.5867 93.8009 35.4837 93.9495 35.3435C94.1063 35.1951 94.1848 35.0303 94.1848 34.8489V28.122C94.1848 27.9407 94.1063 27.7799 93.9495 27.6398C93.8009 27.4914 93.7266 27.3801 93.7266 27.3059V27.2688C93.7266 27.1534 93.8133 27.0957 93.9866 27.0957H96.996C98.0115 27.0957 98.8041 27.3018 99.3737 27.714C99.9434 28.1179 100.228 28.6455 100.228 29.2968C100.228 29.7667 100.084 30.1665 99.7948 30.4962C99.5141 30.8177 99.126 31.0362 98.6307 31.1516ZM95.6833 28.221V30.3849C95.6833 30.5416 95.7328 30.6693 95.8319 30.7683C95.9309 30.8672 96.063 30.9167 96.2282 30.9167H97.3427C97.8051 30.9167 98.1766 30.7889 98.4573 30.5333C98.7463 30.2695 98.8907 29.9357 98.8907 29.5317C98.8907 28.9629 98.7174 28.5219 98.3706 28.2086C98.0239 27.8871 97.5491 27.7263 96.9464 27.7263H96.1291C95.8319 27.7263 95.6833 27.8912 95.6833 28.221ZM97.3675 35.2446C98.8123 35.2446 99.5347 34.7129 99.5347 33.6494C99.5347 33.0724 99.2994 32.5778 98.8288 32.1656C98.3582 31.7452 97.7101 31.5349 96.8845 31.5349H95.6833V34.5027C95.6833 34.717 95.7452 34.8942 95.869 35.0344C95.9929 35.1745 96.1539 35.2446 96.352 35.2446H97.3675Z" fill="white"/>
<path d="M87.8729 35.8768C87.6995 35.8768 87.6128 35.8149 87.6128 35.6913V35.6542C87.6128 35.5717 87.6871 35.4605 87.8357 35.3203C87.9926 35.1802 88.071 35.0235 88.071 34.8504V28.3338C88.071 28.1359 87.9926 27.9587 87.8357 27.8021C87.6871 27.6454 87.6128 27.5424 87.6128 27.4929V27.4558C87.6128 27.3816 87.683 27.3074 87.8233 27.2332L89.0741 26.615C89.2145 26.5573 89.3218 26.5531 89.3961 26.6026C89.4787 26.6438 89.5199 26.7139 89.5199 26.8128V34.8504C89.5199 35.0235 89.6025 35.1843 89.7676 35.3327C89.941 35.4728 90.0277 35.58 90.0277 35.6542V35.6913C90.0277 35.8149 89.9369 35.8768 89.7552 35.8768H87.8729Z" fill="white"/>
<path d="M86.5172 34.7636C86.5337 34.945 86.5791 35.0892 86.6534 35.1964C86.736 35.2953 86.8144 35.3571 86.8887 35.3819C86.9713 35.4066 87.0414 35.4396 87.0992 35.4808C87.1653 35.522 87.1983 35.5756 87.1983 35.6416C87.1983 35.8476 86.8639 35.9507 86.1952 35.9507C85.8649 35.9507 85.6214 35.9012 85.4645 35.8023C85.3159 35.6951 85.2292 35.4973 85.2045 35.2088C84.8742 35.7364 84.3004 36.0002 83.4831 36.0002C82.7895 36.0002 82.2281 35.8394 81.7988 35.5179C81.3778 35.1882 81.1672 34.7265 81.1672 34.133C81.159 33.5477 81.3695 33.0943 81.7988 32.7727C82.2281 32.443 82.7689 32.2781 83.4211 32.2781C84.0156 32.2781 84.4944 32.4183 84.8577 32.6986L84.8329 32.4512C84.7586 31.6928 84.6265 31.1405 84.4366 30.7943C84.2467 30.448 83.9454 30.2749 83.5326 30.2749C83.2767 30.2749 83.062 30.3532 82.8886 30.5099C82.7235 30.6665 82.6079 30.8396 82.5419 31.0292C82.4841 31.2106 82.3974 31.3796 82.2818 31.5362C82.1662 31.6928 82.0217 31.7711 81.8484 31.7711C81.6667 31.7711 81.5181 31.7217 81.4025 31.6228C81.2952 31.5156 81.2415 31.3754 81.2415 31.2023C81.2415 30.8066 81.4562 30.4769 81.8855 30.2131C82.3231 29.9493 82.8721 29.8174 83.5326 29.8174C84.3087 29.8174 84.9361 30.0482 85.415 30.5099C85.8938 30.9633 86.1787 31.5898 86.2695 32.3894L86.5172 34.7636ZM83.8917 35.5303C84.2302 35.5303 84.5027 35.4066 84.7091 35.1593C84.9237 34.912 85.0228 34.6193 85.0063 34.2813L84.9692 33.898C84.9444 33.5435 84.8247 33.2632 84.61 33.0572C84.3954 32.8511 84.1229 32.748 83.7927 32.748C83.4459 32.748 83.1652 32.8593 82.9505 33.0819C82.7359 33.2962 82.6286 33.5889 82.6286 33.9598C82.6286 34.3968 82.7441 34.7677 82.9753 35.0727C83.2147 35.3778 83.5202 35.5303 83.8917 35.5303Z" fill="white"/>
<path d="M77.5243 29.8173C78.3086 29.8173 78.9815 30.0934 79.5429 30.6458C80.1125 31.1898 80.3974 31.9112 80.3974 32.8097C80.3974 33.733 80.1167 34.4956 79.5553 35.0974C79.0021 35.6991 78.3292 36 77.5366 36C76.8101 36 76.2239 35.7404 75.7781 35.221L75.7905 35.6662C75.7905 35.8228 75.7079 35.9011 75.5428 35.9011L74.2053 35.8764C74.0567 35.8764 73.9824 35.8187 73.9824 35.7033V35.6662C73.9824 35.6002 74.0608 35.4931 74.2177 35.3447C74.3746 35.188 74.453 35.019 74.453 34.8377V28.3458C74.453 28.1974 74.4076 28.0737 74.3168 27.9748C74.2342 27.8676 74.1475 27.7811 74.0567 27.7151C73.9659 27.6492 73.9205 27.5791 73.9205 27.5049V27.4678C73.9205 27.3771 74.003 27.2947 74.1682 27.2205L75.4437 26.6146C75.5758 26.5486 75.6831 26.5363 75.7657 26.5775C75.8483 26.6105 75.8895 26.6929 75.8895 26.8248V30.4726C76.2858 30.0357 76.8307 29.8173 77.5243 29.8173ZM77.3633 35.5301C77.8586 35.5301 78.2425 35.3323 78.515 34.9366C78.7957 34.5409 78.936 33.9845 78.936 33.2673C78.936 32.3769 78.7709 31.6597 78.4407 31.1156C78.1187 30.5633 77.6935 30.2872 77.1651 30.2872C76.8184 30.2872 76.517 30.4232 76.2611 30.6952C76.0134 30.959 75.8895 31.2888 75.8895 31.6845V33.7742C75.8895 34.2276 76.0382 34.6357 76.3354 34.9984C76.6409 35.3529 76.9835 35.5301 77.3633 35.5301Z" fill="white"/>
<path d="M70.2394 36.0002C69.2239 36.0002 68.4107 35.691 67.7997 35.0727C67.1888 34.4545 66.8833 33.7125 66.8833 32.8469C66.8833 31.9814 67.1805 31.26 67.775 30.683C68.3694 30.1059 69.0959 29.8174 69.9546 29.8174C70.9123 29.8174 71.6966 30.1224 72.3076 30.7324C72.9185 31.3342 73.224 32.072 73.224 32.9459C73.224 33.8115 72.9474 34.5369 72.3942 35.1222C71.8411 35.7075 71.1228 36.0002 70.2394 36.0002ZM70.4252 35.5303C70.8215 35.5303 71.1434 35.3489 71.3911 34.9862C71.6388 34.6152 71.7627 34.1041 71.7627 33.4529C71.7627 32.579 71.5728 31.833 71.193 31.2147C70.8215 30.5964 70.355 30.2873 69.7936 30.2873C69.3477 30.2873 68.9927 30.4686 68.7285 30.8314C68.4726 31.1858 68.3446 31.6969 68.3446 32.3647C68.3446 33.1726 68.5386 33.9021 68.9267 34.5534C69.323 35.2046 69.8225 35.5303 70.4252 35.5303Z" fill="white"/>
<path d="M63.9998 35.8768C63.8264 35.8768 63.7397 35.8149 63.7397 35.6913V35.6542C63.7397 35.5717 63.8141 35.4605 63.9627 35.3203C64.1195 35.1802 64.198 35.0235 64.198 34.8504V28.3338C64.198 28.1359 64.1195 27.9587 63.9627 27.8021C63.8141 27.6454 63.7397 27.5424 63.7397 27.4929V27.4558C63.7397 27.3816 63.8099 27.3074 63.9503 27.2332L65.2011 26.615C65.3414 26.5573 65.4488 26.5531 65.5231 26.6026C65.6056 26.6438 65.6469 26.7139 65.6469 26.8128V34.8504C65.6469 35.0235 65.7295 35.1843 65.8946 35.3327C66.068 35.4728 66.1547 35.58 66.1547 35.6542V35.6913C66.1547 35.8149 66.0638 35.8768 65.8822 35.8768H63.9998Z" fill="white"/>
<path d="M59.2225 35.9998C58.0254 35.9998 56.9975 35.5547 56.1388 34.6644C55.2885 33.774 54.8633 32.723 54.8633 31.5111C54.8633 30.1592 55.2596 29.0669 56.0522 28.2343C56.853 27.4017 57.8437 26.9854 59.0244 26.9854C60.0151 26.9854 60.8448 27.2285 61.5136 27.7149C62.1823 28.1931 62.5167 28.7083 62.5167 29.2606C62.5167 29.4667 62.4548 29.6357 62.3309 29.7676C62.2071 29.8913 62.042 29.9531 61.8355 29.9531C61.6291 29.9531 61.4351 29.8748 61.2535 29.7181C61.0801 29.5533 60.9191 29.3554 60.7705 29.1246C60.6219 28.8938 60.4609 28.6671 60.2875 28.4445C60.1142 28.2137 59.883 28.0199 59.594 27.8633C59.3133 27.6984 58.9913 27.616 58.6281 27.616C57.9758 27.616 57.4309 27.9004 56.9934 28.4692C56.5558 29.0298 56.337 29.7346 56.337 30.5837C56.337 31.8285 56.659 32.8796 57.303 33.7369C57.9469 34.586 58.7065 35.0106 59.5816 35.0106C60.2008 35.0106 60.7086 34.8911 61.1049 34.652V32.624C61.1049 32.5086 61.0636 32.4097 60.981 32.3273C60.8985 32.2366 60.8077 32.1706 60.7086 32.1294C60.6095 32.0882 60.5187 32.0429 60.4361 31.9934C60.3536 31.9357 60.3123 31.878 60.3123 31.8203V31.7708C60.3123 31.6389 60.4072 31.573 60.5971 31.573L62.9254 31.5853C63.0987 31.5853 63.1854 31.6472 63.1854 31.7708V31.8203C63.1854 31.8862 63.1276 31.9522 63.012 32.0181C62.9047 32.0841 62.7933 32.1665 62.6777 32.2654C62.5621 32.3561 62.5043 32.4798 62.5043 32.6364V34.3923C62.5043 34.6479 62.3763 34.8828 62.1204 35.0972C61.7901 35.361 61.3691 35.5794 60.8572 35.7525C60.3453 35.9174 59.8004 35.9998 59.2225 35.9998Z" fill="white"/>
<path d="M146.219 6.21875C147.031 6.21875 147.673 6.48255 148.144 7.01014C148.635 7.53774 148.88 8.20666 148.88 9.0169C148.88 10.7881 148.154 11.6737 146.701 11.6737C146.116 11.6737 145.672 11.5418 145.37 11.278C145.068 10.9954 144.889 10.6845 144.832 10.3453C144.795 10.0061 144.7 9.70466 144.549 9.44086C144.398 9.15822 144.172 9.0169 143.87 9.0169C143.172 9.0169 142.823 9.92135 142.823 11.7303V16.9874C142.823 17.4584 143.068 17.9295 143.559 18.4006C144.068 18.8528 144.323 19.192 144.323 19.4181V19.5311C144.323 19.8892 144.096 20.0682 143.644 20.0682H137.558C137.105 20.0682 136.878 19.8892 136.878 19.5311V19.4181C136.878 19.192 137.067 18.8528 137.444 18.4006C137.822 17.9295 138.011 17.4584 138.011 16.9874V11.3628C138.011 10.986 137.897 10.6656 137.671 10.4018C137.444 10.138 137.218 9.91193 136.992 9.7235C136.765 9.53507 136.652 9.3278 136.652 9.10169V9.0169C136.652 8.69657 136.869 8.42335 137.303 8.19724L141.294 6.33181C141.672 6.19991 141.936 6.19049 142.087 6.30354C142.238 6.4166 142.313 6.63329 142.313 6.95362V9.0169C142.955 7.15147 144.257 6.21875 146.219 6.21875Z" fill="white"/>
<path d="M134.592 16.9874C134.648 17.4396 134.752 17.807 134.903 18.0897C135.073 18.3535 135.233 18.5231 135.384 18.5984C135.554 18.6738 135.705 18.768 135.837 18.8811C135.969 18.9941 136.035 19.1354 136.035 19.305C136.035 19.9268 134.969 20.2377 132.837 20.2377C131.969 20.2377 131.317 20.1341 130.883 19.9268C130.468 19.7196 130.204 19.371 130.091 18.8811C129.374 19.8609 128.175 20.3508 126.496 20.3508C124.911 20.3508 123.618 19.9834 122.618 19.2485C121.637 18.5136 121.146 17.449 121.146 16.0547C121.146 14.698 121.637 13.6428 122.618 12.8891C123.599 12.1165 124.807 11.7303 126.241 11.7303C127.355 11.7303 128.308 11.9658 129.1 12.4369V12.3521C128.911 10.4866 128.694 9.22417 128.449 8.56467C128.223 7.90517 127.77 7.57543 127.09 7.57543C126.656 7.57543 126.307 7.77328 126.043 8.16897C125.779 8.56467 125.581 8.99805 125.449 9.46912C125.335 9.94019 125.109 10.3736 124.769 10.7693C124.43 11.165 123.977 11.3628 123.411 11.3628C122.826 11.3628 122.344 11.1932 121.967 10.8541C121.608 10.5149 121.429 10.0721 121.429 9.52565C121.429 8.43277 121.976 7.61311 123.071 7.06667C124.165 6.50139 125.505 6.21875 127.09 6.21875C128.977 6.21875 130.534 6.73693 131.761 7.77328C133.006 8.79078 133.742 10.1757 133.969 11.9281L134.592 16.9874ZM128.053 18.9093C128.487 18.9093 128.836 18.7021 129.1 18.2875C129.383 17.873 129.525 17.4019 129.525 16.8743L129.412 15.5742C129.223 14.0102 128.638 13.2282 127.657 13.2282C127.222 13.2282 126.873 13.4073 126.609 13.7653C126.345 14.1044 126.213 14.5661 126.213 15.1502C126.213 16.2054 126.373 17.1004 126.694 17.8353C127.034 18.5513 127.487 18.9093 128.053 18.9093Z" fill="white"/>
<path d="M115.617 20.3501C114.183 20.3501 113.051 19.8979 112.22 18.9934C111.409 18.089 111.003 16.7982 111.003 15.1212V8.42263H109.927C109.739 8.42263 109.578 8.36611 109.446 8.25305C109.333 8.12115 109.276 7.96099 109.276 7.77256V7.15075C109.276 6.71737 109.493 6.50068 109.927 6.50068H110.465C111.333 6.50068 112.079 6.2463 112.701 5.73754C113.324 5.20995 113.73 4.51277 113.919 3.646C114.013 3.15609 114.268 2.91113 114.683 2.91113H115.334C115.843 2.91113 116.098 3.15609 116.098 3.646V6.50068H119.014C119.203 6.50068 119.354 6.56662 119.467 6.69852C119.599 6.81158 119.665 6.96232 119.665 7.15075V7.77256C119.665 7.96099 119.599 8.12115 119.467 8.25305C119.354 8.36611 119.203 8.42263 119.014 8.42263H116.098V15.206C116.098 15.6771 116.221 16.0539 116.466 16.3366C116.712 16.6004 117.014 16.7323 117.372 16.7323C118.184 16.7323 118.806 16.3837 119.24 15.6865C119.372 15.5169 119.523 15.4227 119.693 15.4039C119.863 15.3662 120.005 15.3944 120.118 15.4887C120.25 15.5829 120.316 15.7148 120.316 15.8844C120.316 17.0715 119.891 18.1172 119.042 19.0217C118.212 19.9073 117.07 20.3501 115.617 20.3501Z" fill="white"/>
<path d="M106.358 6.21875C107.17 6.21875 107.811 6.48255 108.283 7.01014C108.774 7.53774 109.019 8.20666 109.019 9.0169C109.019 10.7881 108.292 11.6737 106.839 11.6737C106.254 11.6737 105.811 11.5418 105.509 11.278C105.207 10.9954 105.028 10.6845 104.971 10.3453C104.933 10.0061 104.839 9.70466 104.688 9.44086C104.537 9.15822 104.311 9.0169 104.009 9.0169C103.31 9.0169 102.961 9.92135 102.961 11.7303V16.9874C102.961 17.4584 103.207 17.9295 103.697 18.4006C104.207 18.8528 104.462 19.192 104.462 19.4181V19.5311C104.462 19.8892 104.235 20.0682 103.782 20.0682H97.6963C97.2434 20.0682 97.017 19.8892 97.017 19.5311V19.4181C97.017 19.192 97.2057 18.8528 97.5831 18.4006C97.9605 17.9295 98.1492 17.4584 98.1492 16.9874V11.3628C98.1492 10.986 98.036 10.6656 97.8096 10.4018C97.5831 10.138 97.3567 9.91193 97.1302 9.7235C96.9038 9.53507 96.7905 9.3278 96.7905 9.10169V9.0169C96.7905 8.69657 97.0075 8.42335 97.4416 8.19724L101.433 6.33181C101.81 6.19991 102.074 6.19049 102.225 6.30354C102.376 6.4166 102.452 6.63329 102.452 6.95362V9.0169C103.093 7.15147 104.396 6.21875 106.358 6.21875Z" fill="white"/>
<path d="M87.9894 20.3508C85.8003 20.3508 83.9415 19.6819 82.413 18.3441C80.9033 16.9874 80.1484 15.2915 80.1484 13.2565C80.1484 11.2215 80.9033 9.54449 82.413 8.2255C83.9226 6.88767 85.7154 6.21875 87.7912 6.21875C89.9425 6.21875 91.773 6.88767 93.2827 8.2255C94.7924 9.56334 95.5472 11.2592 95.5472 13.313C95.5472 15.3481 94.8113 17.0345 93.3393 18.3723C91.8674 19.6913 90.0841 20.3508 87.9894 20.3508ZM88.5838 18.9659C89.7915 18.9659 90.3954 17.807 90.3954 15.4894C90.3954 14.6415 90.2728 13.6334 90.0274 12.4651C89.801 11.2969 89.4047 10.1946 88.8386 9.15822C88.2913 8.12187 87.678 7.60369 86.9986 7.60369C86.3381 7.60369 85.8664 7.89575 85.5833 8.47988C85.3002 9.064 85.1587 9.94961 85.1587 11.1367C85.1587 11.7585 85.2342 12.4934 85.3852 13.3413C85.5361 14.1892 85.7437 15.0466 86.0079 15.9133C86.2721 16.7613 86.6306 17.4867 87.0836 18.0897C87.5553 18.6738 88.0554 18.9659 88.5838 18.9659Z" fill="white"/>
<path d="M78.5149 16.9585C78.6092 17.4295 78.8263 17.9006 79.1659 18.3717C79.5056 18.8239 79.6755 19.1725 79.6755 19.4174V19.5305C79.6755 19.8885 79.449 20.0675 78.9961 20.0675H73.1083C72.6554 20.0675 72.429 19.8885 72.429 19.5305V19.4174C72.429 19.229 72.6177 18.8993 72.9951 18.4282C73.3725 17.9383 73.5141 17.4484 73.4197 16.9585L71.7213 7.09429L67.3904 19.2196C67.2017 19.766 66.862 20.0393 66.3714 20.0393C65.8241 20.0393 65.4278 19.7755 65.1825 19.2479L60.2288 6.64207L58.7003 16.9585C58.6248 17.4484 58.7758 17.9289 59.1532 18.3999C59.5306 18.871 59.7193 19.2102 59.7193 19.4174V19.5305C59.7193 19.8885 59.4929 20.0675 59.04 20.0675H55.5299C55.077 20.0675 54.8506 19.8885 54.8506 19.5305V19.4174C54.8506 19.1725 55.0204 18.8239 55.3601 18.3717C55.7187 17.9006 55.9357 17.4295 56.0112 16.9585L58.1625 3.10905C58.2379 2.61914 58.0681 2.13865 57.6529 1.66758C57.2566 1.19651 57.0585 0.857344 57.0585 0.650075V0.537018C57.0585 0.179006 57.2755 0 57.7096 0H61.446C62.2197 0 62.7293 0.339169 62.9746 1.01751L67.079 13.0015L71.042 1.07404C71.3061 0.358012 71.7968 0 72.5139 0H76.3636C76.7976 0 77.0146 0.179006 77.0146 0.537018V0.650075C77.0146 0.838502 76.8071 1.17767 76.3919 1.66758C75.9767 2.1575 75.8163 2.65683 75.9107 3.16558L78.5149 16.9585Z" fill="white"/>
<mask id="mask1_1535_122996" style="mask-type:alpha" maskUnits="userSpaceOnUse" x="3" y="0" width="41" height="34">
<rect x="3.35834" width="40.2985" height="33.75" fill="#D9D9D9"/>
</mask>
<g mask="url(#mask1_1535_122996)">
<path fill-rule="evenodd" clip-rule="evenodd" d="M27.7055 8.05969V33.7501H19.31V8.07006H11.7538V33.7501H3.35834V7.59387H11.3784V0.00988483H19.3984V7.59387H27.3241V-0.000488281H35.3442V7.59386H43.6572V33.7501H35.2617V8.05969H27.7055Z" fill="white"/>
</g>
</g>
</svg>
