<svg width="142" height="34" viewBox="0 0 142 34" fill="none" xmlns="http://www.w3.org/2000/svg">
<mask id="mask0_1531_20506" style="mask-type:alpha" maskUnits="userSpaceOnUse" x="0" y="0" width="142" height="34">
<rect width="142" height="34" fill="#D9D9D9"/>
</mask>
<g mask="url(#mask0_1531_20506)">
<path d="M132.399 33.9878C131.672 33.9878 131.082 33.8515 130.628 33.579C130.175 33.2987 129.948 32.9873 129.948 32.6447C129.948 32.4734 129.999 32.3411 130.101 32.2477C130.21 32.1542 130.355 32.1075 130.535 32.1075C130.691 32.1075 130.82 32.1581 130.921 32.2593C131.031 32.3605 131.117 32.4851 131.179 32.633C131.242 32.781 131.312 32.9289 131.39 33.0768C131.476 33.217 131.601 33.3377 131.766 33.4389C131.937 33.5401 132.149 33.5907 132.399 33.5907C132.719 33.5907 132.977 33.5128 133.172 33.3571C133.376 33.2014 133.477 32.9795 133.477 32.6914C133.477 32.4034 133.36 32.1815 133.125 32.0258C132.891 31.8623 132.606 31.7416 132.27 31.6637C131.941 31.5859 131.609 31.4963 131.273 31.3951C130.937 31.2939 130.652 31.1148 130.417 30.8579C130.183 30.5932 130.066 30.2467 130.066 29.8185C130.066 29.3436 130.281 28.9504 130.71 28.639C131.14 28.3198 131.691 28.1602 132.363 28.1602C133.059 28.1602 133.622 28.3042 134.052 28.5923C134.489 28.8725 134.708 29.1918 134.708 29.5499C134.708 29.6978 134.657 29.8185 134.556 29.9119C134.454 30.0054 134.325 30.0521 134.169 30.0521C134.02 30.0521 133.895 30.0015 133.794 29.9003C133.7 29.799 133.618 29.6784 133.548 29.5382C133.485 29.3903 133.415 29.2463 133.337 29.1061C133.266 28.9582 133.153 28.8336 132.997 28.7324C132.848 28.6312 132.66 28.5806 132.434 28.5806C132.152 28.5806 131.918 28.6662 131.73 28.8375C131.543 29.0088 131.449 29.2229 131.449 29.4798C131.449 29.7679 131.566 29.9937 131.801 30.1572C132.035 30.3207 132.317 30.4453 132.645 30.5309C132.981 30.6088 133.317 30.6983 133.653 30.7995C133.989 30.9007 134.274 31.0798 134.509 31.3367C134.743 31.5937 134.861 31.9362 134.861 32.3644C134.861 32.8316 134.634 33.2209 134.181 33.5323C133.735 33.8359 133.141 33.9878 132.399 33.9878Z" fill="white"/>
<path d="M126.857 33.9878C126.13 33.9878 125.54 33.8515 125.087 33.579C124.634 33.2987 124.407 32.9873 124.407 32.6447C124.407 32.4734 124.458 32.3411 124.559 32.2477C124.669 32.1542 124.813 32.1075 124.993 32.1075C125.149 32.1075 125.278 32.1581 125.38 32.2593C125.489 32.3605 125.575 32.4851 125.638 32.633C125.7 32.781 125.771 32.9289 125.849 33.0768C125.935 33.217 126.06 33.3377 126.224 33.4389C126.396 33.5401 126.607 33.5907 126.857 33.5907C127.178 33.5907 127.436 33.5128 127.631 33.3571C127.834 33.2014 127.936 32.9795 127.936 32.6914C127.936 32.4034 127.819 32.1815 127.584 32.0258C127.35 31.8623 127.064 31.7416 126.728 31.6637C126.4 31.5859 126.068 31.4963 125.732 31.3951C125.396 31.2939 125.11 31.1148 124.876 30.8579C124.641 30.5932 124.524 30.2467 124.524 29.8185C124.524 29.3436 124.739 28.9504 125.169 28.639C125.599 28.3198 126.15 28.1602 126.822 28.1602C127.518 28.1602 128.08 28.3042 128.51 28.5923C128.948 28.8725 129.167 29.1918 129.167 29.5499C129.167 29.6978 129.116 29.8185 129.014 29.9119C128.913 30.0054 128.784 30.0521 128.627 30.0521C128.479 30.0521 128.354 30.0015 128.252 29.9003C128.159 29.799 128.076 29.6784 128.006 29.5382C127.944 29.3903 127.873 29.2463 127.795 29.1061C127.725 28.9582 127.611 28.8336 127.455 28.7324C127.307 28.6312 127.119 28.5806 126.892 28.5806C126.611 28.5806 126.377 28.6662 126.189 28.8375C126.001 29.0088 125.908 29.2229 125.908 29.4798C125.908 29.7679 126.025 29.9937 126.259 30.1572C126.494 30.3207 126.775 30.4453 127.103 30.5309C127.44 30.6088 127.776 30.6983 128.112 30.7995C128.448 30.9007 128.733 31.0798 128.967 31.3367C129.202 31.5937 129.319 31.9362 129.319 32.3644C129.319 32.8316 129.093 33.2209 128.639 33.5323C128.194 33.8359 127.6 33.9878 126.857 33.9878Z" fill="white"/>
<path d="M123.432 32.1659C123.494 32.0803 123.572 32.0491 123.666 32.0725C123.768 32.0958 123.815 32.1659 123.807 32.2827C123.744 32.6953 123.502 33.0846 123.08 33.4506C122.658 33.8165 122.107 33.9994 121.427 33.9994C120.63 33.9994 119.965 33.7269 119.434 33.1819C118.91 32.6369 118.648 31.9207 118.648 31.0331C118.648 30.2078 118.918 29.5227 119.457 28.9777C120.005 28.4327 120.669 28.1602 121.45 28.1602C122.154 28.1602 122.693 28.3353 123.068 28.6857C123.451 29.0283 123.643 29.4253 123.643 29.8769C123.643 30.2818 123.443 30.5543 123.045 30.6944L120.208 31.7338C120.356 32.1387 120.579 32.454 120.876 32.6798C121.173 32.9056 121.525 33.0184 121.931 33.0184C122.283 33.0184 122.588 32.9406 122.846 32.7849C123.111 32.6214 123.307 32.4151 123.432 32.1659ZM121.216 28.6039C120.849 28.6039 120.556 28.7791 120.337 29.1295C120.118 29.4798 120.008 29.9392 120.008 30.5076C120.008 30.7723 120.032 31.0214 120.079 31.255L122.025 30.4141C122.228 30.3207 122.33 30.1572 122.33 29.9236C122.33 29.6433 122.22 29.3553 122.001 29.0594C121.79 28.7558 121.529 28.6039 121.216 28.6039Z" fill="white"/>
<path d="M117.641 32.9017C117.649 33.0729 117.72 33.2287 117.852 33.3688C117.993 33.5012 118.063 33.6024 118.063 33.6724V33.7192C118.063 33.8359 117.978 33.8943 117.806 33.8943H116.094C115.922 33.8943 115.836 33.8359 115.836 33.7192V33.6724C115.836 33.6024 115.906 33.5012 116.047 33.3688C116.196 33.2287 116.266 33.0729 116.258 32.9017L116.141 30.6477C116.086 29.363 115.676 28.7207 114.91 28.7207C114.542 28.7207 114.245 28.857 114.019 29.1295C113.792 29.3942 113.679 29.7407 113.679 30.1689V32.9133C113.679 33.0846 113.757 33.2364 113.913 33.3688C114.077 33.5012 114.16 33.6024 114.16 33.6724V33.7192C114.16 33.8359 114.074 33.8943 113.902 33.8943H112.084C111.92 33.8943 111.838 33.8359 111.838 33.7192V33.6724C111.838 33.6024 111.916 33.5012 112.073 33.3688C112.229 33.2364 112.307 33.0846 112.307 32.9133V29.7835C112.307 29.6355 112.26 29.5149 112.166 29.4214C112.081 29.328 111.995 29.254 111.909 29.1995C111.823 29.1373 111.78 29.0711 111.78 29.001V28.966C111.78 28.8881 111.85 28.818 111.991 28.7558L113.128 28.2069C113.253 28.1524 113.343 28.1485 113.397 28.1952C113.46 28.2341 113.491 28.3081 113.491 28.4171V29.1762C113.655 28.857 113.894 28.6078 114.206 28.4288C114.519 28.2497 114.875 28.1602 115.273 28.1602C115.875 28.1602 116.383 28.3665 116.797 28.7791C117.212 29.1918 117.446 29.8302 117.501 30.6944L117.641 32.9017Z" fill="white"/>
<path d="M109.861 27.3075C109.572 27.3075 109.338 27.2257 109.158 27.0622C108.978 26.8987 108.888 26.6885 108.888 26.4316C108.888 26.1746 108.978 25.9644 109.158 25.8009C109.338 25.6374 109.572 25.5557 109.861 25.5557C110.143 25.5557 110.369 25.6374 110.541 25.8009C110.721 25.9644 110.811 26.1746 110.811 26.4316C110.811 26.6885 110.721 26.8987 110.541 27.0622C110.369 27.2257 110.143 27.3075 109.861 27.3075ZM108.994 33.8825C108.83 33.8825 108.748 33.8241 108.748 33.7073V33.6606C108.748 33.5905 108.818 33.4893 108.959 33.357C109.107 33.2246 109.181 33.0728 109.181 32.9015V29.8417C109.181 29.6626 109.107 29.4952 108.959 29.3395C108.818 29.1838 108.748 29.0826 108.748 29.0359V29.0008C108.748 28.9386 108.818 28.8685 108.959 28.7906L110.131 28.2067C110.264 28.1522 110.365 28.1483 110.436 28.195C110.514 28.234 110.553 28.304 110.553 28.4052V32.9015C110.553 33.0728 110.631 33.2246 110.787 33.357C110.952 33.4893 111.034 33.5905 111.034 33.6606V33.7073C111.034 33.8241 110.948 33.8825 110.776 33.8825H108.994Z" fill="white"/>
<path d="M105.539 33.9878C104.813 33.9878 104.222 33.8515 103.769 33.579C103.316 33.2987 103.089 32.9873 103.089 32.6447C103.089 32.4734 103.14 32.3411 103.242 32.2477C103.351 32.1542 103.496 32.1075 103.675 32.1075C103.832 32.1075 103.961 32.1581 104.062 32.2593C104.172 32.3605 104.258 32.4851 104.32 32.633C104.383 32.781 104.453 32.9289 104.531 33.0768C104.617 33.217 104.742 33.3377 104.906 33.4389C105.078 33.5401 105.289 33.5907 105.539 33.5907C105.86 33.5907 106.118 33.5128 106.313 33.3571C106.516 33.2014 106.618 32.9795 106.618 32.6914C106.618 32.4034 106.501 32.1815 106.266 32.0258C106.032 31.8623 105.747 31.7416 105.41 31.6637C105.082 31.5859 104.75 31.4963 104.414 31.3951C104.078 31.2939 103.793 31.1148 103.558 30.8579C103.324 30.5932 103.206 30.2467 103.206 29.8185C103.206 29.3436 103.421 28.9504 103.851 28.639C104.281 28.3198 104.832 28.1602 105.504 28.1602C106.2 28.1602 106.763 28.3042 107.192 28.5923C107.63 28.8725 107.849 29.1918 107.849 29.5499C107.849 29.6978 107.798 29.8185 107.697 29.9119C107.595 30.0054 107.466 30.0521 107.31 30.0521C107.161 30.0521 107.036 30.0015 106.935 29.9003C106.841 29.799 106.759 29.6784 106.688 29.5382C106.626 29.3903 106.555 29.2463 106.477 29.1061C106.407 28.9582 106.294 28.8336 106.137 28.7324C105.989 28.6312 105.801 28.5806 105.575 28.5806C105.293 28.5806 105.059 28.6662 104.871 28.8375C104.684 29.0088 104.59 29.2229 104.59 29.4798C104.59 29.7679 104.707 29.9937 104.942 30.1572C105.176 30.3207 105.457 30.4453 105.786 30.5309C106.122 30.6088 106.458 30.6983 106.794 30.7995C107.13 30.9007 107.415 31.0798 107.65 31.3367C107.884 31.5937 108.001 31.9362 108.001 32.3644C108.001 32.8316 107.775 33.2209 107.321 33.5323C106.876 33.8359 106.282 33.9878 105.539 33.9878Z" fill="white"/>
<path d="M101.915 32.785C101.915 32.9874 101.946 33.1392 102.008 33.2405C102.071 33.3417 102.137 33.4001 102.208 33.4156C102.286 33.4234 102.356 33.4468 102.419 33.4857C102.481 33.5169 102.512 33.5752 102.512 33.6609C102.512 33.8555 102.219 33.9528 101.633 33.9528C101.305 33.9528 101.063 33.8867 100.906 33.7543C100.75 33.622 100.676 33.4001 100.684 33.0886C100.34 33.6959 99.7535 33.9996 98.925 33.9996C98.2685 33.9996 97.741 33.7816 97.3424 33.3456C96.9438 32.9096 96.7444 32.2789 96.7444 31.4536V29.4332C96.7444 29.2542 96.6702 29.0946 96.5217 28.9544C96.3732 28.8065 96.299 28.7053 96.299 28.6508V28.6157C96.299 28.499 96.3693 28.4289 96.51 28.4055L97.741 28.207C98.0067 28.1681 98.1396 28.2265 98.1396 28.3822L98.1161 31.5821C98.1161 32.82 98.5069 33.439 99.2885 33.439C99.648 33.439 99.945 33.295 100.179 33.0069C100.422 32.711 100.543 32.3295 100.543 31.8624V29.4332C100.543 29.2542 100.465 29.0946 100.308 28.9544C100.16 28.8065 100.086 28.7053 100.086 28.6508V28.6157C100.086 28.499 100.152 28.4289 100.285 28.4055L101.539 28.207C101.79 28.1681 101.915 28.2265 101.915 28.3822V32.785Z" fill="white"/>
<path d="M93.3703 29.4214C94.105 29.5226 94.6717 29.764 95.0703 30.1455C95.4767 30.5192 95.6799 30.9902 95.6799 31.5586C95.6799 32.2593 95.3673 32.8238 94.742 33.252C94.1246 33.6724 93.3078 33.8826 92.2918 33.8826H88.974C88.8098 33.8826 88.7278 33.8281 88.7278 33.7191V33.6724C88.7278 33.6101 88.7981 33.5128 88.9388 33.3804C89.0873 33.2403 89.1616 33.0846 89.1616 32.9133V26.5601C89.1616 26.3889 89.0873 26.237 88.9388 26.1047C88.7981 25.9645 88.7278 25.8594 88.7278 25.7894V25.7543C88.7278 25.6453 88.8098 25.5908 88.974 25.5908H91.8228C92.7842 25.5908 93.5345 25.7855 94.0738 26.1747C94.6131 26.5562 94.8827 27.0545 94.8827 27.6696C94.8827 28.1134 94.7459 28.491 94.4724 28.8024C94.2066 29.1061 93.8393 29.3124 93.3703 29.4214ZM90.5801 26.6536V28.6973C90.5801 28.8453 90.627 28.9659 90.7208 29.0594C90.8146 29.1528 90.9396 29.1995 91.096 29.1995H92.1511C92.5888 29.1995 92.9405 29.0788 93.2062 28.8375C93.4798 28.5883 93.6165 28.273 93.6165 27.8915C93.6165 27.3543 93.4524 26.9377 93.1242 26.6419C92.7959 26.3382 92.3465 26.1864 91.7759 26.1864H91.0022C90.7208 26.1864 90.5801 26.3421 90.5801 26.6536ZM92.1745 33.287C93.5423 33.287 94.2262 32.7848 94.2262 31.7805C94.2262 31.2355 94.0034 30.7683 93.5579 30.379C93.1124 29.982 92.4989 29.7834 91.7173 29.7834H90.5801V32.5863C90.5801 32.7887 90.6387 32.9561 90.756 33.0885C90.8732 33.2208 91.0256 33.287 91.2132 33.287H92.1745Z" fill="white"/>
<path d="M83.186 33.8831C83.0219 33.8831 82.9398 33.8247 82.9398 33.7079V33.6729C82.9398 33.595 83.0102 33.4899 83.1508 33.3575C83.2993 33.2252 83.3736 33.0772 83.3736 32.9137V26.7591C83.3736 26.5723 83.2993 26.4049 83.1508 26.257C83.0102 26.109 82.9398 26.0117 82.9398 25.965V25.93C82.9398 25.8599 83.0063 25.7898 83.1391 25.7197L84.3232 25.1358C84.4561 25.0813 84.5577 25.0774 84.628 25.1241C84.7062 25.1631 84.7453 25.2292 84.7453 25.3227V32.9137C84.7453 33.0772 84.8234 33.2291 84.9797 33.3692C85.1439 33.5016 85.2259 33.6028 85.2259 33.6729V33.7079C85.2259 33.8247 85.14 33.8831 84.968 33.8831H83.186Z" fill="white"/>
<path d="M81.9027 32.8316C81.9184 33.0029 81.9613 33.1391 82.0317 33.2403C82.1098 33.3338 82.1841 33.3922 82.2544 33.4155C82.3326 33.4389 82.399 33.47 82.4537 33.5089C82.5163 33.5479 82.5475 33.5985 82.5475 33.6608C82.5475 33.8554 82.231 33.9527 81.5979 33.9527C81.2853 33.9527 81.0547 33.906 80.9062 33.8126C80.7655 33.7114 80.6835 33.5245 80.66 33.252C80.3474 33.7503 79.8042 33.9994 79.0304 33.9994C78.3739 33.9994 77.8424 33.8476 77.436 33.544C77.0374 33.2326 76.8381 32.7966 76.8381 32.236C76.8303 31.6832 77.0296 31.255 77.436 30.9513C77.8424 30.6399 78.3544 30.4842 78.9718 30.4842C79.5345 30.4842 79.9879 30.6165 80.3318 30.8813L80.3083 30.6477C80.238 29.9314 80.1129 29.4098 79.9332 29.0828C79.7534 28.7558 79.4681 28.5923 79.0773 28.5923C78.835 28.5923 78.6318 28.6662 78.4677 28.8142C78.3114 28.9621 78.202 29.1256 78.1394 29.3047C78.0847 29.4759 78.0027 29.6355 77.8932 29.7835C77.7838 29.9314 77.647 30.0054 77.4829 30.0054C77.311 30.0054 77.1703 29.9587 77.0609 29.8652C76.9593 29.764 76.9085 29.6317 76.9085 29.4682C76.9085 29.0944 77.1117 28.783 77.5181 28.5339C77.9323 28.2847 78.4521 28.1602 79.0773 28.1602C79.812 28.1602 80.406 28.3782 80.8593 28.8142C81.3126 29.2424 81.5823 29.8341 81.6683 30.5893L81.9027 32.8316ZM79.4173 33.5557C79.7378 33.5557 79.9957 33.4389 80.1911 33.2053C80.3943 32.9717 80.4881 32.6953 80.4724 32.3761L80.4373 32.0141C80.4138 31.6793 80.3005 31.4146 80.0973 31.2199C79.8941 31.0253 79.6362 30.928 79.3235 30.928C78.9953 30.928 78.7295 31.0331 78.5263 31.2433C78.3231 31.4457 78.2215 31.7221 78.2215 32.0725C78.2215 32.4851 78.3309 32.8355 78.5498 33.1236C78.7764 33.4116 79.0656 33.5557 79.4173 33.5557Z" fill="white"/>
<path d="M73.3897 28.1604C74.1322 28.1604 74.7692 28.4212 75.3006 28.9428C75.8399 29.4567 76.1096 30.1379 76.1096 30.9866C76.1096 31.8586 75.8438 32.5788 75.3123 33.1471C74.7887 33.7155 74.1517 33.9997 73.4014 33.9997C72.7136 33.9997 72.1587 33.7544 71.7366 33.2639L71.7484 33.6843C71.7484 33.8323 71.6702 33.9062 71.5139 33.9062L70.2477 33.8829C70.107 33.8829 70.0367 33.8284 70.0367 33.7194V33.6843C70.0367 33.622 70.111 33.5208 70.2595 33.3807C70.408 33.2328 70.4822 33.0732 70.4822 32.9019V26.7706C70.4822 26.6305 70.4392 26.5137 70.3532 26.4203C70.2751 26.319 70.193 26.2373 70.107 26.175C70.0211 26.1127 69.9781 26.0465 69.9781 25.9765V25.9414C69.9781 25.8558 70.0562 25.7779 70.2126 25.7079L71.4201 25.1356C71.5451 25.0733 71.6468 25.0617 71.7249 25.1006C71.8031 25.1317 71.8421 25.2096 71.8421 25.3342V28.7793C72.2173 28.3667 72.7331 28.1604 73.3897 28.1604ZM73.2373 33.5559C73.7062 33.5559 74.0696 33.369 74.3276 32.9953C74.5933 32.6216 74.7262 32.096 74.7262 31.4187C74.7262 30.5778 74.5698 29.9005 74.2572 29.3866C73.9524 28.865 73.5499 28.6042 73.0497 28.6042C72.7214 28.6042 72.4361 28.7326 72.1939 28.9895C71.9594 29.2387 71.8421 29.5501 71.8421 29.9238V31.8975C71.8421 32.3257 71.9828 32.7111 72.2642 33.0537C72.5534 33.3885 72.8777 33.5559 73.2373 33.5559Z" fill="white"/>
<path d="M66.4932 33.9994C65.5319 33.9994 64.762 33.7075 64.1837 33.1236C63.6053 32.5396 63.3161 31.8389 63.3161 31.0214C63.3161 30.2039 63.5975 29.5227 64.1602 28.9777C64.7229 28.4327 65.4107 28.1602 66.2236 28.1602C67.1302 28.1602 67.8727 28.4482 68.4511 29.0244C69.0294 29.5927 69.3186 30.2895 69.3186 31.1148C69.3186 31.9323 69.0568 32.6175 68.5331 33.1703C68.0095 33.7231 67.3295 33.9994 66.4932 33.9994ZM66.6691 33.5557C67.0442 33.5557 67.349 33.3844 67.5835 33.0418C67.818 32.6914 67.9352 32.2087 67.9352 31.5937C67.9352 30.7684 67.7555 30.0638 67.3959 29.4798C67.0442 28.8959 66.6026 28.6039 66.0712 28.6039C65.6491 28.6039 65.313 28.7752 65.0629 29.1178C64.8206 29.4526 64.6995 29.9353 64.6995 30.5659C64.6995 31.3289 64.8832 32.018 65.2505 32.6331C65.6257 33.2481 66.0985 33.5557 66.6691 33.5557Z" fill="white"/>
<path d="M60.5864 33.8831C60.4223 33.8831 60.3402 33.8247 60.3402 33.7079V33.6729C60.3402 33.595 60.4106 33.4899 60.5512 33.3575C60.6997 33.2252 60.774 33.0772 60.774 32.9137V26.7591C60.774 26.5723 60.6997 26.4049 60.5512 26.257C60.4106 26.109 60.3402 26.0117 60.3402 25.965V25.93C60.3402 25.8599 60.4066 25.7898 60.5395 25.7197L61.7236 25.1358C61.8565 25.0813 61.9581 25.0774 62.0284 25.1241C62.1066 25.1631 62.1457 25.2292 62.1457 25.3227V32.9137C62.1457 33.0772 62.2238 33.2291 62.3801 33.3692C62.5443 33.5016 62.6263 33.6028 62.6263 33.6729V33.7079C62.6263 33.8247 62.5403 33.8831 62.3684 33.8831H60.5864Z" fill="white"/>
<path d="M56.0637 34C54.9304 34 53.9573 33.5796 53.1445 32.7387C52.3395 31.8979 51.937 30.9052 51.937 29.7607C51.937 28.4838 52.3121 27.4522 53.0624 26.6659C53.8206 25.8795 54.7584 25.4863 55.8761 25.4863C56.814 25.4863 57.5995 25.716 58.2326 26.1754C58.8656 26.6269 59.1822 27.1135 59.1822 27.6352C59.1822 27.8298 59.1235 27.9894 59.0063 28.114C58.8891 28.2308 58.7328 28.2892 58.5374 28.2892C58.342 28.2892 58.1583 28.2152 57.9864 28.0673C57.8222 27.9116 57.6698 27.7247 57.5291 27.5067C57.3884 27.2887 57.236 27.0746 57.0719 26.8644C56.9078 26.6464 56.6889 26.4634 56.4154 26.3155C56.1496 26.1598 55.8448 26.0819 55.5009 26.0819C54.8835 26.0819 54.3677 26.3505 53.9534 26.8878C53.5392 27.4172 53.3321 28.0829 53.3321 28.8848C53.3321 30.0604 53.6369 31.0531 54.2465 31.8628C54.8561 32.6648 55.5752 33.0657 56.4037 33.0657C56.9898 33.0657 57.4705 32.9528 57.8457 32.727V30.8118C57.8457 30.7028 57.8066 30.6093 57.7284 30.5315C57.6503 30.4458 57.5643 30.3835 57.4705 30.3446C57.3767 30.3057 57.2908 30.2629 57.2126 30.2162C57.1344 30.1617 57.0954 30.1072 57.0954 30.0527V30.0059C57.0954 29.8814 57.1852 29.8191 57.365 29.8191L59.569 29.8308C59.7332 29.8308 59.8152 29.8892 59.8152 30.0059V30.0527C59.8152 30.1149 59.7605 30.1772 59.6511 30.2395C59.5495 30.3018 59.444 30.3797 59.3346 30.4731C59.2252 30.5587 59.1704 30.6755 59.1704 30.8234V32.4818C59.1704 32.7232 59.0493 32.945 58.807 33.1475C58.4944 33.3966 58.0958 33.6029 57.6112 33.7664C57.1266 33.9222 56.6108 34 56.0637 34Z" fill="white"/>
<path d="M138.421 5.87305C139.189 5.87305 139.797 6.12219 140.243 6.62048C140.708 7.11876 140.94 7.75052 140.94 8.51574C140.94 10.1886 140.252 11.025 138.877 11.025C138.323 11.025 137.903 10.9004 137.617 10.6513C137.331 10.3843 137.162 10.0907 137.108 9.77035C137.072 9.45003 136.983 9.16529 136.84 8.91615C136.697 8.64921 136.483 8.51574 136.197 8.51574C135.536 8.51574 135.205 9.36994 135.205 11.0784V16.0434C135.205 16.4883 135.438 16.9332 135.902 17.3781C136.385 17.8052 136.626 18.1255 136.626 18.3391V18.4459C136.626 18.784 136.411 18.953 135.983 18.953H130.221C129.793 18.953 129.578 18.784 129.578 18.4459V18.3391C129.578 18.1255 129.757 17.8052 130.114 17.3781C130.471 16.9332 130.65 16.4883 130.65 16.0434V10.7313C130.65 10.3754 130.543 10.0729 130.328 9.82374C130.114 9.5746 129.9 9.36105 129.685 9.18309C129.471 9.00513 129.364 8.80937 129.364 8.59582V8.51574C129.364 8.21321 129.569 7.95517 129.98 7.74162L133.758 5.97982C134.116 5.85525 134.366 5.84635 134.509 5.95313C134.652 6.0599 134.723 6.26456 134.723 6.56709V8.51574C135.331 6.75394 136.563 5.87305 138.421 5.87305Z" fill="white"/>
<path d="M127.414 16.0434C127.467 16.4705 127.565 16.8175 127.708 17.0845C127.869 17.3336 128.021 17.4938 128.164 17.565C128.325 17.6362 128.468 17.7251 128.593 17.8319C128.718 17.9387 128.78 18.0722 128.78 18.2323C128.78 18.8196 127.771 19.1132 125.752 19.1132C124.93 19.1132 124.314 19.0153 123.903 18.8196C123.51 18.6238 123.26 18.2946 123.153 17.8319C122.474 18.7573 121.34 19.22 119.75 19.22C118.249 19.22 117.025 18.873 116.079 18.1789C115.15 17.4849 114.685 16.4794 114.685 15.1625C114.685 13.8812 115.15 12.8846 116.079 12.1728C117.008 11.4432 118.151 11.0784 119.509 11.0784C120.563 11.0784 121.465 11.3008 122.215 11.7457V11.6656C122.036 9.90382 121.831 8.7115 121.599 8.08864C121.384 7.46578 120.956 7.15435 120.312 7.15435C119.902 7.15435 119.571 7.34121 119.321 7.71492C119.071 8.08864 118.883 8.49795 118.758 8.94284C118.651 9.38774 118.437 9.79705 118.115 10.1708C117.794 10.5445 117.365 10.7313 116.829 10.7313C116.275 10.7313 115.82 10.5712 115.462 10.2508C115.123 9.93052 114.953 9.51231 114.953 8.99623C114.953 7.96407 115.471 7.18994 116.507 6.67386C117.543 6.13999 118.812 5.87305 120.312 5.87305C122.099 5.87305 123.573 6.36243 124.734 7.34121C125.913 8.30219 126.61 9.61019 126.824 11.2652L127.414 16.0434ZM121.224 17.8586C121.634 17.8586 121.965 17.6628 122.215 17.2713C122.483 16.8798 122.617 16.4349 122.617 15.9366L122.51 14.7087C122.331 13.2317 121.777 12.4931 120.848 12.4931C120.438 12.4931 120.107 12.6622 119.857 13.0003C119.607 13.3206 119.482 13.7566 119.482 14.3083C119.482 15.3049 119.634 16.1502 119.937 16.8442C120.259 17.5205 120.688 17.8586 121.224 17.8586Z" fill="white"/>
<path d="M109.451 19.2191C108.093 19.2191 107.021 18.792 106.235 17.9378C105.467 17.0836 105.083 15.8646 105.083 14.2808V7.95433H104.065C103.886 7.95433 103.734 7.90094 103.609 7.79417C103.502 7.6696 103.448 7.51833 103.448 7.34037V6.75311C103.448 6.3438 103.654 6.13915 104.065 6.13915H104.574C105.396 6.13915 106.101 5.8989 106.691 5.41841C107.28 4.92013 107.664 4.26168 107.843 3.44306C107.932 2.98037 108.174 2.74902 108.567 2.74902H109.183C109.665 2.74902 109.906 2.98037 109.906 3.44306V6.13915H112.667C112.845 6.13915 112.988 6.20143 113.095 6.326C113.22 6.43278 113.283 6.57515 113.283 6.75311V7.34037C113.283 7.51833 113.22 7.6696 113.095 7.79417C112.988 7.90094 112.845 7.95433 112.667 7.95433H109.906V14.3609C109.906 14.8058 110.023 15.1617 110.255 15.4286C110.487 15.6778 110.773 15.8023 111.112 15.8023C111.881 15.8023 112.47 15.4731 112.881 14.8147C113.006 14.6545 113.149 14.5655 113.31 14.5477C113.47 14.5121 113.604 14.5388 113.712 14.6278C113.837 14.7168 113.899 14.8414 113.899 15.0015C113.899 16.1227 113.497 17.1103 112.693 17.9645C111.907 18.8009 110.827 19.2191 109.451 19.2191Z" fill="white"/>
<path d="M100.686 5.87305C101.454 5.87305 102.061 6.12219 102.508 6.62048C102.972 7.11876 103.205 7.75052 103.205 8.51574C103.205 10.1886 102.517 11.025 101.141 11.025C100.587 11.025 100.168 10.9004 99.8817 10.6513C99.5959 10.3843 99.4262 10.0907 99.3726 9.77035C99.3369 9.45003 99.2475 9.16529 99.1046 8.91615C98.9617 8.64921 98.7473 8.51574 98.4615 8.51574C97.8005 8.51574 97.47 9.36994 97.47 11.0784V16.0434C97.47 16.4883 97.7023 16.9332 98.1667 17.3781C98.6491 17.8052 98.8903 18.1255 98.8903 18.3391V18.4459C98.8903 18.784 98.6759 18.953 98.2471 18.953H92.4858C92.057 18.953 91.8427 18.784 91.8427 18.4459V18.3391C91.8427 18.1255 92.0213 17.8052 92.3786 17.3781C92.7359 16.9332 92.9145 16.4883 92.9145 16.0434V10.7313C92.9145 10.3754 92.8074 10.0729 92.593 9.82374C92.3786 9.5746 92.1642 9.36105 91.9499 9.18309C91.7355 9.00513 91.6283 8.80937 91.6283 8.59582V8.51574C91.6283 8.21321 91.8337 7.95517 92.2446 7.74162L96.023 5.97982C96.3803 5.85525 96.6304 5.84635 96.7733 5.95313C96.9162 6.0599 96.9877 6.26456 96.9877 6.56709V8.51574C97.5951 6.75394 98.8277 5.87305 100.686 5.87305Z" fill="white"/>
<path d="M83.2966 19.22C81.2243 19.22 79.4647 18.5882 78.0177 17.3247C76.5885 16.0434 75.8739 14.4418 75.8739 12.5198C75.8739 10.5979 76.5885 9.01403 78.0177 7.76831C79.4468 6.5048 81.144 5.87305 83.1091 5.87305C85.1456 5.87305 86.8785 6.5048 88.3077 7.76831C89.7368 9.03182 90.4514 10.6335 90.4514 12.5732C90.4514 14.4952 89.7547 16.0879 88.3613 17.3514C86.9678 18.5971 85.2796 19.22 83.2966 19.22ZM83.8594 17.912C85.0027 17.912 85.5744 16.8175 85.5744 14.6286C85.5744 13.8278 85.4583 12.8757 85.226 11.7724C85.0116 10.669 84.6365 9.62799 84.1006 8.64921C83.5825 7.67043 83.0019 7.18105 82.3588 7.18105C81.7335 7.18105 81.2869 7.45688 81.0189 8.00856C80.7509 8.56023 80.617 9.39664 80.617 10.5178C80.617 11.105 80.6884 11.7991 80.8313 12.5999C80.9742 13.4007 81.1708 14.2104 81.4209 15.029C81.671 15.8299 82.0104 16.515 82.4391 17.0845C82.8858 17.6362 83.3592 17.912 83.8594 17.912Z" fill="white"/>
<path d="M74.3276 16.0163C74.4169 16.4612 74.6223 16.9061 74.9439 17.351C75.2655 17.7781 75.4262 18.1074 75.4262 18.3387V18.4455C75.4262 18.7836 75.2119 18.9527 74.7831 18.9527H69.2094C68.7806 18.9527 68.5662 18.7836 68.5662 18.4455V18.3387C68.5662 18.1607 68.7449 17.8493 69.1022 17.4044C69.4595 16.9417 69.5934 16.479 69.5041 16.0163L67.8963 6.70017L63.7964 18.1518C63.6177 18.6679 63.2962 18.926 62.8317 18.926C62.3136 18.926 61.9385 18.6768 61.7062 18.1785L57.0168 6.27306L55.5697 16.0163C55.4983 16.479 55.6412 16.9328 55.9985 17.3777C56.3558 17.8226 56.5344 18.1429 56.5344 18.3387V18.4455C56.5344 18.7836 56.32 18.9527 55.8913 18.9527H52.5685C52.1397 18.9527 51.9254 18.7836 51.9254 18.4455V18.3387C51.9254 18.1074 52.0861 17.7781 52.4077 17.351C52.7471 16.9061 52.9526 16.4612 53.024 16.0163L55.0606 2.93633C55.1321 2.47363 54.9713 2.01984 54.5782 1.57494C54.2031 1.13004 54.0155 0.809714 54.0155 0.613959V0.507184C54.0155 0.169061 54.221 0 54.6318 0H58.169C58.9015 0 59.3838 0.320327 59.6161 0.96098L63.5016 12.2792L67.2532 1.01437C67.5033 0.338122 67.9678 0 68.6466 0H72.291C72.7019 0 72.9073 0.169061 72.9073 0.507184V0.613959C72.9073 0.791919 72.7108 1.11225 72.3178 1.57494C71.9248 2.03763 71.7729 2.50923 71.8623 2.98971L74.3276 16.0163Z" fill="white"/>
<mask id="mask1_1531_20506" style="mask-type:alpha" maskUnits="userSpaceOnUse" x="3" y="0" width="39" height="32">
<rect x="3.17908" width="38.1493" height="31.875" fill="#D9D9D9"/>
</mask>
<g mask="url(#mask1_1531_20506)">
<path fill-rule="evenodd" clip-rule="evenodd" d="M26.2277 7.61239V31.8748H18.28V7.62114H11.1268V31.8748H3.17908V7.17171H10.7715V0.00875187H18.3638V7.17172H25.8666V0H33.4589V7.17184H41.3284V31.875H33.3806V7.61239H26.2277Z" fill="white"/>
</g>
</g>
</svg>
