<svg width="142" height="34" viewBox="0 0 142 34" fill="none" xmlns="http://www.w3.org/2000/svg">
<mask id="mask0_1531_76117" style="mask-type:alpha" maskUnits="userSpaceOnUse" x="0" y="0" width="142" height="34">
<rect width="142" height="34" fill="#D9D9D9"/>
</mask>
<g mask="url(#mask0_1531_76117)">
<path d="M132.399 33.9887C131.672 33.9887 131.082 33.8525 130.628 33.58C130.175 33.2997 129.948 32.9883 129.948 32.6457C129.948 32.4744 129.999 32.3421 130.101 32.2486C130.21 32.1552 130.355 32.1085 130.535 32.1085C130.691 32.1085 130.82 32.1591 130.921 32.2603C131.031 32.3615 131.117 32.4861 131.179 32.634C131.242 32.782 131.312 32.9299 131.39 33.0778C131.476 33.218 131.601 33.3386 131.766 33.4398C131.937 33.5411 132.149 33.5917 132.399 33.5917C132.719 33.5917 132.977 33.5138 133.172 33.3581C133.376 33.2024 133.477 32.9805 133.477 32.6924C133.477 32.4043 133.36 32.1825 133.125 32.0267C132.891 31.8632 132.606 31.7426 132.27 31.6647C131.941 31.5868 131.609 31.4973 131.273 31.3961C130.937 31.2949 130.652 31.1158 130.417 30.8589C130.183 30.5942 130.066 30.2477 130.066 29.8195C130.066 29.3446 130.281 28.9514 130.71 28.64C131.14 28.3207 131.691 28.1611 132.363 28.1611C133.059 28.1611 133.622 28.3052 134.052 28.5932C134.489 28.8735 134.708 29.1927 134.708 29.5509C134.708 29.6988 134.657 29.8195 134.556 29.9129C134.454 30.0063 134.325 30.0531 134.169 30.0531C134.02 30.0531 133.895 30.0025 133.794 29.9012C133.7 29.8 133.618 29.6793 133.548 29.5392C133.485 29.3913 133.415 29.2472 133.337 29.1071C133.266 28.9592 133.153 28.8346 132.997 28.7334C132.848 28.6322 132.66 28.5816 132.434 28.5816C132.152 28.5816 131.918 28.6672 131.73 28.8385C131.543 29.0098 131.449 29.2239 131.449 29.4808C131.449 29.7689 131.566 29.9947 131.801 30.1582C132.035 30.3217 132.317 30.4462 132.645 30.5319C132.981 30.6097 133.317 30.6993 133.653 30.8005C133.989 30.9017 134.274 31.0808 134.509 31.3377C134.743 31.5946 134.861 31.9372 134.861 32.3654C134.861 32.8326 134.634 33.2218 134.181 33.5333C133.735 33.8369 133.141 33.9887 132.399 33.9887Z" fill="#1C1A1E"/>
<path d="M126.857 33.9887C126.13 33.9887 125.54 33.8525 125.087 33.58C124.634 33.2997 124.407 32.9883 124.407 32.6457C124.407 32.4744 124.458 32.3421 124.559 32.2486C124.669 32.1552 124.813 32.1085 124.993 32.1085C125.149 32.1085 125.278 32.1591 125.38 32.2603C125.489 32.3615 125.575 32.4861 125.638 32.634C125.7 32.782 125.771 32.9299 125.849 33.0778C125.935 33.218 126.06 33.3386 126.224 33.4398C126.396 33.5411 126.607 33.5917 126.857 33.5917C127.178 33.5917 127.436 33.5138 127.631 33.3581C127.834 33.2024 127.936 32.9805 127.936 32.6924C127.936 32.4043 127.819 32.1825 127.584 32.0267C127.35 31.8632 127.064 31.7426 126.728 31.6647C126.4 31.5868 126.068 31.4973 125.732 31.3961C125.396 31.2949 125.11 31.1158 124.876 30.8589C124.641 30.5942 124.524 30.2477 124.524 29.8195C124.524 29.3446 124.739 28.9514 125.169 28.64C125.599 28.3207 126.15 28.1611 126.822 28.1611C127.518 28.1611 128.08 28.3052 128.51 28.5932C128.948 28.8735 129.167 29.1927 129.167 29.5509C129.167 29.6988 129.116 29.8195 129.014 29.9129C128.913 30.0063 128.784 30.0531 128.627 30.0531C128.479 30.0531 128.354 30.0025 128.252 29.9012C128.159 29.8 128.076 29.6793 128.006 29.5392C127.944 29.3913 127.873 29.2472 127.795 29.1071C127.725 28.9592 127.611 28.8346 127.455 28.7334C127.307 28.6322 127.119 28.5816 126.892 28.5816C126.611 28.5816 126.377 28.6672 126.189 28.8385C126.001 29.0098 125.908 29.2239 125.908 29.4808C125.908 29.7689 126.025 29.9947 126.259 30.1582C126.494 30.3217 126.775 30.4462 127.103 30.5319C127.44 30.6097 127.776 30.6993 128.112 30.8005C128.448 30.9017 128.733 31.0808 128.967 31.3377C129.202 31.5946 129.319 31.9372 129.319 32.3654C129.319 32.8326 129.093 33.2218 128.639 33.5333C128.194 33.8369 127.6 33.9887 126.857 33.9887Z" fill="#1C1A1E"/>
<path d="M123.432 32.1669C123.494 32.0812 123.572 32.0501 123.666 32.0735C123.768 32.0968 123.815 32.1669 123.807 32.2837C123.744 32.6963 123.502 33.0856 123.08 33.4515C122.658 33.8175 122.107 34.0004 121.427 34.0004C120.63 34.0004 119.965 33.7279 119.434 33.1829C118.91 32.6379 118.648 31.9216 118.648 31.0341C118.648 30.2088 118.918 29.5236 119.457 28.9786C120.005 28.4336 120.669 28.1611 121.45 28.1611C122.154 28.1611 122.693 28.3363 123.068 28.6867C123.451 29.0292 123.643 29.4263 123.643 29.8779C123.643 30.2827 123.443 30.5552 123.045 30.6954L120.208 31.7348C120.356 32.1396 120.579 32.455 120.876 32.6807C121.173 32.9065 121.525 33.0194 121.931 33.0194C122.283 33.0194 122.588 32.9416 122.846 32.7858C123.111 32.6223 123.307 32.416 123.432 32.1669ZM121.216 28.6049C120.849 28.6049 120.556 28.7801 120.337 29.1305C120.118 29.4808 120.008 29.9402 120.008 30.5085C120.008 30.7732 120.032 31.0224 120.079 31.256L122.025 30.4151C122.228 30.3217 122.33 30.1582 122.33 29.9246C122.33 29.6443 122.22 29.3562 122.001 29.0604C121.79 28.7567 121.529 28.6049 121.216 28.6049Z" fill="#1C1A1E"/>
<path d="M117.641 32.9026C117.649 33.0739 117.72 33.2296 117.852 33.3698C117.993 33.5021 118.063 33.6033 118.063 33.6734V33.7201C118.063 33.8369 117.978 33.8953 117.806 33.8953H116.094C115.922 33.8953 115.836 33.8369 115.836 33.7201V33.6734C115.836 33.6033 115.906 33.5021 116.047 33.3698C116.196 33.2296 116.266 33.0739 116.258 32.9026L116.141 30.6487C116.086 29.364 115.676 28.7217 114.91 28.7217C114.542 28.7217 114.245 28.858 114.019 29.1305C113.792 29.3952 113.679 29.7416 113.679 30.1698V32.9143C113.679 33.0856 113.757 33.2374 113.913 33.3698C114.077 33.5021 114.16 33.6033 114.16 33.6734V33.7201C114.16 33.8369 114.074 33.8953 113.902 33.8953H112.084C111.92 33.8953 111.838 33.8369 111.838 33.7201V33.6734C111.838 33.6033 111.916 33.5021 112.073 33.3698C112.229 33.2374 112.307 33.0856 112.307 32.9143V29.7845C112.307 29.6365 112.26 29.5158 112.166 29.4224C112.081 29.329 111.995 29.255 111.909 29.2005C111.823 29.1382 111.78 29.0721 111.78 29.002V28.967C111.78 28.8891 111.85 28.819 111.991 28.7567L113.128 28.2078C113.253 28.1533 113.343 28.1495 113.397 28.1962C113.46 28.2351 113.491 28.3091 113.491 28.4181V29.1772C113.655 28.858 113.894 28.6088 114.206 28.4297C114.519 28.2507 114.875 28.1611 115.273 28.1611C115.875 28.1611 116.383 28.3675 116.797 28.7801C117.212 29.1927 117.446 29.8312 117.501 30.6954L117.641 32.9026Z" fill="#1C1A1E"/>
<path d="M109.861 27.3084C109.572 27.3084 109.338 27.2267 109.158 27.0632C108.978 26.8997 108.888 26.6895 108.888 26.4325C108.888 26.1756 108.978 25.9654 109.158 25.8019C109.338 25.6384 109.572 25.5566 109.861 25.5566C110.143 25.5566 110.369 25.6384 110.541 25.8019C110.721 25.9654 110.811 26.1756 110.811 26.4325C110.811 26.6895 110.721 26.8997 110.541 27.0632C110.369 27.2267 110.143 27.3084 109.861 27.3084ZM108.994 33.8835C108.83 33.8835 108.748 33.8251 108.748 33.7083V33.6616C108.748 33.5915 108.818 33.4903 108.959 33.3579C109.107 33.2256 109.181 33.0738 109.181 32.9025V29.8427C109.181 29.6636 109.107 29.4962 108.959 29.3405C108.818 29.1848 108.748 29.0836 108.748 29.0369V29.0018C108.748 28.9395 108.818 28.8695 108.959 28.7916L110.131 28.2077C110.264 28.1532 110.365 28.1493 110.436 28.196C110.514 28.2349 110.553 28.305 110.553 28.4062V32.9025C110.553 33.0738 110.631 33.2256 110.787 33.3579C110.952 33.4903 111.034 33.5915 111.034 33.6616V33.7083C111.034 33.8251 110.948 33.8835 110.776 33.8835H108.994Z" fill="#1C1A1E"/>
<path d="M105.539 33.9887C104.813 33.9887 104.222 33.8525 103.769 33.58C103.316 33.2997 103.089 32.9883 103.089 32.6457C103.089 32.4744 103.14 32.3421 103.242 32.2486C103.351 32.1552 103.496 32.1085 103.675 32.1085C103.832 32.1085 103.961 32.1591 104.062 32.2603C104.172 32.3615 104.258 32.4861 104.32 32.634C104.383 32.782 104.453 32.9299 104.531 33.0778C104.617 33.218 104.742 33.3386 104.906 33.4398C105.078 33.5411 105.289 33.5917 105.539 33.5917C105.86 33.5917 106.118 33.5138 106.313 33.3581C106.516 33.2024 106.618 32.9805 106.618 32.6924C106.618 32.4043 106.501 32.1825 106.266 32.0267C106.032 31.8632 105.747 31.7426 105.41 31.6647C105.082 31.5868 104.75 31.4973 104.414 31.3961C104.078 31.2949 103.793 31.1158 103.558 30.8589C103.324 30.5942 103.206 30.2477 103.206 29.8195C103.206 29.3446 103.421 28.9514 103.851 28.64C104.281 28.3207 104.832 28.1611 105.504 28.1611C106.2 28.1611 106.763 28.3052 107.192 28.5932C107.63 28.8735 107.849 29.1927 107.849 29.5509C107.849 29.6988 107.798 29.8195 107.697 29.9129C107.595 30.0063 107.466 30.0531 107.31 30.0531C107.161 30.0531 107.036 30.0025 106.935 29.9012C106.841 29.8 106.759 29.6793 106.688 29.5392C106.626 29.3913 106.555 29.2472 106.477 29.1071C106.407 28.9592 106.294 28.8346 106.137 28.7334C105.989 28.6322 105.801 28.5816 105.575 28.5816C105.293 28.5816 105.059 28.6672 104.871 28.8385C104.684 29.0098 104.59 29.2239 104.59 29.4808C104.59 29.7689 104.707 29.9947 104.942 30.1582C105.176 30.3217 105.457 30.4462 105.786 30.5319C106.122 30.6097 106.458 30.6993 106.794 30.8005C107.13 30.9017 107.415 31.0808 107.65 31.3377C107.884 31.5946 108.001 31.9372 108.001 32.3654C108.001 32.8326 107.775 33.2218 107.321 33.5333C106.876 33.8369 106.282 33.9887 105.539 33.9887Z" fill="#1C1A1E"/>
<path d="M101.915 32.7855C101.915 32.9879 101.946 33.1397 102.008 33.2409C102.071 33.3422 102.137 33.4006 102.208 33.4161C102.286 33.4239 102.356 33.4473 102.419 33.4862C102.481 33.5173 102.512 33.5757 102.512 33.6614C102.512 33.856 102.219 33.9533 101.633 33.9533C101.305 33.9533 101.063 33.8872 100.906 33.7548C100.75 33.6224 100.676 33.4006 100.684 33.0891C100.34 33.6964 99.7535 34.0001 98.925 34.0001C98.2685 34.0001 97.741 33.7821 97.3424 33.3461C96.9438 32.9101 96.7444 32.2794 96.7444 31.4541V29.4337C96.7444 29.2547 96.6702 29.0951 96.5217 28.9549C96.3732 28.807 96.299 28.7058 96.299 28.6513V28.6162C96.299 28.4994 96.3693 28.4294 96.51 28.406L97.741 28.2075C98.0067 28.1686 98.1396 28.2269 98.1396 28.3827L98.1161 31.5826C98.1161 32.8205 98.5069 33.4395 99.2885 33.4395C99.648 33.4395 99.945 33.2954 100.179 33.0074C100.422 32.7115 100.543 32.33 100.543 31.8629V29.4337C100.543 29.2547 100.465 29.0951 100.308 28.9549C100.16 28.807 100.086 28.7058 100.086 28.6513V28.6162C100.086 28.4994 100.152 28.4294 100.285 28.406L101.539 28.2075C101.79 28.1686 101.915 28.2269 101.915 28.3827V32.7855Z" fill="#1C1A1E"/>
<path d="M93.3703 29.4224C94.105 29.5236 94.6717 29.7649 95.0703 30.1464C95.4767 30.5202 95.6799 30.9912 95.6799 31.5595C95.6799 32.2603 95.3673 32.8247 94.742 33.2529C94.1246 33.6734 93.3078 33.8836 92.2918 33.8836H88.974C88.8098 33.8836 88.7278 33.8291 88.7278 33.7201V33.6734C88.7278 33.6111 88.7981 33.5138 88.9388 33.3814C89.0873 33.2413 89.1616 33.0855 89.1616 32.9143V26.5611C89.1616 26.3898 89.0873 26.238 88.9388 26.1057C88.7981 25.9655 88.7278 25.8604 88.7278 25.7903V25.7553C88.7278 25.6463 88.8098 25.5918 88.974 25.5918H91.8228C92.7842 25.5918 93.5345 25.7864 94.0738 26.1757C94.6131 26.5572 94.8827 27.0555 94.8827 27.6706C94.8827 28.1144 94.7459 28.492 94.4724 28.8034C94.2066 29.107 93.8393 29.3134 93.3703 29.4224ZM90.5801 26.6545V28.6983C90.5801 28.8462 90.627 28.9669 90.7208 29.0603C90.8146 29.1538 90.9396 29.2005 91.096 29.2005H92.1511C92.5888 29.2005 92.9405 29.0798 93.2062 28.8384C93.4798 28.5893 93.6165 28.274 93.6165 27.8925C93.6165 27.3553 93.4524 26.9387 93.1242 26.6429C92.7959 26.3392 92.3465 26.1874 91.7759 26.1874H91.0022C90.7208 26.1874 90.5801 26.3431 90.5801 26.6545ZM92.1745 33.288C93.5423 33.288 94.2262 32.7858 94.2262 31.7814C94.2262 31.2364 94.0034 30.7693 93.5579 30.38C93.1124 29.9829 92.4989 29.7844 91.7173 29.7844H90.5801V32.5873C90.5801 32.7897 90.6387 32.9571 90.756 33.0894C90.8732 33.2218 91.0256 33.288 91.2132 33.288H92.1745Z" fill="#1C1A1E"/>
<path d="M83.186 33.8831C83.0219 33.8831 82.9398 33.8247 82.9398 33.7079V33.6729C82.9398 33.595 83.0102 33.4899 83.1508 33.3575C83.2993 33.2252 83.3736 33.0772 83.3736 32.9137V26.7591C83.3736 26.5723 83.2993 26.4049 83.1508 26.257C83.0102 26.109 82.9398 26.0117 82.9398 25.965V25.93C82.9398 25.8599 83.0063 25.7898 83.1391 25.7197L84.3232 25.1358C84.4561 25.0813 84.5577 25.0774 84.628 25.1241C84.7062 25.1631 84.7453 25.2292 84.7453 25.3227V32.9137C84.7453 33.0772 84.8234 33.2291 84.9797 33.3692C85.1439 33.5016 85.2259 33.6028 85.2259 33.6729V33.7079C85.2259 33.8247 85.14 33.8831 84.968 33.8831H83.186Z" fill="#1C1A1E"/>
<path d="M81.9027 32.8326C81.9184 33.0038 81.9613 33.1401 82.0317 33.2413C82.1098 33.3347 82.1841 33.3931 82.2544 33.4165C82.3326 33.4398 82.399 33.471 82.4537 33.5099C82.5163 33.5488 82.5475 33.5995 82.5475 33.6617C82.5475 33.8564 82.231 33.9537 81.5979 33.9537C81.2853 33.9537 81.0547 33.907 80.9062 33.8136C80.7655 33.7123 80.6835 33.5255 80.66 33.253C80.3474 33.7513 79.8042 34.0004 79.0304 34.0004C78.3739 34.0004 77.8424 33.8486 77.436 33.545C77.0374 33.2335 76.8381 32.7975 76.8381 32.237C76.8303 31.6842 77.0296 31.256 77.436 30.9523C77.8424 30.6409 78.3544 30.4852 78.9718 30.4852C79.5345 30.4852 79.9879 30.6175 80.3318 30.8822L80.3083 30.6487C80.238 29.9324 80.1129 29.4107 79.9332 29.0837C79.7534 28.7567 79.4681 28.5932 79.0773 28.5932C78.835 28.5932 78.6318 28.6672 78.4677 28.8151C78.3114 28.9631 78.202 29.1266 78.1394 29.3056C78.0847 29.4769 78.0027 29.6365 77.8932 29.7845C77.7838 29.9324 77.647 30.0063 77.4829 30.0063C77.311 30.0063 77.1703 29.9596 77.0609 29.8662C76.9593 29.765 76.9085 29.6326 76.9085 29.4691C76.9085 29.0954 77.1117 28.784 77.5181 28.5348C77.9323 28.2857 78.4521 28.1611 79.0773 28.1611C79.812 28.1611 80.406 28.3791 80.8593 28.8151C81.3126 29.2433 81.5823 29.8351 81.6683 30.5903L81.9027 32.8326ZM79.4173 33.5566C79.7378 33.5566 79.9957 33.4398 80.1911 33.2063C80.3943 32.9727 80.4881 32.6963 80.4724 32.3771L80.4373 32.0151C80.4138 31.6803 80.3005 31.4156 80.0973 31.2209C79.8941 31.0263 79.6362 30.929 79.3235 30.929C78.9953 30.929 78.7295 31.0341 78.5263 31.2443C78.3231 31.4467 78.2215 31.7231 78.2215 32.0735C78.2215 32.4861 78.3309 32.8365 78.5498 33.1245C78.7764 33.4126 79.0656 33.5566 79.4173 33.5566Z" fill="#1C1A1E"/>
<path d="M73.3897 28.1609C74.1322 28.1609 74.7692 28.4217 75.3006 28.9433C75.8399 29.4572 76.1096 30.1384 76.1096 30.9871C76.1096 31.8591 75.8438 32.5793 75.3123 33.1476C74.7887 33.716 74.1517 34.0001 73.4014 34.0001C72.7136 34.0001 72.1587 33.7549 71.7366 33.2644L71.7484 33.6848C71.7484 33.8328 71.6702 33.9067 71.5139 33.9067L70.2477 33.8834C70.107 33.8834 70.0367 33.8289 70.0367 33.7199V33.6848C70.0367 33.6225 70.111 33.5213 70.2595 33.3812C70.408 33.2333 70.4822 33.0736 70.4822 32.9024V26.7711C70.4822 26.631 70.4392 26.5142 70.3532 26.4208C70.2751 26.3195 70.193 26.2378 70.107 26.1755C70.0211 26.1132 69.9781 26.047 69.9781 25.977V25.9419C69.9781 25.8563 70.0562 25.7784 70.2126 25.7084L71.4201 25.1361C71.5451 25.0738 71.6468 25.0621 71.7249 25.1011C71.8031 25.1322 71.8421 25.2101 71.8421 25.3346V28.7798C72.2173 28.3672 72.7331 28.1609 73.3897 28.1609ZM73.2373 33.5564C73.7062 33.5564 74.0696 33.3695 74.3276 32.9958C74.5933 32.6221 74.7262 32.0965 74.7262 31.4192C74.7262 30.5783 74.5698 29.901 74.2572 29.3871C73.9524 28.8655 73.5499 28.6046 73.0497 28.6046C72.7214 28.6046 72.4361 28.7331 72.1939 28.99C71.9594 29.2392 71.8421 29.5506 71.8421 29.9243V31.898C71.8421 32.3262 71.9828 32.7116 72.2642 33.0542C72.5534 33.389 72.8777 33.5564 73.2373 33.5564Z" fill="#1C1A1E"/>
<path d="M66.4932 34.0004C65.5319 34.0004 64.762 33.7085 64.1837 33.1245C63.6053 32.5406 63.3161 31.8399 63.3161 31.0224C63.3161 30.2049 63.5975 29.5236 64.1602 28.9786C64.7229 28.4336 65.4107 28.1611 66.2236 28.1611C67.1302 28.1611 67.8727 28.4492 68.4511 29.0253C69.0294 29.5937 69.3186 30.2905 69.3186 31.1158C69.3186 31.9333 69.0568 32.6185 68.5331 33.1712C68.0095 33.724 67.3295 34.0004 66.4932 34.0004ZM66.6691 33.5566C67.0442 33.5566 67.349 33.3853 67.5835 33.0428C67.818 32.6924 67.9352 32.2097 67.9352 31.5946C67.9352 30.7693 67.7555 30.0647 67.3959 29.4808C67.0442 28.8969 66.6026 28.6049 66.0712 28.6049C65.6491 28.6049 65.313 28.7762 65.0629 29.1188C64.8206 29.4536 64.6995 29.9363 64.6995 30.5669C64.6995 31.3299 64.8832 32.019 65.2505 32.634C65.6257 33.2491 66.0985 33.5566 66.6691 33.5566Z" fill="#1C1A1E"/>
<path d="M60.5864 33.8831C60.4223 33.8831 60.3402 33.8247 60.3402 33.7079V33.6729C60.3402 33.595 60.4106 33.4899 60.5512 33.3575C60.6997 33.2252 60.774 33.0772 60.774 32.9137V26.7591C60.774 26.5723 60.6997 26.4049 60.5512 26.257C60.4106 26.109 60.3402 26.0117 60.3402 25.965V25.93C60.3402 25.8599 60.4066 25.7898 60.5395 25.7197L61.7236 25.1358C61.8565 25.0813 61.9581 25.0774 62.0284 25.1241C62.1066 25.1631 62.1457 25.2292 62.1457 25.3227V32.9137C62.1457 33.0772 62.2238 33.2291 62.3801 33.3692C62.5443 33.5016 62.6263 33.6028 62.6263 33.6729V33.7079C62.6263 33.8247 62.5403 33.8831 62.3684 33.8831H60.5864Z" fill="#1C1A1E"/>
<path d="M56.0637 34C54.9304 34 53.9573 33.5796 53.1445 32.7387C52.3395 31.8979 51.937 30.9052 51.937 29.7607C51.937 28.4838 52.3121 27.4522 53.0624 26.6659C53.8206 25.8795 54.7584 25.4863 55.8761 25.4863C56.814 25.4863 57.5995 25.716 58.2326 26.1754C58.8656 26.6269 59.1822 27.1135 59.1822 27.6352C59.1822 27.8298 59.1235 27.9894 59.0063 28.114C58.8891 28.2308 58.7328 28.2892 58.5374 28.2892C58.342 28.2892 58.1583 28.2152 57.9864 28.0673C57.8222 27.9116 57.6698 27.7247 57.5291 27.5067C57.3884 27.2887 57.236 27.0746 57.0719 26.8644C56.9078 26.6464 56.6889 26.4634 56.4154 26.3155C56.1496 26.1598 55.8448 26.0819 55.5009 26.0819C54.8835 26.0819 54.3677 26.3505 53.9534 26.8878C53.5392 27.4172 53.3321 28.0829 53.3321 28.8848C53.3321 30.0604 53.6369 31.0531 54.2465 31.8628C54.8561 32.6648 55.5752 33.0657 56.4037 33.0657C56.9898 33.0657 57.4705 32.9528 57.8457 32.727V30.8118C57.8457 30.7028 57.8066 30.6093 57.7284 30.5315C57.6503 30.4458 57.5643 30.3835 57.4705 30.3446C57.3767 30.3057 57.2908 30.2629 57.2126 30.2162C57.1344 30.1617 57.0954 30.1072 57.0954 30.0527V30.0059C57.0954 29.8814 57.1852 29.8191 57.365 29.8191L59.569 29.8308C59.7332 29.8308 59.8152 29.8892 59.8152 30.0059V30.0527C59.8152 30.1149 59.7605 30.1772 59.6511 30.2395C59.5495 30.3018 59.444 30.3797 59.3346 30.4731C59.2252 30.5587 59.1704 30.6755 59.1704 30.8234V32.4818C59.1704 32.7232 59.0493 32.945 58.807 33.1475C58.4944 33.3966 58.0958 33.6029 57.6112 33.7664C57.1266 33.9222 56.6108 34 56.0637 34Z" fill="#1C1A1E"/>
<path d="M138.421 5.87256C139.189 5.87256 139.797 6.1217 140.243 6.61999C140.708 7.11827 140.94 7.75003 140.94 8.51525C140.94 10.1881 140.252 11.0245 138.877 11.0245C138.323 11.0245 137.903 10.8999 137.617 10.6508C137.331 10.3838 137.162 10.0902 137.108 9.76987C137.072 9.44954 136.983 9.1648 136.84 8.91566C136.697 8.64872 136.483 8.51525 136.197 8.51525C135.536 8.51525 135.205 9.36946 135.205 11.0779V16.0429C135.205 16.4878 135.438 16.9327 135.902 17.3776C136.385 17.8047 136.626 18.125 136.626 18.3386V18.4454C136.626 18.7835 136.411 18.9526 135.983 18.9526H130.221C129.793 18.9526 129.578 18.7835 129.578 18.4454V18.3386C129.578 18.125 129.757 17.8047 130.114 17.3776C130.471 16.9327 130.65 16.4878 130.65 16.0429V10.7308C130.65 10.3749 130.543 10.0724 130.328 9.82325C130.114 9.57411 129.9 9.36056 129.685 9.1826C129.471 9.00464 129.364 8.80889 129.364 8.59533V8.51525C129.364 8.21272 129.569 7.95468 129.98 7.74113L133.758 5.97933C134.116 5.85476 134.366 5.84586 134.509 5.95264C134.652 6.05942 134.723 6.26407 134.723 6.5666V8.51525C135.331 6.75346 136.563 5.87256 138.421 5.87256Z" fill="#1C1A1E"/>
<path d="M127.414 16.0429C127.467 16.47 127.565 16.8171 127.708 17.084C127.869 17.3331 128.021 17.4933 128.164 17.5645C128.325 17.6357 128.468 17.7246 128.593 17.8314C128.718 17.9382 128.78 18.0717 128.78 18.2318C128.78 18.8191 127.771 19.1127 125.752 19.1127C124.93 19.1127 124.314 19.0148 123.903 18.8191C123.51 18.6233 123.26 18.2941 123.153 17.8314C122.474 18.7568 121.34 19.2195 119.75 19.2195C118.249 19.2195 117.025 18.8725 116.079 18.1784C115.15 17.4844 114.685 16.4789 114.685 15.162C114.685 13.8807 115.15 12.8842 116.079 12.1723C117.008 11.4427 118.151 11.0779 119.509 11.0779C120.563 11.0779 121.465 11.3003 122.215 11.7452V11.6651C122.036 9.90333 121.831 8.71101 121.599 8.08815C121.384 7.46529 120.956 7.15386 120.312 7.15386C119.902 7.15386 119.571 7.34072 119.321 7.71444C119.071 8.08815 118.883 8.49746 118.758 8.94235C118.651 9.38725 118.437 9.79656 118.115 10.1703C117.794 10.544 117.365 10.7308 116.829 10.7308C116.275 10.7308 115.82 10.5707 115.462 10.2504C115.123 9.93003 114.953 9.51182 114.953 8.99574C114.953 7.96358 115.471 7.18946 116.507 6.67338C117.543 6.1395 118.812 5.87256 120.312 5.87256C122.099 5.87256 123.573 6.36195 124.734 7.34072C125.913 8.3017 126.61 9.6097 126.824 11.2647L127.414 16.0429ZM121.224 17.8581C121.634 17.8581 121.965 17.6624 122.215 17.2708C122.483 16.8793 122.617 16.4344 122.617 15.9362L122.51 14.7082C122.331 13.2312 121.777 12.4926 120.848 12.4926C120.438 12.4926 120.107 12.6617 119.857 12.9998C119.607 13.3202 119.482 13.7562 119.482 14.3078C119.482 15.3044 119.634 16.1497 119.937 16.8437C120.259 17.52 120.688 17.8581 121.224 17.8581Z" fill="#1C1A1E"/>
<path d="M109.451 19.2196C108.093 19.2196 107.021 18.7925 106.235 17.9383C105.467 17.0841 105.083 15.8651 105.083 14.2813V7.95482H104.065C103.886 7.95482 103.734 7.90143 103.609 7.79466C103.502 7.67008 103.448 7.51882 103.448 7.34086V6.75359C103.448 6.34429 103.654 6.13963 104.065 6.13963H104.574C105.396 6.13963 106.101 5.89939 106.691 5.4189C107.28 4.92061 107.664 4.26217 107.843 3.44355C107.932 2.98086 108.174 2.74951 108.567 2.74951H109.183C109.665 2.74951 109.906 2.98086 109.906 3.44355V6.13963H112.667C112.845 6.13963 112.988 6.20192 113.095 6.32649C113.22 6.43327 113.283 6.57564 113.283 6.75359V7.34086C113.283 7.51882 113.22 7.67008 113.095 7.79466C112.988 7.90143 112.845 7.95482 112.667 7.95482H109.906V14.3613C109.906 14.8062 110.023 15.1622 110.255 15.4291C110.487 15.6782 110.773 15.8028 111.112 15.8028C111.881 15.8028 112.47 15.4736 112.881 14.8151C113.006 14.655 113.149 14.566 113.31 14.5482C113.47 14.5126 113.604 14.5393 113.712 14.6283C113.837 14.7173 113.899 14.8418 113.899 15.002C113.899 16.1231 113.497 17.1108 112.693 17.965C111.907 18.8014 110.827 19.2196 109.451 19.2196Z" fill="#1C1A1E"/>
<path d="M100.686 5.87256C101.454 5.87256 102.061 6.1217 102.508 6.61999C102.972 7.11827 103.205 7.75003 103.205 8.51525C103.205 10.1881 102.517 11.0245 101.141 11.0245C100.587 11.0245 100.168 10.8999 99.8817 10.6508C99.5959 10.3838 99.4262 10.0902 99.3726 9.76987C99.3369 9.44954 99.2475 9.1648 99.1046 8.91566C98.9617 8.64872 98.7473 8.51525 98.4615 8.51525C97.8005 8.51525 97.47 9.36946 97.47 11.0779V16.0429C97.47 16.4878 97.7023 16.9327 98.1667 17.3776C98.6491 17.8047 98.8903 18.125 98.8903 18.3386V18.4454C98.8903 18.7835 98.6759 18.9526 98.2471 18.9526H92.4858C92.057 18.9526 91.8427 18.7835 91.8427 18.4454V18.3386C91.8427 18.125 92.0213 17.8047 92.3786 17.3776C92.7359 16.9327 92.9145 16.4878 92.9145 16.0429V10.7308C92.9145 10.3749 92.8074 10.0724 92.593 9.82325C92.3786 9.57411 92.1642 9.36056 91.9499 9.1826C91.7355 9.00464 91.6283 8.80889 91.6283 8.59533V8.51525C91.6283 8.21272 91.8337 7.95468 92.2446 7.74113L96.023 5.97933C96.3803 5.85476 96.6304 5.84586 96.7733 5.95264C96.9162 6.05942 96.9877 6.26407 96.9877 6.5666V8.51525C97.5951 6.75346 98.8277 5.87256 100.686 5.87256Z" fill="#1C1A1E"/>
<path d="M83.2966 19.2195C81.2243 19.2195 79.4647 18.5877 78.0177 17.3242C76.5885 16.0429 75.8739 14.4413 75.8739 12.5193C75.8739 10.5974 76.5885 9.01354 78.0177 7.76782C79.4468 6.50431 81.144 5.87256 83.1091 5.87256C85.1456 5.87256 86.8785 6.50431 88.3077 7.76782C89.7368 9.03133 90.4514 10.633 90.4514 12.5727C90.4514 14.4947 89.7547 16.0874 88.3613 17.3509C86.9678 18.5966 85.2796 19.2195 83.2966 19.2195ZM83.8594 17.9115C85.0027 17.9115 85.5744 16.8171 85.5744 14.6282C85.5744 13.8273 85.4583 12.8753 85.226 11.7719C85.0116 10.6686 84.6365 9.6275 84.1006 8.64872C83.5825 7.66995 83.0019 7.18056 82.3588 7.18056C81.7335 7.18056 81.2869 7.4564 81.0189 8.00807C80.7509 8.55974 80.617 9.39615 80.617 10.5173C80.617 11.1046 80.6884 11.7986 80.8313 12.5994C80.9742 13.4002 81.1708 14.2099 81.4209 15.0286C81.671 15.8294 82.0104 16.5145 82.4391 17.084C82.8858 17.6357 83.3592 17.9115 83.8594 17.9115Z" fill="#1C1A1E"/>
<path d="M74.3276 16.0163C74.4169 16.4612 74.6223 16.9061 74.9439 17.351C75.2655 17.7781 75.4262 18.1074 75.4262 18.3387V18.4455C75.4262 18.7836 75.2119 18.9527 74.7831 18.9527H69.2094C68.7806 18.9527 68.5662 18.7836 68.5662 18.4455V18.3387C68.5662 18.1607 68.7449 17.8493 69.1022 17.4044C69.4595 16.9417 69.5934 16.479 69.5041 16.0163L67.8963 6.70017L63.7964 18.1518C63.6177 18.6679 63.2962 18.926 62.8317 18.926C62.3136 18.926 61.9385 18.6768 61.7062 18.1785L57.0168 6.27306L55.5697 16.0163C55.4983 16.479 55.6412 16.9328 55.9985 17.3777C56.3558 17.8226 56.5344 18.1429 56.5344 18.3387V18.4455C56.5344 18.7836 56.32 18.9527 55.8913 18.9527H52.5685C52.1397 18.9527 51.9254 18.7836 51.9254 18.4455V18.3387C51.9254 18.1074 52.0861 17.7781 52.4077 17.351C52.7471 16.9061 52.9526 16.4612 53.024 16.0163L55.0606 2.93633C55.1321 2.47363 54.9713 2.01984 54.5782 1.57494C54.2031 1.13004 54.0155 0.809714 54.0155 0.613959V0.507184C54.0155 0.169061 54.221 0 54.6318 0H58.169C58.9015 0 59.3838 0.320327 59.6161 0.96098L63.5016 12.2792L67.2532 1.01437C67.5033 0.338122 67.9678 0 68.6466 0H72.291C72.7019 0 72.9073 0.169061 72.9073 0.507184V0.613959C72.9073 0.791919 72.7108 1.11225 72.3178 1.57494C71.9248 2.03763 71.7729 2.50923 71.8623 2.98971L74.3276 16.0163Z" fill="#1C1A1E"/>
<mask id="mask1_1531_76117" style="mask-type:alpha" maskUnits="userSpaceOnUse" x="3" y="0" width="39" height="32">
<rect x="3.17908" width="38.1493" height="31.875" fill="#D9D9D9"/>
</mask>
<g mask="url(#mask1_1531_76117)">
<path fill-rule="evenodd" clip-rule="evenodd" d="M26.2277 7.61239V31.8748H18.28V7.62068H11.1268V31.8748H3.17908V7.17171H10.7715V0.00829411H18.3638V7.17172H25.8666V0H33.4589V7.17184H41.3284V31.875H33.3806V7.61239H26.2277Z" fill="#1C1A1E"/>
</g>
</g>
</svg>
