<svg width="37" height="37" viewBox="0 0 37 37" fill="none" xmlns="http://www.w3.org/2000/svg">
<g clip-path="url(#clip0_1531_33910)">
<path d="M8.19998 22.3596L6.91206 27.1676L2.20475 27.2672C0.797957 24.6579 0 21.6725 0 18.5C0 15.4323 0.74607 12.5394 2.06853 9.99207H2.06954L6.26037 10.7604L8.09621 14.9261C7.71197 16.0463 7.50254 17.2488 7.50254 18.5C7.50269 19.8581 7.74868 21.1592 8.19998 22.3596Z" fill="#FBBB00"/>
<path d="M36.6773 15.0439C36.8897 16.1631 37.0005 17.3188 37.0005 18.5C37.0005 19.8245 36.8613 21.1164 36.596 22.3626C35.6954 26.6034 33.3422 30.3064 30.0824 32.9269L30.0814 32.9259L24.8028 32.6566L24.0557 27.9929C26.2188 26.7244 27.9092 24.7392 28.7997 22.3626H18.9072V15.0439H36.6773Z" fill="#518EF8"/>
<path d="M30.0801 32.9259L30.0811 32.927C26.9108 35.4753 22.8834 37 18.4993 37C11.4541 37 5.32879 33.0622 2.2041 27.2672L8.19933 22.3596C9.76164 26.5292 13.7839 29.4974 18.4993 29.4974C20.5262 29.4974 22.425 28.9495 24.0544 27.9929L30.0801 32.9259Z" fill="#28B446"/>
<path d="M30.3093 4.25905L24.3161 9.16559C22.6298 8.11153 20.6364 7.50262 18.5008 7.50262C13.6786 7.50262 9.58113 10.6069 8.09708 14.926L2.07035 9.99202H2.06934C5.14829 4.05576 11.3508 0 18.5008 0C22.9896 0 27.1053 1.59895 30.3093 4.25905Z" fill="#F14336"/>
</g>
<defs>
<clipPath id="clip0_1531_33910">
<rect width="37" height="37" fill="white"/>
</clipPath>
</defs>
</svg>
