<svg width="171" height="398" viewBox="0 0 171 398" fill="none" xmlns="http://www.w3.org/2000/svg">
<path d="M-31.5051 194.495C29.6948 150.489 114.981 164.426 158.986 225.625L-62.6387 384.985C-106.644 323.786 -92.7051 238.501 -31.5051 194.495Z" fill="#4288DA"/>
<path d="M-31.5088 194.491C29.6911 150.484 43.6301 65.1988 -0.375295 3.99991L-222 163.36C-177.995 224.559 -92.7088 238.497 -31.5088 194.491Z" fill="#8553B7"/>
<path d="M169.557 231.432C123.793 168.249 35.5038 153.94 -27.8893 199.523C-91.2823 245.106 -105.825 333.356 -60.4985 396.854L169.557 231.432Z" stroke="#1C1A1E"/>
<path d="M4.13285 1.37457C49.4594 64.8725 34.9166 153.123 -28.4764 198.706C-91.8695 244.289 -180.158 229.98 -225.923 166.797L4.13285 1.37457Z" stroke="#1C1A1E"/>
</svg>
