<svg width="123" height="88" viewBox="0 0 123 88" fill="none" xmlns="http://www.w3.org/2000/svg">
<mask id="mask0_3194_39" style="mask-type:alpha" maskUnits="userSpaceOnUse" x="0" y="0" width="123" height="88">
<rect width="123" height="88" fill="#D9D9D9"/>
</mask>
<g mask="url(#mask0_3194_39)">
<path d="M155.173 43.4436C149.677 34.8228 142.465 25.7555 133.981 16.6538C142.465 7.55219 149.677 -1.51511 155.173 -10.1359C166.335 -27.6179 169.186 -41.2532 163.278 -48.5689C157.337 -55.8502 143.392 -55.8158 124.021 -48.4315C111.382 -43.6231 97.3687 -36.067 83.1495 -26.4845C68.9647 -36.067 54.9516 -43.5887 42.278 -48.4315C22.907 -55.8158 8.96256 -55.8502 3.02074 -48.5689C-2.92109 -41.2876 -0.0360427 -27.6179 11.1263 -10.1359C16.6217 -1.51511 23.8343 7.58653 32.3177 16.6538C23.8343 25.7555 16.6217 34.8228 11.1263 43.4436C-0.0360427 60.9256 -2.88674 74.5609 3.02074 81.8765C5.97448 85.4828 10.8859 87.3032 17.4803 87.3032C24.1434 87.3032 32.5238 85.4485 42.278 81.7392C54.9173 76.9307 68.9304 69.3747 83.1495 59.7922C97.3344 69.3747 111.347 76.9307 124.021 81.7392C133.775 85.4485 142.156 87.3032 148.819 87.3032C155.413 87.3032 160.325 85.4828 163.278 81.8765C169.22 74.5952 166.335 60.9599 155.173 43.4436ZM124.502 -47.1607C133.707 -50.664 141.675 -52.4843 148.132 -52.6217C154.692 -52.7591 159.432 -51.0761 162.179 -47.7102C164.927 -44.31 165.579 -39.3642 164.137 -32.9415C162.694 -26.6219 159.294 -19.2032 154.005 -10.8915C148.544 -2.33941 141.434 6.62485 133.02 15.6578C124.742 6.89962 115.297 -1.85857 105.028 -10.2389C98.193 -15.803 91.2551 -20.9892 84.3516 -25.6602C98.3304 -35.0366 112.069 -42.421 124.502 -47.1607ZM12.2941 -10.8915C7.00485 -19.2032 3.57027 -26.6219 2.16209 -32.9415C0.719566 -39.3642 1.37214 -44.31 4.1198 -47.7102C6.76443 -50.9731 11.2637 -52.6217 17.5147 -52.6217H18.2016C24.6929 -52.4843 32.6268 -50.664 41.8315 -47.1607C54.2647 -42.4553 68.003 -35.0366 81.9474 -25.6946C75.0439 -20.9892 68.1061 -15.8373 61.2712 -10.2733C51.0019 -1.92726 41.5567 6.86527 33.2794 15.6235C24.8647 6.65919 17.7207 -2.33941 12.2941 -10.8915ZM41.7972 80.4684C32.5925 83.9716 24.6243 85.792 18.1672 85.9294C11.6072 86.0667 6.86747 84.3838 4.1198 81.0179C1.37214 77.6176 0.719566 72.6719 2.16209 66.2492C3.60462 59.9296 7.00485 52.5109 12.2941 44.1992C17.7551 35.6471 24.8647 26.6828 33.2794 17.6499C41.5567 26.408 51.0019 35.1662 61.2712 43.5466C68.1061 49.1106 75.0439 54.2968 81.9474 58.9679C67.9687 68.3443 54.2304 75.7286 41.7972 80.4684ZM62.1299 42.4819C51.8948 34.1358 42.4497 25.412 34.2067 16.6538C42.4497 7.89564 51.8948 -0.828194 62.1299 -9.17423C69.0677 -14.8413 76.143 -20.0962 83.1495 -24.8359C90.1561 -20.0619 97.2313 -14.8069 104.169 -9.17423C114.439 -0.828194 123.849 7.89564 132.092 16.6538C123.849 25.412 114.404 34.1358 104.169 42.4819C97.2313 48.1489 90.1561 53.4038 83.1495 58.1436C76.143 53.3695 69.0677 48.1146 62.1299 42.4819ZM162.214 81.0179C159.466 84.4181 154.726 86.0667 148.166 85.9294C141.675 85.792 133.741 83.9716 124.536 80.4684C112.103 75.763 98.3647 68.3443 84.4203 59.0022C91.3238 54.2968 98.2617 49.145 105.097 43.5809C115.366 35.2349 124.811 26.4424 133.088 17.6842C141.503 26.6828 148.613 35.6814 154.074 44.2335C159.363 52.5452 162.798 59.9639 164.206 66.2835C165.614 72.6375 164.961 77.6176 162.214 81.0179Z" fill="#CDCDCD"/>
<path d="M87.0311 15.039L94.9993 4.80399L84.7643 12.7722L83.15 -11.3042L81.5358 12.7722L71.3007 4.80399L79.269 15.039L66.3893 16.6533L79.269 18.2676L71.3007 28.5026L81.5358 20.5344L83.15 44.6108L84.7643 20.5344L94.9993 28.5026L87.0311 18.2676L99.9108 16.6533L87.0311 15.039Z" fill="#CDCDCD"/>
</g>
</svg>
