<svg width="121" height="87" viewBox="0 0 121 87" fill="none" xmlns="http://www.w3.org/2000/svg">
<mask id="mask0_3194_41" style="mask-type:alpha" maskUnits="userSpaceOnUse" x="0" y="0" width="121" height="87">
<rect width="121" height="87" fill="#D9D9D9"/>
</mask>
<g mask="url(#mask0_3194_41)">
<path d="M147.51 -64.1226C143.768 -64.9542 138.875 -66.1376 133.853 -68.1206L133.406 -68.3125L133.118 -67.9287C123.043 -54.5915 112.808 -47.4591 102.893 -40.5827C101.998 -39.943 101.102 -39.3353 100.207 -38.6956C90.2597 -31.979 78.5537 -23.5034 67.0395 -11.8293C57.7003 -2.58604 48.2012 8.99206 39.0218 20.1863C37.3267 22.2653 35.5996 24.3442 33.9044 26.4232C22.1984 40.3361 11.6758 52.0421 1.15316 54.4728L0.673401 54.6008V62.7886L0.769352 62.9485C4.51144 69.6331 9.46891 78.3327 14.5223 86.4245L14.8742 87.0002L15.4179 86.6164C25.6207 79.7399 35.9514 66.2428 45.9623 53.2255C46.8578 52.0421 47.7534 50.8587 48.6809 49.7073C58.5639 36.626 70.2379 21.7216 81.72 10.3674C90.9953 0.996132 100.462 -6.3921 109.61 -13.5245C111.305 -14.8678 113.032 -16.1791 114.759 -17.5544C126.561 -27.1175 137.212 -36.5847 147.99 -55.647L148.086 -55.8069V-64.0267L147.51 -64.1226ZM34.864 27.2547C36.5591 25.1758 38.2862 23.0969 39.9813 21.0179C49.1287 9.85561 58.5958 -1.72248 67.9031 -10.9018C79.3532 -22.5119 90.9953 -30.8916 100.91 -37.6082C101.806 -38.2478 102.701 -38.8555 103.629 -39.4952C113.544 -46.3717 123.779 -53.5041 133.853 -66.7453C138.395 -64.9542 142.873 -63.8348 146.391 -63.0352C135.868 -44.6446 125.442 -35.4013 113.896 -26.0621C112.2 -24.7187 110.473 -23.3754 108.778 -22.0641C99.5989 -14.8998 90.0998 -7.51152 80.7605 1.92366C69.2464 13.3099 57.5404 28.2462 47.6254 41.3915C46.7299 42.5749 45.8344 43.7263 44.9068 44.9097C35.1518 57.6392 25.0769 70.7845 15.226 77.661C10.4924 70.0489 5.85476 61.925 2.2406 55.5283C12.8912 52.5858 23.3179 40.9757 34.864 27.2547ZM14.3944 83.8019C9.78875 76.3497 5.375 68.5457 1.92076 62.4368V57.5433C5.47095 63.8441 9.8847 71.5201 14.3944 78.7485V83.8019Z" fill="#CDCDCD"/>
</g>
</svg>
