<svg width="123" height="87" viewBox="0 0 123 87" fill="none" xmlns="http://www.w3.org/2000/svg">
<mask id="mask0_3194_18" style="mask-type:alpha" maskUnits="userSpaceOnUse" x="0" y="0" width="123" height="87">
<rect width="123" height="87" fill="#D9D9D9"/>
</mask>
<g mask="url(#mask0_3194_18)">
<path d="M112.861 -25.8099C112.52 -46.3884 95.6864 -63 75.0399 -63C54.3934 -63 37.56 -46.3574 37.219 -25.8099C27.7638 -25.655 18.8666 -22.0599 11.9224 -15.5517C4.57527 -8.6405 0.32817 0.749996 0.0181624 10.8223C-0.291845 20.8946 3.33524 30.5331 10.2794 37.8781C17.1926 45.2231 26.5858 49.469 36.661 49.7789H37.188C37.343 59.2314 40.9391 68.157 47.4493 75.0682C54.3624 82.4132 63.7556 86.6591 73.8309 86.969C74.2339 86.969 74.6369 87 75.0089 87C84.6811 87 93.8263 83.374 100.895 76.7417C108.242 69.8306 112.489 60.4401 112.799 50.3678V49.8409C133.383 49.5 150 32.6715 150 12.031C150.062 -8.6405 133.414 -25.469 112.861 -25.8099ZM75.0399 -61.7603C95.0044 -61.7603 111.28 -45.6756 111.621 -25.8099C93.3923 -25.531 78.264 -12.2665 75.0399 5.08884C73.7379 -1.97727 70.4518 -8.54752 65.3987 -13.9091C58.4855 -21.2541 49.0923 -25.5 39.0171 -25.8099H38.4901C38.8001 -45.6756 55.0754 -61.7603 75.0399 -61.7603ZM37.219 48.5702H36.723C26.9578 48.2603 17.8746 44.2004 11.2094 37.0723C4.51327 29.9442 0.979185 20.6467 1.28919 10.8843C1.5992 1.12189 5.66029 -7.95868 12.7905 -14.6219C19.4866 -20.9132 28.1048 -24.4153 37.219 -24.5393C37.498 -6.31612 50.7663 8.80785 68.1267 12.031C61.0586 13.3326 54.4864 16.6178 49.0923 21.6694C41.7451 28.5806 37.498 37.9711 37.188 48.0434C37.219 48.1983 37.219 48.3843 37.219 48.5702ZM111.621 50.3058C111.311 60.0682 107.25 69.1488 100.119 75.812C92.9893 82.5062 83.6891 86.0083 73.9239 85.7293C64.1587 85.4194 55.0754 81.3595 48.4103 74.2314C42.1171 67.5372 38.6141 58.9215 38.4901 49.8099C47.9453 49.655 56.8735 46.0599 63.7866 39.5517C69.7388 33.9731 73.6139 26.7831 75.0709 18.8802C78.295 36.2665 93.4233 49.5 111.652 49.8099C111.621 49.9649 111.621 50.1508 111.621 50.3058ZM112.861 48.5702C112.706 39.1178 109.11 30.1921 102.6 23.281C97.0194 17.3306 89.8272 13.4566 81.9221 12C99.3135 8.77686 112.551 -6.34711 112.861 -24.5702C132.763 -24.2293 148.822 -7.95868 148.822 12C148.822 31.9587 132.732 48.2293 112.861 48.5702Z" fill="#CDCDCD"/>
</g>
</svg>
