<svg width="46" height="30" viewBox="0 0 46 30" fill="none" xmlns="http://www.w3.org/2000/svg">
<path d="M13.4227 0.0321293C6.09143 0.0321293 0.476196 9.57353 0.476196 19.663C0.476196 25.979 3.53088 29.9681 8.65198 29.9681C12.3356 29.9681 14.986 28.2341 19.7028 19.9954C19.7028 19.9954 21.6703 16.5274 23.018 14.1376L25.8211 9.39385C28.202 5.71924 30.1696 3.88643 32.5055 3.88643C37.3571 3.88643 41.2383 11.029 41.2383 19.8067C41.2383 23.1489 40.1422 25.0895 37.8692 25.0895C35.6949 25.0895 34.6528 23.6521 30.5199 17.0036L26.7196 20.3188C31.0231 27.5243 33.4219 29.9681 37.7703 29.9681C42.7567 29.9681 45.5328 25.9161 45.5328 19.4653C45.5328 8.89072 39.7918 0.0141602 32.811 0.0141602C29.1184 0.0141602 26.2254 2.79932 23.611 6.33018L20.709 10.5888C17.843 14.9911 16.1 17.7493 16.1 17.7493C12.2817 23.7419 10.961 25.0806 8.83167 25.0806C6.63948 25.0806 5.34573 23.1579 5.34573 19.7349C5.34573 12.4036 9.00237 4.91064 13.3598 4.91064L13.4227 0.0321293Z" fill="url(#paint0_linear_1535_153909)"/>
<path d="M23.8535 9.64532L20.709 10.6156C17.843 15.018 16.1 17.7762 16.1 17.7762C12.2817 23.7688 10.961 25.1074 8.83167 25.1074C6.63948 25.1074 5.34573 23.1848 5.34573 19.7617C5.34573 12.4305 9.00237 4.93751 13.3598 4.93751L13.4227 0.041022C6.09143 0.0320376 0.476196 9.57344 0.476196 19.6629C0.476196 25.9789 3.53088 29.968 8.65198 29.968C12.3356 29.968 14.986 28.234 19.7028 19.9953C19.7028 19.9953 21.6703 16.5273 23.018 14.1375L23.8535 9.64532Z" fill="url(#paint1_linear_1535_153909)"/>
<path d="M26.7196 20.3279C31.0231 27.5334 33.4219 29.9682 37.7703 29.9682L37.8692 25.0896C35.695 25.0896 34.6528 23.6611 30.52 17.0127C27.052 11.3705 25.2821 8.54941 23.611 6.34824C20.0172 1.77519 17.0164 0.0322266 13.4227 0.0322266L13.3598 4.92871C15.7227 4.92871 17.6903 6.29434 20.709 10.6158C21.9758 12.3947 24.5723 16.6264 26.7196 20.3279Z" fill="url(#paint2_linear_1535_153909)"/>
<path d="M23.602 6.34824C20.0082 1.77519 17.0074 0.0322266 13.4047 0.0322266C9.85586 0.0322266 6.71133 2.26934 4.40234 5.71934L7.87031 9.26816C9.3168 6.65371 11.2664 4.9377 13.3598 4.9377C15.7227 4.9377 17.6723 6.28535 20.691 10.6068L23.602 6.34824Z" fill="url(#paint3_linear_1535_153909)"/>
<path d="M29.1094 24.1013C32.0652 28.4048 34.2934 29.9681 37.7703 29.9681C42.7566 29.9681 45.5328 25.9161 45.5328 19.4653L41.2383 19.8067C41.2383 23.1489 40.1422 25.0895 37.8691 25.0895C36.1172 25.0895 35.093 24.1552 32.5863 20.2919L29.1094 24.1013Z" fill="url(#paint4_linear_1535_153909)"/>
<defs>
<linearGradient id="paint0_linear_1535_153909" x1="0.476196" y1="14.9911" x2="45.5328" y2="14.9911" gradientUnits="userSpaceOnUse">
<stop stop-color="#0064E0"/>
<stop offset="0.062" stop-color="#006AE5"/>
<stop offset="0.218" stop-color="#007AF4"/>
<stop offset="0.811" stop-color="#007DF6"/>
<stop offset="1" stop-color="#0080F9"/>
</linearGradient>
<linearGradient id="paint1_linear_1535_153909" x1="4.47299" y1="9.36905" x2="20.7287" y2="26.1785" gradientUnits="userSpaceOnUse">
<stop stop-color="#0064E0"/>
<stop offset="0.013" stop-color="#0065E1"/>
<stop offset="0.289" stop-color="#0075F0"/>
<stop offset="0.597" stop-color="#007FF9"/>
<stop offset="1" stop-color="#0082FC"/>
</linearGradient>
<linearGradient id="paint2_linear_1535_153909" x1="9.90531" y1="-2.41009" x2="37.384" y2="27.286" gradientUnits="userSpaceOnUse">
<stop stop-color="#0082FB"/>
<stop offset="0.022" stop-color="#017CF5"/>
<stop offset="0.09" stop-color="#0471EA"/>
<stop offset="0.187" stop-color="#066AE3"/>
<stop offset="0.456" stop-color="#0668E1"/>
<stop offset="0.746" stop-color="#056AE3"/>
<stop offset="0.885" stop-color="#0472EB"/>
<stop offset="0.974" stop-color="#017CF5"/>
<stop offset="1" stop-color="#0082FB"/>
</linearGradient>
<linearGradient id="paint3_linear_1535_153909" x1="4.40234" y1="5.31953" x2="23.602" y2="5.31953" gradientUnits="userSpaceOnUse">
<stop stop-color="#0064E0"/>
<stop offset="0.422" stop-color="#0069E4"/>
<stop offset="0.433" stop-color="#0069E4"/>
<stop offset="1" stop-color="#0668E1"/>
</linearGradient>
<linearGradient id="paint4_linear_1535_153909" x1="29.1108" y1="24.7167" x2="45.5328" y2="24.7167" gradientUnits="userSpaceOnUse">
<stop stop-color="#066BE3"/>
<stop offset="0.309" stop-color="#0470E9"/>
<stop offset="0.559" stop-color="#0279F2"/>
<stop offset="1" stop-color="#0080F9"/>
</linearGradient>
</defs>
</svg>
