<svg width="145" height="179" viewBox="0 0 145 179" fill="none" xmlns="http://www.w3.org/2000/svg">
<path d="M232.962 20.0142C232.979 20.6757 232.99 21.3386 232.996 22.0027L232.496 22.007C232.499 22.3376 232.5 22.6687 232.5 23C232.5 23.3313 232.499 23.6623 232.496 23.9929L232.996 23.9972C232.99 24.6613 232.979 25.3242 232.962 25.9856L232.462 25.973C232.446 26.6316 232.423 27.2889 232.396 27.9448L232.895 27.9659C232.867 28.628 232.834 29.2887 232.794 29.948L232.295 29.9184C232.256 30.5783 232.211 31.2367 232.161 31.8937L232.66 31.9318C232.609 32.5915 232.553 33.2497 232.492 33.9063L231.994 33.8597C231.932 34.5167 231.865 35.1721 231.793 35.8258L232.29 35.881C232.217 36.5406 232.138 37.1985 232.054 37.8547L231.558 37.791C231.474 38.4444 231.385 39.0961 231.29 39.746L231.784 39.8181C231.689 40.474 231.588 41.1281 231.481 41.7803L230.988 41.6996C230.881 42.3514 230.769 43.0014 230.652 43.6494L231.143 43.7386C231.025 44.3895 230.902 45.0385 230.773 45.6856L230.283 45.5879C230.154 46.2352 230.02 46.8806 229.88 47.524L230.369 47.6301C230.228 48.2779 230.082 48.9238 229.93 49.5676L229.444 49.4531C229.293 50.0941 229.136 50.733 228.975 51.3698L229.46 51.4928C229.297 52.1354 229.128 52.776 228.955 53.4143L228.472 53.283C228.299 53.9196 228.12 54.5541 227.936 55.1863L228.416 55.3259C228.232 55.9609 228.042 56.5936 227.847 57.224L227.369 57.0761C227.174 57.7068 226.973 58.3352 226.767 58.9612L227.242 59.1173C227.035 59.7466 226.823 60.3735 226.606 60.9979L226.134 60.8336C225.917 61.4553 225.696 62.0746 225.469 62.6915L225.938 62.864C225.71 63.4864 225.476 64.1064 225.237 64.7238L224.77 64.5432C224.532 65.158 224.289 65.7702 224.041 66.3798L224.504 66.5684C224.254 67.1811 224 67.7911 223.74 68.3985L223.28 68.2019C223.021 68.8087 222.756 69.4129 222.487 70.0143L222.943 70.2188C222.672 70.8228 222.397 71.4241 222.116 72.0227L221.663 71.8104C221.384 72.4069 221.099 73.0007 220.809 73.5916L221.258 73.8116C220.967 74.4065 220.67 74.9986 220.369 75.5877L219.923 75.36C219.623 75.9465 219.318 76.5302 219.008 77.111L219.45 77.3463C219.138 77.9303 218.822 78.5113 218.5 79.0893L218.063 78.8464C217.743 79.4228 217.418 79.9961 217.088 80.5663L217.521 80.8167C217.189 81.3895 216.853 81.9591 216.512 82.5256L216.084 82.2678C215.744 82.8327 215.4 83.3943 215.05 83.9529L215.474 84.2179C215.123 84.7793 214.768 85.3374 214.408 85.8923L213.988 85.6201C213.629 86.1726 213.266 86.7218 212.898 87.2678L213.313 87.5472C212.943 88.0962 212.568 88.642 212.189 89.1843L211.78 88.8979C211.402 89.438 211.02 89.9748 210.633 90.5082L211.038 90.8016C210.65 91.3373 210.257 91.8696 209.86 92.3984L209.46 92.0981C209.065 92.6252 208.664 93.1488 208.26 93.6689L208.654 93.9759C208.248 94.4983 207.837 95.017 207.422 95.5322L207.033 95.2185C206.62 95.7316 206.202 96.241 205.78 96.7468L206.164 97.0671C205.74 97.5753 205.312 98.0799 204.879 98.5807L204.501 98.254C204.07 98.7527 203.636 99.2478 203.197 99.739L203.57 100.072C203.129 100.566 202.684 101.055 202.235 101.541L201.867 101.202C201.42 101.685 200.969 102.165 200.513 102.642L200.875 102.987C200.417 103.465 199.956 103.94 199.49 104.41L199.135 104.058C198.672 104.527 198.204 104.991 197.733 105.451L198.082 105.809C197.609 106.271 197.132 106.73 196.651 107.184L196.307 106.82C195.828 107.273 195.345 107.721 194.859 108.165L195.196 108.535C194.707 108.981 194.215 109.422 193.719 109.86L193.388 109.485C192.894 109.921 192.396 110.353 191.894 110.78L192.219 111.16C191.715 111.59 191.208 112.015 190.697 112.436L190.379 112.05C189.871 112.468 189.359 112.883 188.843 113.293L189.154 113.684C188.637 114.096 188.115 114.503 187.59 114.906L187.286 114.51C186.763 114.911 186.237 115.308 185.707 115.701L186.005 116.102C185.474 116.496 184.939 116.886 184.401 117.271L184.11 116.864C183.575 117.247 183.036 117.626 182.493 118L182.777 118.412C182.232 118.788 181.684 119.159 181.133 119.526L180.856 119.109C180.308 119.474 179.757 119.834 179.202 120.189L179.472 120.61C178.915 120.967 178.355 121.32 177.791 121.668L177.529 121.242C176.968 121.588 176.405 121.929 175.838 122.266L176.093 122.696C175.525 123.033 174.953 123.366 174.379 123.694L174.131 123.26C173.558 123.587 172.983 123.909 172.405 124.226L172.645 124.665C172.066 124.983 171.483 125.296 170.898 125.604L170.665 125.162C170.082 125.469 169.497 125.771 168.909 126.068L169.134 126.514C168.543 126.812 167.95 127.106 167.353 127.395L167.135 126.945C166.543 127.231 165.948 127.513 165.35 127.789L165.56 128.243C164.96 128.521 164.358 128.794 163.752 129.062L163.55 128.604C162.947 128.871 162.342 129.133 161.733 129.389L161.928 129.85C161.32 130.107 160.709 130.359 160.095 130.605L159.908 130.141C159.298 130.387 158.684 130.627 158.068 130.863L158.247 131.33C157.629 131.566 157.008 131.798 156.384 132.024L156.214 131.554C155.596 131.778 154.976 131.997 154.353 132.211L154.516 132.684C153.89 132.899 153.262 133.108 152.632 133.313L152.478 132.837C151.851 133.041 151.222 133.239 150.591 133.432L150.737 133.91C150.106 134.103 149.472 134.291 148.837 134.473L148.699 133.993C148.066 134.174 147.431 134.351 146.793 134.522L146.923 135.005C146.284 135.176 145.643 135.343 145 135.504L144.879 135.019C144.242 135.178 143.602 135.333 142.961 135.482L143.074 135.969C142.429 136.118 141.783 136.263 141.135 136.402L141.03 135.913C140.386 136.051 139.741 136.183 139.093 136.311L139.19 136.801C138.542 136.929 137.893 137.05 137.242 137.167L137.154 136.675C136.505 136.791 135.855 136.901 135.203 137.007L135.282 137.5C134.63 137.606 133.976 137.705 133.32 137.8L133.249 137.305C132.599 137.399 131.947 137.487 131.293 137.57L131.356 138.066C130.699 138.149 130.041 138.227 129.382 138.299L129.327 137.802C128.673 137.874 128.018 137.94 127.361 138L127.407 138.498C126.75 138.559 126.092 138.614 125.432 138.664L125.395 138.166C124.737 138.215 124.079 138.259 123.419 138.298L123.448 138.797C122.789 138.836 122.128 138.869 121.466 138.897L121.445 138.397C120.789 138.424 120.132 138.446 119.473 138.463L119.486 138.963C118.824 138.979 118.161 138.99 117.497 138.996L117.493 138.496C117.162 138.499 116.831 138.5 116.5 138.5C116.169 138.5 115.838 138.499 115.507 138.496L115.503 138.996C114.839 138.99 114.176 138.979 113.514 138.963L113.527 138.463C112.868 138.446 112.211 138.424 111.555 138.397L111.534 138.897C110.872 138.869 110.211 138.836 109.552 138.797L109.581 138.298C108.921 138.259 108.263 138.215 107.606 138.166L107.568 138.664C106.908 138.614 106.25 138.559 105.593 138.498L105.639 138C104.982 137.94 104.327 137.874 103.673 137.802L103.618 138.299C102.959 138.227 102.301 138.149 101.644 138.066L101.707 137.57C101.053 137.487 100.402 137.399 99.7514 137.305L99.6801 137.8C99.0242 137.705 98.3701 137.606 97.7177 137.5L97.7974 137.007C97.1453 136.901 96.495 136.791 95.8465 136.675L95.7585 137.167C95.1072 137.05 94.4579 136.929 93.8105 136.801L93.9069 136.311C93.2594 136.183 92.6138 136.051 91.9702 135.913L91.8654 136.402C91.217 136.263 90.5706 136.118 89.9263 135.969L90.0395 135.482C89.3979 135.333 88.7584 135.178 88.121 135.019L87.9996 135.504C87.3566 135.343 86.7156 135.176 86.0769 135.005L86.2066 134.522C85.5693 134.351 84.9341 134.174 84.3012 133.993L84.1632 134.473C83.5275 134.291 82.8941 134.103 82.2629 133.91L82.4091 133.432C81.7778 133.239 81.1488 133.041 80.5221 132.837L80.3678 133.313C79.7376 133.108 79.1098 132.899 78.4845 132.684L78.6469 132.211C78.0242 131.997 77.4039 131.778 76.7861 131.554L76.6156 132.024C75.9923 131.798 75.3714 131.566 74.7531 131.33L74.9317 130.863C74.3157 130.627 73.7023 130.387 73.0915 130.141L72.905 130.605C72.2914 130.359 71.6805 130.107 71.0721 129.85L71.2665 129.389C70.6583 129.133 70.0528 128.871 69.4499 128.604L69.2477 129.062C68.6422 128.794 68.0395 128.521 67.4395 128.243L67.6496 127.789C67.0518 127.513 66.4568 127.231 65.8645 126.945L65.6468 127.395C65.0503 127.106 64.4566 126.812 63.8658 126.514L64.0912 126.068C63.503 125.771 62.9176 125.469 62.3352 125.162L62.1022 125.604C61.5167 125.296 60.9341 124.983 60.3545 124.665L60.595 124.226C60.0168 123.909 59.4416 123.587 58.8694 123.26L58.6215 123.694C58.0468 123.366 57.4753 123.033 56.9069 122.696L57.1622 122.266C56.5955 121.929 56.0319 121.588 55.4715 121.242L55.2089 121.668C54.6454 121.32 54.0851 120.967 53.5281 120.61L53.7979 120.189C53.2432 119.834 52.6918 119.474 52.1437 119.109L51.8668 119.526C51.3155 119.159 50.7676 118.788 50.2231 118.412L50.507 118C49.9645 117.626 49.4253 117.247 48.8895 116.864L48.5986 117.271C48.0606 116.886 47.5259 116.496 46.9948 116.102L47.2925 115.701C46.763 115.308 46.2369 114.911 45.7143 114.51L45.4097 114.906C44.8848 114.503 44.3635 114.096 43.8457 113.684L44.157 113.293C43.6414 112.883 43.1294 112.468 42.6211 112.05L42.3032 112.436C41.7922 112.015 41.2848 111.59 40.7812 111.16L41.1055 110.78C40.604 110.352 40.1062 109.921 39.6122 109.485L39.2815 109.86C38.7853 109.422 38.2928 108.981 37.8042 108.535L38.1413 108.165C37.6545 107.721 37.1716 107.273 36.6925 106.82L36.3492 107.184C35.8681 106.73 35.3909 106.271 34.9176 105.809L35.267 105.451C34.7957 104.991 34.3283 104.527 33.865 104.058L33.5095 104.41C33.0441 103.94 32.5827 103.465 32.1253 102.987L32.4867 102.642C32.0312 102.165 31.5799 101.685 31.1326 101.202L30.7655 101.541C30.3163 101.055 29.8713 100.566 29.4305 100.072L29.8033 99.739C29.3644 99.2477 28.9296 98.7527 28.499 98.254L28.1206 98.5807C27.6881 98.0799 27.2599 97.5753 26.836 97.067L27.2199 96.7468C26.798 96.241 26.3804 95.7315 25.9671 95.2185L25.5777 95.5322C25.1627 95.017 24.7519 94.4982 24.3456 93.9759L24.7402 93.6689C24.3356 93.1488 23.9353 92.6252 23.5395 92.0981L23.1397 92.3984C22.7426 91.8696 22.3499 91.3373 21.9617 90.8016L22.3666 90.5082C21.9801 89.9748 21.598 89.438 21.2205 88.8978L20.8106 89.1843C20.4316 88.6419 20.057 88.0962 19.6871 87.5472L20.1017 87.2678C19.7339 86.7218 19.3705 86.1725 19.0118 85.62L18.5924 85.8923C18.2322 85.3374 17.8765 84.7793 17.5256 84.2179L17.9496 83.9528C17.6004 83.3943 17.2559 82.8326 16.9161 82.2678L16.4876 82.5256C16.1468 81.9591 15.8107 81.3894 15.4794 80.8167L15.9121 80.5663C15.5822 79.9961 15.2571 79.4227 14.9368 78.8464L14.4997 79.0893C14.1785 78.5113 13.862 77.9303 13.5504 77.3463L13.9915 77.1109C13.6817 76.5302 13.3767 75.9465 13.0765 75.3599L12.6314 75.5877C12.3299 74.9986 12.0334 74.4065 11.7418 73.8116L12.1908 73.5916C11.9012 73.0006 11.6164 72.4069 11.3367 71.8104L10.884 72.0227C10.6033 71.4241 10.3276 70.8228 10.0569 70.2187L10.5132 70.0143C10.2437 69.4128 9.97916 68.8087 9.71973 68.2019L9.25999 68.3984C9.00032 67.7911 8.7457 67.1811 8.49619 66.5684L8.95925 66.3798C8.71096 65.7702 8.46775 65.158 8.22966 64.5432L7.76341 64.7238C7.52429 64.1064 7.29033 63.4864 7.06157 62.864L7.53088 62.6915C7.30418 62.0746 7.08261 61.4553 6.86622 60.8336L6.39401 60.9979C6.17668 60.3735 5.96455 59.7466 5.75769 59.1173L6.23268 58.9612C6.02688 58.3352 5.8263 57.7068 5.63101 57.0761L5.15338 57.224C4.95816 56.5936 4.76819 55.9609 4.58353 55.3259L5.06364 55.1863C4.87978 54.5541 4.70119 53.9196 4.52794 53.283L4.04549 53.4143C3.87177 52.776 3.70338 52.1355 3.54038 51.4928L4.02504 51.3699C3.86352 50.733 3.70731 50.0941 3.55647 49.4531L3.06976 49.5676C2.91826 48.9238 2.77214 48.278 2.63145 47.6301L3.12007 47.524C2.98036 46.8806 2.84604 46.2353 2.71715 45.588L2.22678 45.6856C2.09794 45.0386 1.97451 44.3896 1.85652 43.7387L2.34851 43.6495C2.23104 43.0014 2.119 42.3515 2.01244 41.6997L1.51899 41.7804C1.41236 41.1281 1.31118 40.4741 1.21552 39.8182L1.71028 39.746C1.61549 39.0961 1.52612 38.4445 1.44225 37.7911L0.946316 37.8548C0.862072 37.1986 0.783335 36.5406 0.710152 35.881L1.2071 35.8259C1.13457 35.1722 1.06751 34.5168 1.00599 33.8598L0.508165 33.9064C0.446672 33.2498 0.390675 32.5916 0.340221 31.9319L0.838765 31.8937C0.788528 31.2368 0.743809 30.5784 0.704655 29.9184L0.205533 29.9481C0.166422 29.2888 0.132839 28.6281 0.104831 27.966L0.604384 27.9449C0.576642 27.289 0.554392 26.6317 0.537679 25.9731L0.0378401 25.9858C0.0210559 25.3243 0.00983279 24.6614 0.00421565 23.9973L0.504198 23.993C0.501401 23.6624 0.5 23.3313 0.5 23C0.5 22.6687 0.501401 22.3377 0.504197 22.0071L0.00421482 22.0028C0.00983138 21.3387 0.0210538 20.6758 0.0378374 20.0143L0.537677 20.027C0.554389 19.3684 0.576638 18.7111 0.60438 18.0552L0.104827 18.0341C0.132835 17.372 0.166417 16.7113 0.205528 16.052L0.70465 16.0816C0.743804 15.4217 0.788522 14.7633 0.838759 14.1063L0.340215 14.0682C0.390668 13.4085 0.446665 12.7503 0.508157 12.0937L1.00598 12.1403C1.06751 11.4833 1.13456 10.8279 1.20709 10.1742L0.710144 10.119C0.783327 9.45943 0.862064 8.80151 0.946307 8.14529L1.44224 8.20896C1.52612 7.55559 1.61548 6.90392 1.71027 6.25402L1.21551 6.18185C1.31117 5.526 1.41235 4.87193 1.51898 4.21967L2.01243 4.30035C2.11899 3.64857 2.23103 2.99863 2.3485 2.35056L1.85652 2.26139C1.9745 1.6105 2.09793 0.961502 2.22677 0.314445L2.71714 0.412086C2.84603 -0.235229 2.98035 -0.880592 3.12006 -1.52396L2.63144 -1.63006C2.77213 -2.27793 2.91825 -2.9238 3.06975 -3.5676L3.55646 -3.45306C3.7073 -4.09406 3.86351 -4.73299 4.02503 -5.36983L3.54037 -5.49275C3.70337 -6.13541 3.87176 -6.77596 4.04548 -7.4143L4.52793 -7.283C4.70118 -7.91962 4.87977 -8.55405 5.06363 -9.18626L4.58352 -9.32588C4.76819 -9.96085 4.95816 -10.5936 5.15338 -11.224L5.631 -11.0761C5.8263 -11.7068 6.02687 -12.3352 6.23267 -12.9612L5.75768 -13.1173C5.96455 -13.7466 6.17667 -14.3735 6.394 -14.9979L6.86622 -14.8336C7.08261 -15.4553 7.30418 -16.0746 7.53088 -16.6915L7.06157 -16.864C7.29033 -17.4864 7.52429 -18.1064 7.76341 -18.7238L8.22966 -18.5432C8.46775 -19.158 8.71096 -19.7702 8.95926 -20.3798L8.49619 -20.5684C8.7457 -21.1811 9.00032 -21.7911 9.25999 -22.3985L9.71974 -22.2019C9.97917 -22.8087 10.2437 -23.4128 10.5132 -24.0143L10.0569 -24.2188C10.3276 -24.8228 10.6033 -25.4241 10.884 -26.0227L11.3367 -25.8104C11.6164 -26.4069 11.9012 -27.0007 12.1908 -27.5916L11.7418 -27.8117C12.0334 -28.4065 12.33 -28.9986 12.6314 -29.5877L13.0765 -29.36C13.3767 -29.9465 13.6817 -30.5302 13.9916 -31.111L13.5504 -31.3463C13.862 -31.9303 14.1785 -32.5113 14.4997 -33.0893L14.9368 -32.8464C15.2571 -33.4228 15.5823 -33.9961 15.9122 -34.5663L15.4794 -34.8167C15.8107 -35.3894 16.1468 -35.9591 16.4876 -36.5256L16.9161 -36.2678C17.2559 -36.8327 17.6004 -37.3943 17.9496 -37.9529L17.5256 -38.2179C17.8765 -38.7793 18.2322 -39.3374 18.5925 -39.8923L19.0118 -39.6201C19.3705 -40.1726 19.7339 -40.7218 20.1017 -41.2678L19.6871 -41.5472C20.057 -42.0962 20.4316 -42.642 20.8106 -43.1843L21.2205 -42.8979C21.598 -43.438 21.9801 -43.9748 22.3666 -44.5082L21.9617 -44.8016C22.3499 -45.3373 22.7426 -45.8696 23.1397 -46.3984L23.5395 -46.0981C23.9354 -46.6252 24.3356 -47.1488 24.7402 -47.6689L24.3456 -47.9759C24.7519 -48.4983 25.1627 -49.017 25.5777 -49.5322L25.9671 -49.2185C26.3804 -49.7316 26.7981 -50.241 27.22 -50.7468L26.836 -51.0671C27.2599 -51.5753 27.6881 -52.0799 28.1206 -52.5808L28.499 -52.254C28.9296 -52.7527 29.3644 -53.2478 29.8033 -53.739L29.4305 -54.0722C29.8713 -54.5656 30.3163 -55.0552 30.7655 -55.541L31.1326 -55.2016C31.5799 -55.6854 32.0313 -56.1654 32.4867 -56.6416L32.1253 -56.9872C32.5827 -57.4653 33.0441 -57.9396 33.5096 -58.41L33.865 -58.0583C34.3283 -58.5266 34.7957 -58.9909 35.267 -59.4513L34.9176 -59.809C35.3909 -60.2713 35.8681 -60.7297 36.3492 -61.184L36.6925 -60.8204C37.1716 -61.2728 37.6545 -61.7211 38.1413 -62.1653L37.8042 -62.5346C38.2928 -62.9806 38.7853 -63.4224 39.2815 -63.8601L39.6122 -63.4851C40.1063 -63.9209 40.604 -64.3525 41.1055 -64.7799L40.7812 -65.1605C41.2848 -65.5897 41.7922 -66.0148 42.3032 -66.4356L42.6211 -66.0496C43.1294 -66.4682 43.6414 -66.8826 44.157 -67.2926L43.8457 -67.684C44.3635 -68.0958 44.8848 -68.5033 45.4098 -68.9064L45.7143 -68.5099C46.2369 -68.9112 46.763 -69.3082 47.2926 -69.7008L46.9948 -70.1025C47.5259 -70.4962 48.0606 -70.8856 48.5986 -71.2705L48.8896 -70.8639C49.4253 -71.2472 49.9645 -71.626 50.507 -72.0003L50.2231 -72.4119C50.7676 -72.7876 51.3155 -73.1588 51.8668 -73.5255L52.1437 -73.1092C52.6918 -73.4738 53.2432 -73.8339 53.7979 -74.1894L53.5281 -74.6103C54.0851 -74.9674 54.6454 -75.3198 55.2089 -75.6676L55.4715 -75.2421C56.0319 -75.5879 56.5955 -75.9292 57.1622 -76.2658L56.9069 -76.6957C57.4753 -77.0332 58.0468 -77.3661 58.6215 -77.6943L58.8694 -77.2601C59.4416 -77.5869 60.0168 -77.9089 60.595 -78.2262L60.3545 -78.6646C60.9341 -78.9826 61.5167 -79.2958 62.1022 -79.6042L62.3353 -79.1619C62.9177 -79.4686 63.503 -79.7706 64.0913 -80.0677L63.8658 -80.514C64.4566 -80.8124 65.0503 -81.106 65.6468 -81.3946L65.8646 -80.9445C66.4568 -81.2311 67.0518 -81.5127 67.6496 -81.7895L67.4395 -82.2432C68.0395 -82.521 68.6422 -82.7938 69.2477 -83.0616L69.45 -82.6044C70.0528 -82.871 70.6583 -83.1327 71.2665 -83.3894L71.0721 -83.8501C71.6805 -84.1068 72.2915 -84.3586 72.905 -84.6052L73.0915 -84.1413C73.7024 -84.3869 74.3158 -84.6275 74.9317 -84.8629L74.7531 -85.33C75.3714 -85.5664 75.9923 -85.7976 76.6156 -86.0238L76.7861 -85.5538C77.404 -85.7779 78.0242 -85.997 78.6469 -86.2109L78.4845 -86.6838C79.1098 -86.8986 79.7376 -87.1083 80.3678 -87.3128L80.5221 -86.8372C81.1488 -87.0406 81.7778 -87.2388 82.4091 -87.4318L82.2629 -87.9099C82.8941 -88.1029 83.5275 -88.2906 84.1632 -88.4731L84.3012 -87.9925C84.9341 -88.1742 85.5693 -88.3507 86.2066 -88.5219L86.0769 -89.0048C86.7156 -89.1764 87.3566 -89.3427 87.9996 -89.5037L88.121 -89.0187C88.7584 -89.1783 89.3979 -89.3326 90.0394 -89.4816L89.9263 -89.9687C90.5706 -90.1183 91.217 -90.2627 91.8653 -90.4017L91.9701 -89.9128C92.6137 -90.0507 93.2593 -90.1834 93.9069 -90.3106L93.8104 -90.8013C94.4578 -90.9285 95.1072 -91.0504 95.7584 -91.167L95.8465 -90.6748C96.4949 -90.7908 97.1452 -90.9015 97.7974 -91.0067L97.7177 -91.5003C98.37 -91.6056 99.0241 -91.7055 99.6801 -91.7999L99.7513 -91.305C100.401 -91.3986 101.053 -91.4869 101.707 -91.5697L101.644 -92.0657C102.301 -92.1489 102.959 -92.2267 103.618 -92.2989L103.673 -91.8019C104.327 -91.8735 104.982 -91.9397 105.639 -92.0004L105.593 -92.4983C106.25 -92.559 106.908 -92.6143 107.568 -92.6641L107.605 -92.1655C108.263 -92.2152 108.921 -92.2593 109.581 -92.298L109.552 -92.7971C110.211 -92.8357 110.872 -92.8689 111.534 -92.8965L111.555 -92.3969C112.211 -92.4243 112.868 -92.4463 113.527 -92.4628L113.514 -92.9626C114.176 -92.9792 114.839 -92.9903 115.503 -92.9958L115.507 -92.4959C115.838 -92.4986 116.169 -92.5 116.5 -92.5C116.831 -92.5 117.162 -92.4986 117.493 -92.4959L117.497 -92.9958C118.161 -92.9903 118.824 -92.9792 119.486 -92.9626L119.473 -92.4628C120.132 -92.4463 120.789 -92.4243 121.445 -92.3969L121.466 -92.8965C122.128 -92.8689 122.789 -92.8357 123.448 -92.7971L123.419 -92.298C124.079 -92.2593 124.737 -92.2152 125.394 -92.1656L125.432 -92.6641C126.092 -92.6143 126.75 -92.559 127.407 -92.4983L127.361 -92.0004C128.018 -91.9397 128.673 -91.8735 129.327 -91.8019L129.382 -92.2989C130.041 -92.2267 130.699 -92.1489 131.356 -92.0657L131.293 -91.5697C131.947 -91.4869 132.598 -91.3986 133.249 -91.305L133.32 -91.7999C133.976 -91.7055 134.63 -91.6056 135.282 -91.5003L135.203 -91.0067C135.855 -90.9015 136.505 -90.7908 137.153 -90.6748L137.242 -91.167C137.893 -91.0504 138.542 -90.9285 139.19 -90.8013L139.093 -90.3107C139.741 -90.1834 140.386 -90.0507 141.03 -89.9128L141.135 -90.4017C141.783 -90.2627 142.429 -90.1183 143.074 -89.9687L142.961 -89.4816C143.602 -89.3326 144.242 -89.1783 144.879 -89.0187L145 -89.5037C145.643 -89.3427 146.284 -89.1764 146.923 -89.0048L146.793 -88.5219C147.431 -88.3507 148.066 -88.1742 148.699 -87.9925L148.837 -88.4731C149.472 -88.2906 150.106 -88.1029 150.737 -87.9099L150.591 -87.4318C151.222 -87.2388 151.851 -87.0406 152.478 -86.8372L152.632 -87.3128C153.262 -87.1083 153.89 -86.8986 154.516 -86.6838L154.353 -86.2109C154.976 -85.997 155.596 -85.7779 156.214 -85.5538L156.384 -86.0238C157.008 -85.7976 157.629 -85.5664 158.247 -85.33L158.068 -84.8629C158.684 -84.6275 159.298 -84.3869 159.908 -84.1413L160.095 -84.6052C160.709 -84.3586 161.32 -84.1068 161.928 -83.8501L161.733 -83.3894C162.342 -83.1327 162.947 -82.871 163.55 -82.6044L163.752 -83.0616C164.358 -82.7938 164.96 -82.521 165.56 -82.2432L165.35 -81.7895C165.948 -81.5127 166.543 -81.2311 167.135 -80.9445L167.353 -81.3946C167.95 -81.106 168.543 -80.8124 169.134 -80.514L168.909 -80.0677C169.497 -79.7706 170.082 -79.4686 170.665 -79.1618L170.898 -79.6042C171.483 -79.2958 172.066 -78.9826 172.646 -78.6645L172.405 -78.2262C172.983 -77.9089 173.558 -77.5869 174.131 -77.2601L174.379 -77.6943C174.953 -77.3661 175.525 -77.0332 176.093 -76.6957L175.838 -76.2658C176.405 -75.9292 176.968 -75.5879 177.529 -75.2421L177.791 -75.6675C178.355 -75.3198 178.915 -74.9673 179.472 -74.6103L179.202 -74.1894C179.757 -73.8339 180.308 -73.4738 180.856 -73.1092L181.133 -73.5255C181.684 -73.1588 182.232 -72.7876 182.777 -72.4119L182.493 -72.0003C183.036 -71.626 183.575 -71.2471 184.11 -70.8639L184.401 -71.2705C184.939 -70.8856 185.474 -70.4962 186.005 -70.1025L185.707 -69.7008C186.237 -69.3082 186.763 -68.9112 187.286 -68.5098L187.59 -68.9064C188.115 -68.5032 188.637 -68.0957 189.154 -67.6839L188.843 -67.2926C189.359 -66.8826 189.871 -66.4682 190.379 -66.0496L190.697 -66.4356C191.208 -66.0148 191.715 -65.5897 192.219 -65.1605L191.894 -64.7799C192.396 -64.3525 192.894 -63.9209 193.388 -63.4851L193.719 -63.8601C194.215 -63.4224 194.707 -62.9806 195.196 -62.5346L194.859 -62.1653C195.346 -61.7211 195.828 -61.2728 196.307 -60.8204L196.651 -61.184C197.132 -60.7297 197.609 -60.2713 198.082 -59.809L197.733 -59.4513C198.204 -58.9909 198.672 -58.5266 199.135 -58.0583L199.49 -58.41C199.956 -57.9396 200.417 -57.4653 200.875 -56.9871L200.513 -56.6415C200.969 -56.1654 201.42 -55.6854 201.867 -55.2016L202.235 -55.541C202.684 -55.0552 203.129 -54.5656 203.57 -54.0721L203.197 -53.739C203.636 -53.2477 204.07 -52.7527 204.501 -52.254L204.879 -52.5807C205.312 -52.0799 205.74 -51.5753 206.164 -51.0671L205.78 -50.7468C206.202 -50.241 206.62 -49.7315 207.033 -49.2185L207.422 -49.5322C207.837 -49.017 208.248 -48.4982 208.654 -47.9759L208.26 -47.6689C208.664 -47.1488 209.065 -46.6252 209.46 -46.0981L209.86 -46.3984C210.257 -45.8696 210.65 -45.3373 211.038 -44.8016L210.633 -44.5082C211.02 -43.9748 211.402 -43.438 211.78 -42.8978L212.189 -43.1843C212.568 -42.6419 212.943 -42.0962 213.313 -41.5472L212.898 -41.2678C213.266 -40.7218 213.629 -40.1726 213.988 -39.62L214.408 -39.8923C214.768 -39.3374 215.123 -38.7793 215.474 -38.2179L215.05 -37.9528C215.4 -37.3943 215.744 -36.8326 216.084 -36.2678L216.512 -36.5256C216.853 -35.9591 217.189 -35.3894 217.521 -34.8167L217.088 -34.5663C217.418 -33.9961 217.743 -33.4227 218.063 -32.8464L218.5 -33.0893C218.822 -32.5113 219.138 -31.9303 219.45 -31.3463L219.008 -31.1109C219.318 -30.5302 219.623 -29.9465 219.923 -29.3599L220.369 -29.5877C220.67 -28.9986 220.967 -28.4065 221.258 -27.8116L220.809 -27.5916C221.099 -27.0006 221.384 -26.4069 221.663 -25.8104L222.116 -26.0227C222.397 -25.4241 222.672 -24.8228 222.943 -24.2187L222.487 -24.0143C222.756 -23.4128 223.021 -22.8087 223.28 -22.2019L223.74 -22.3984C224 -21.7911 224.254 -21.1811 224.504 -20.5684L224.041 -20.3798C224.289 -19.7702 224.532 -19.158 224.77 -18.5432L225.237 -18.7238C225.476 -18.1064 225.71 -17.4864 225.938 -16.864L225.469 -16.6915C225.696 -16.0746 225.917 -15.4553 226.134 -14.8336L226.606 -14.9979C226.823 -14.3735 227.035 -13.7466 227.242 -13.1173L226.767 -12.9612C226.973 -12.3352 227.174 -11.7068 227.369 -11.0761L227.847 -11.2241C228.042 -10.5936 228.232 -9.96088 228.416 -9.32591L227.936 -9.18629C228.12 -8.55408 228.299 -7.91965 228.472 -7.28303L228.955 -7.41432C229.128 -6.77598 229.297 -6.13545 229.46 -5.49279L228.975 -5.36987C229.136 -4.73304 229.293 -4.0941 229.444 -3.45311L229.93 -3.56765C230.082 -2.92385 230.228 -2.27798 230.369 -1.63011L229.88 -1.52401C230.02 -0.880646 230.154 -0.235283 230.283 0.412025L230.773 0.314384C230.902 0.961449 231.025 1.61044 231.143 2.26133L230.651 2.35051C230.769 2.99857 230.881 3.64851 230.988 4.30029L231.481 4.21961C231.588 4.87186 231.689 5.52593 231.784 6.18179L231.29 6.25395C231.385 6.90385 231.474 7.55552 231.558 8.20889L232.054 8.14523C232.138 8.80144 232.217 9.45936 232.29 10.1189L231.793 10.1741C231.865 10.8278 231.932 11.4832 231.994 12.1402L232.492 12.0936C232.553 12.7502 232.609 13.4084 232.66 14.0681L232.161 14.1063C232.211 14.7632 232.256 15.4216 232.295 16.0816L232.794 16.0519C232.834 16.7112 232.867 17.3719 232.895 18.034L232.396 18.0551C232.423 18.711 232.446 19.3683 232.462 20.0269L232.962 20.0142Z" stroke="#49474B" stroke-dasharray="2 2"/>
<circle cx="175" cy="63" r="115.5" stroke="#49474B" stroke-dasharray="2 2"/>
</svg>
